<?xml version="1.0" encoding="UTF-8"?>
<svg xmlns="http://www.w3.org/2000/svg" version="1.1" viewBox="0 0 539.1 814.2">
  <defs>
    <style>
      .cls-1 {
        fill: #010101;
      }

      .cls-2 {
        fill: #fc4567;
      }

      .cls-3 {
        fill: #f0f0f0;
      }

      .cls-4 {
        fill: #d1d1d1;
      }

      .cls-5 {
        fill: #00bc98;
      }
    </style>
  </defs>
  <!-- Generator: Adobe Illustrator 28.6.0, SVG Export Plug-In . SVG Version: 1.2.0 Build 709)  -->
  <g>
    <g id="Capa_1">
      <path d="M491.7,781.5c-7.5,0-15-.1-22.4,0,3.1-.3,6.2-.6,9.3-.9,6.2-.6,5.8-20.6,0-20-80.4,7.9-161.1,11.8-241.8,11.9,45.5-.7,91-2.3,136.4-5,26.7-1.6,53.4-3.5,80.1-5.7,6.2-.5,5.9-20.5,0-20-10.9.9-21.9,1.8-32.8,2.6,3.3-5,2.2-18.7-2.6-18.2-91.9,10.2-184.4,13.2-276.7,9.1-25.8-1.2-51.6-2.9-77.3-5.2-5.8-.5-6.2,19.4,0,20,6.6.6,13.2,1.1,19.8,1.6-.8,0-1.7,0-2.5,0-6-.2-6.1,19.8,0,20,8.7.2,17.3.4,26,.6-2.4,5.5-1.4,17,3.3,17.2,19.2.9,38.4,1.7,57.6,2.2-12.5.1-25,.1-37.4,0-6,0-6.1,19.9,0,20,93.9,1.2,187.7-6.5,281.5-9.2,26.5-.8,53-1.1,79.5-.8,6,0,6.1-19.9,0-20Z"/>
      <path d="M538.6,477.9c-1-6.4-4-11.9-8.1-16.8-6.9-8.1-15.2-14.1-23.5-20.6l-27.5-21-32.2-24.3c-3.1-2.3-6-4.8-9.1-7-1-3.6-1.3-7.5-1.8-11.2-.8-5.9-1.6-11.8-2.6-17.6-4.4-24.8-9.3-49.5-16.5-73.7-3.8-12.8-9.2-25.4-15.4-37.3-2.3-4.4-8.6-12.6-9.6-16.5-.9-3.3-.5-12.7-.7-16.7-.4-10.9-1.7-21.7-2.5-32.6-.5-6.2-.7-18.9-2.4-24.3,1.4-1.8,2.8-3.5,3.8-5.6,6.2-13,3.5-33-2.9-45.5-1.2-2.3-4.4-3.8-5.5-5.8-.3-.6-1.5-21.5-1.8-24.6-2.1-20.8-5-40.7-22.3-54.7-10.3-8.3-26.3-12.7-39.1-15.2-23.1-4.6-47.3-5.5-70.8-6.3-40.1-1.2-80.5-.9-120.4,3.5-29.4,3.2-80.8,10.4-105.5,27-4,2.7-7.7,6.3-10.7,10.1C4,50.5,1,62.2.2,73.8c-1,14.5,1.2,29.1,2.6,43.5,1.9,21.4,4,42.8,6.5,64.1l6.1,62.3,8.9,83.2c2.6,22.5,6.2,44.8,8.7,67.3-.6.3-1.2.6-1.8,1-4.2,3-7.1,13.1-7.7,18-2.6,22,14.4,47.8,27.6,64.5-.5,14.7-.2,29.4-.3,44.1l-.6,49.7c0,9.9.2,136.2-.1,168,0,3.7,2.9,6.7,6.6,6.7l20.2-.3h8.4c.6-.3,1-.6,1.4-1.1v-20.5c0,0,.4-143.8.4-143.8l.4-42.4c0-4.8,0-9.5,0-14.3,0-1.4-.3-2.8-.2-4.2,0-.4.2-.7.4-1.1.8,0,1,.4,1.6.9,2.1,1.7,3.9,3.8,5.9,5.7,3.6,3.3,7.3,6.4,11,9.5,11,9.1,26,20.9,39.7,25.4v248.6c0,3.2,2.5,5.8,5.7,5.8h29.1c3.2,0,5.7-2.5,5.8-5.7.5-36.5.4-226,.4-235.8,0-3.2.5-7.1-.2-10.2l.3-.5c6.1-1,12.9-.8,19.1-1.2l39.9-2.4,52.5-3.7c13.2-1,26.6-2.3,39.8-2.8-.1,16.6-.6,153.9-.9,189.9,0,2.4,1.9,4.3,4.3,4.3h28.4c2.4,0,4.3-1.9,4.3-4.3l.9-172.8c.2-6.6.7-13.3.5-19.9,19.8-1.2,39.6-2.6,59.4-4.1,17.8-1.5,35.5-3.4,53.4-4.3.5,0,.3,0,.9.1.4,4.4-.2,9-.2,13.4,0,8.9,0,17.9-.3,26.8-.2,4.1-.6,128.5-.5,191.1v30.7c0,2.7,2.2,4.9,4.9,4.9h24.7c2.3-.3,4.1-2.3,4.1-4.7v-31l.3-209.3c0-11,0-22,.7-33,2.3-2.1,4.9-4.1,6.8-6.6,7.3-9.5,10.8-33.3,8.9-45.3ZM518.2,556.5c-.1,12.1-1,145.3-1,215.6v27.9h-17.5v-13.5c.9-32.9.2-199.4.1-202.4,0-4.2-.6-42.7,0-43.9,0-.2.7-.5.7-.5,1.6-.7,3.7-.7,5.4-1.3,4.3-1.4,8.2-3.5,12.1-5.6.8,7.8.2,15.8.2,23.6Z"/>
      <path class="cls-3" d="M518.2,556.5c-.1,12.1-1,145.3-1,215.6v27.9h-17.5v-13.5c.9-32.9.2-199.4.1-202.4,0-4.2-.6-42.7,0-43.9,0-.2.7-.5.7-.5,1.6-.7,3.7-.7,5.4-1.3,4.3-1.4,8.2-3.5,12.1-5.6.8,7.8.2,15.8.2,23.6Z"/>
      <path class="cls-3" d="M367,340.4c2.4-.3,4.5,0,6.9.2-.5,2.3-1.1,4.5-1.8,6.8l-.4.7c-.2-.1-.3-.1-.6-.3-.8-.8-4.1-6.4-4.1-7.4Z"/>
      <path class="cls-3" d="M369.6,436.6s0,0,0,0c.9,1.8-2.3,9.4-2.8,11.5-.6,2.2-.9,4.3-1.2,6.5l-.4.3c-.9-2-1.3-4.1-1.3-6.3,0-4.7,2.4-8.9,5.7-12.1Z"/>
      <path class="cls-5" d="M170.9,35.3c.7,0,1.3-.1,2,0,.1,0,.2,0,.4,0,.1,0,.2,0,.4.1.1,0,.2,0,.3.1.1,0,.2.1.3.2.1,0,.2.1.3.2.1,0,.2.2.3.2,0,0,.2.2.3.3,0,0,.2.2.2.3.6.8.8,1.9.7,2.9-.3,1.8-1.4,2.7-2.9,3.7-1.1.2-2.2,0-3.1-.7-1.1-.8-1.4-2.2-1.4-3.5,0-1.8,1-2.7,2.3-3.8Z"/>
      <path class="cls-5" d="M316.7,23.2c.7,0,1.4.2,2,.4,1,.4,1.7,1,2.1,2.1.5,1.2.4,2.7-.3,3.8-.7,1.3-1.8,1.9-3.2,2.2-1.1.1-1.9,0-2.9-.7-.1,0-.3-.2-.4-.3-.1-.1-.2-.2-.3-.3-.1-.1-.2-.2-.3-.4,0-.1-.2-.3-.3-.4,0-.1-.2-.3-.2-.4,0-.1-.1-.3-.2-.4,0-.2,0-.3-.1-.5,0-.2,0-.3,0-.5,0-.1,0-.3,0-.4,0-.1,0-.3,0-.4,0-.1,0-.3,0-.4,0-.1,0-.3,0-.4,0-.1,0-.3.1-.4,0-.1.1-.3.2-.4,0-.1.1-.3.2-.4,0-.1.2-.2.3-.4.9-1.1,1.9-1.2,3.2-1.3Z"/>
      <path class="cls-3" d="M369.2,331.6c1.4-.2,3.1,0,4.5.2l.6.6c.3,1.4.3,2.3-.4,3.6-4.6,2.2-18.3-2-23.6-2.5-1.7-.2-7.1.2-8.1-.4,1.3-.8,23.6-1.3,27.2-1.4Z"/>
      <path class="cls-3" d="M321.1,394.3c3.3,0,6.7,0,9.9.6.3.8.6,1.5.8,2.3-2.6,0-5.5-.7-8.2-.9-.9,0-1.7-.1-2.6-.2-.9,0-1.8,0-2.6,0-.9,0-1.8,0-2.6.1-.9,0-1.7.2-2.6.3-.9.1-1.7.2-2.6.4-.9.2-1.7.3-2.6.5-.9.2-1.7.4-2.5.7-.8.3-1.7.5-2.5.8-2.4,1.1-4.8,2.4-7.2,3.7-1.2-1.9-2.1-3.9-3-5.9,5.5-.5,11.1-1.2,16.6-1.6,3.9-.3,7.9-.3,11.7-.8Z"/>
      <path class="cls-3" d="M272.1,439.2c.5.9-1,4.7-1.4,5.9-2.2,7.5-3.6,15-3.6,22.8l-1.6-3.9c-1.5-3.5-2.7-7-3.6-10.7,2.8-5.7,5.4-10,10.2-14.2Z"/>
      <path class="cls-3" d="M377.8,224.3c3.1,1,7,7.9,9.4,10.5-2,.7-3.9,1.5-5.9,2.3-2.1,1-3.8,2.3-5.5,3.9-.6-2.8-1.2-12.5-.5-15,.2-.9,1.7-1.3,2.5-1.7Z"/>
      <path class="cls-5" d="M381,106.8c.4.3.7.7,1,1.1,7.6,11.6,7.6,28.3,4.8,41.4-.2.6-.4,1-.7,1.5-.5-.6-.5-.9-.6-1.7-.5-3-.5-6.1-.8-9.1-.9-7-1.7-14-2.4-21-.4-4.1-1.1-8.3-1.2-12.4Z"/>
      <path class="cls-3" d="M374.6,420.9c0,1.4-.4,2.8-.8,4.2-2.2,7.8-5.2,7.9-9.2,13.7-1.6,2.3-2.4,4.6-3.3,7.2l-.8-1.9c-.9-2.1-1.8-4.2-2.4-6.4,3.4-9.3,7.7-12.5,16.5-16.7Z"/>
      <path class="cls-3" d="M113.8,434.9c.2,0,.6.1.8.2.3.7.4,1,0,1.8-1.2,3-3.7,5.2-6.7,6.2-4.6,1.6-10.5,1.6-14.9-.6-1.1-1-2-1.9-2.8-3.1l.5-4c6.7,1.2,16.5,1.4,23-.3Z"/>
      <path class="cls-3" d="M381.8,192.9c1.4,3.9.9,24.6,1.4,30.4-1.4-1-2.8-2.1-4.1-3.3-1.2-1-2.4-1.8-3.8-2.6,0-6.1-.2-12.6-.9-18.7,2.6-1.8,5-3.8,7.4-5.9Z"/>
      <path class="cls-3" d="M388.3,237.7h.4c2.6,2.4,4.3,6.6,6,9.6-4.9,2-9.9,3.9-14.6,6.4-1.4.9-2.6,1.8-3.8,2.9l-.6-13.2c4-2.3,8.2-4.1,12.5-5.7Z"/>
      <path class="cls-3" d="M280,421.9c0,.4,0,.2-.2.6-1.7,2.9-3.1,6.9-5.4,9.4-2.7,2.9-6.5,4.7-9.2,7.9-2.2,2.6-3.4,5.9-5.6,8.4h-.4c0-.1-.5-1.3-.5-1.3-.7-1.6-1.5-3.1-2.1-4.7-.3-.9-.3-1.5,0-2.3.7-1.4,2-2.9,3-4.2,5.5-7.3,11.7-11.1,20.3-13.7Z"/>
      <path class="cls-3" d="M148.4,245.4c2.8-.2,4.8.4,7.2,1.9,3.1,2,6.5,5.8,7.1,9.5.5,2.9-1.2,4.9-2.7,7.2-1.1-.7-2.2-1.3-3.3-1.9-5.8-3.1-11.3-6.5-16.8-10,2.7-3,4.9-5,8.6-6.7Z"/>
      <path class="cls-3" d="M132.1,339.1c1.2,2.1,2.1,21.1,2.6,25.1.6,5.6,1.4,11.3,2.7,16.7-2.1-.5-3.9-1.4-5.8-2.4-1.9-.9-4.6-1.8-6-3.3-.2-3.5,1-7.8,1.6-11.3.7-4,1.2-8.1,2-12.1.8-4.3,1.9-8.5,2.9-12.7Z"/>
      <path class="cls-3" d="M379.6,407.4h.7c.3,2.1-2.9,8.3-4.1,10.3-6.9,1.6-12.5,4.9-16.8,10.8-.9,1.2-2.1,3.5-3.3,4.3l-.4-.6c-1-2.4-2-4.7-2.9-7.1.5-1.1,1.1-2.1,1.8-3.1,6-8.9,14.7-12.5,25-14.5Z"/>
      <path class="cls-3" d="M138,255c5.3,4.2,14,9.7,20.4,11.8-.8,1.7-3.8,8.2-5.3,9.2-2.7-1.1-5.2-2.6-7.8-3.9-4.6-2.3-9.2-4.6-13.6-7.1,1.6-3.9,3.4-6.9,6.3-10Z"/>
      <path class="cls-3" d="M110.1,312c3.6.7,7.3,2.2,10.8,3.3,4.1,1.3,8.4,2.4,12.5,3.8-1,3.1-2.3,6.1-3.4,9.1-1.9.7-20.5-3.9-23.1-5,.9-3.8,2.2-7.4,3.2-11.2Z"/>
      <path class="cls-3" d="M98.8,358.6c7.2,2.1,16.3,2.7,23.8,1.9-.5,4.1-1.2,8.1-2.1,12.2-3.3-.4-6.5-.6-9.8-.9-2.6-.3-12.3-1-13.6-2.6,0-3.4.9-7.2,1.7-10.5Z"/>
      <path class="cls-3" d="M129.9,268.3c4.1,2,8,4.2,12,6.2,3.2,1.6,6.5,2.8,9.8,4.2-1.7,3.1-2.7,7-4.9,9.8-7.6-2.3-15.5-6.8-22.9-9.9,1.2-3.2,3.3-8.1,5.9-10.3Z"/>
      <path class="cls-3" d="M238.7,342.5c5.1-.9,15.7.2,20,3.2.6.4,1.8,1.6,1.9,2.3-2.2.4-4.9,0-7.2,0-8,0-15,1.5-22,5.4-5.2,3-8.3,6.7-11.6,11.7-.7-5.3,0-10.4,3.4-14.8,4-5.2,9.3-6.9,15.5-7.7Z"/>
      <path class="cls-3" d="M90.9,419.7c7.9,1.9,16.6,1.5,24.7,1.2,0,3.8-.7,7.6-.9,11.4-5.4.5-18.6,1-23.7-.5-1-1.6-.2-9.8-.1-12.1Z"/>
      <path class="cls-3" d="M396.1,250.4s0,0,0,0c1.6,1,5.3,9.5,5.9,11.7-2.9,1.2-6.1,1.9-9.1,2.8-3.7,1.1-7.3,2.5-10.9,4l-3.3,1.7c-1.9-3.6-2.1-6.8-2.3-10.8,6.4-3.7,12.6-7,19.6-9.3Z"/>
      <path class="cls-3" d="M96.8,373.4c7.6,2.1,15.8,1,23.2,2.6v.5c-.1,0,.3-.3.3-.3.6,1.1-1.2,10.1-1.6,11.7-8.1-.6-16.1-1.6-24.1-3,.4-3,.5-9,2.2-11.5Z"/>
      <path class="cls-3" d="M105.8,327.2c1.2,0,21.8,4,22.7,4.4,0,3.5-1.8,8.2-2.7,11.6,0,0-.1,0-.2,0-1.7,0-18.6-3.1-20.8-3.7-.7-.2-1.3-.3-1.8-.9-.3-3.4,1.5-8.4,2.8-11.5Z"/>
      <path class="cls-3" d="M92,404.8c5.5.6,11.2,1.4,16.7,1.2,2,0,6-1,7.7-.2.8,2.6-.1,9.5-1.2,12.1-1.8.9-20.3-1.1-23.8-1.5,0-3.8.4-7.8.7-11.6Z"/>
      <path class="cls-3" d="M115.2,296.9c0,0,.2,0,.3,0,3.6.3,8,2.8,11.4,4,4,1.4,8.2,2.6,12.2,4-1.5,3.5-3.3,7.1-4.1,10.9-.7,0-20.7-6.6-23.5-7.2,1.1-3.9,2.5-7.8,3.8-11.7Z"/>
      <path class="cls-3" d="M425.8,376c1.3-.2,2.7-.2,4-.4.8,4.1,1.5,8.3,1.6,12.5-3.2.6-6.3.8-9.5,1.3-3.1.5-5.9,1.3-9,1.4-1.3,0-2.6.1-3.9.3-1.3-3.3-1.5-8.1-2.1-11.7,6-1.9,12.7-2.7,18.9-3.5Z"/>
      <path class="cls-3" d="M102,342.5c.6.3.4.2.9.3,7.4,1.5,14.7,2.4,22.2,3-1,4.1-1.9,8.2-2.2,12.4-3.8-.6-7.7-.8-11.6-1.2-3.9-.4-7.9-1-11.8-1.4.1-4.3,1.3-9,2.4-13.1Z"/>
      <path class="cls-3" d="M122.2,281.7c8.1,3.7,14.6,6.7,23.2,9.4-1.2,3.7-3.3,7.4-5,10.9-4.2-.8-19.5-6.8-23.1-9,1.5-3.9,3.1-7.6,5-11.3Z"/>
      <path class="cls-3" d="M94.1,388.7c5,.6,10,1.4,15.1,1.7,2.9.2,6.2-.2,8.9.4.7,2.6-.6,9.4-1.2,12.2-8.7-.9-15.5,0-24.5-2.3.8-4,1.1-8.1,1.7-12.1Z"/>
      <path class="cls-3" d="M413.6,295.8h.3c2,1.6,3.1,9.3,3.7,12-7.9,1.3-15.3,3.3-22.9,5.8h-.2c-1-.6-3.4-10.6-3.8-12.3,4.6-.9,9-2.4,13.5-3.5,3.1-.8,6.3-1.2,9.4-1.9Z"/>
      <path class="cls-3" d="M408.2,280.4c.4,0,.7,0,1.1,0,2.4,3,3.6,9.1,4.6,12.8-7.8.5-14.7,2.3-22.1,4.8-.8.2-1.2.3-2,.1-1.5-2.5-2.7-7.6-3.6-10.5,7.3-3,14.3-5.7,22-7.4Z"/>
      <path class="cls-3" d="M423.4,344.1c.6,0,1-.1,1.6,0,1.5,2.2,1.9,9.6,2.1,12.5-7.8.1-15.5,1.5-23,3.5-.4,0-.6,0-1,0-1.7-2.7-2-8.5-2.5-11.6,7.1-2.8,15.3-3.7,22.8-4.4Z"/>
      <path class="cls-3" d="M426.6,359.5c.6,0,.3,0,1,.2,1.5,3.6,1.5,9.1,1.9,13-8.5.6-14.7,1.4-22.9,3.6l-.5-.3c-1.3-3.7-1.8-8-2.6-11.9,7.7-2.5,15.2-3.4,23.2-4.6Z"/>
      <path class="cls-3" d="M419.4,328.3c.8-.1,1.3-.2,2.1,0,2.1,2.2,2,9.1,2.7,12.1v.4c-7.4.4-14.3,1.5-21.6,3.5l-3.1.6c-.1-2.1-2-11.2-1.3-12.3,4.4-2.3,15.9-4,21.1-4.3Z"/>
      <path class="cls-3" d="M403.2,264.9c2.3,2.7,3.9,8.9,5.2,12.3-8.5,1.8-15.2,4.2-23,7.9-1.7-2.4-4.3-9.2-5.2-12.1,3.7-1.5,7.4-3,11.2-4.2,3.9-1.3,8-2.3,11.8-3.9Z"/>
      <path class="cls-5" d="M128.7,130.6c.7,0,1.4-.1,2.1-.1,2.1,0,4.3,1.9,5.6,3.4,6.7,7.7,9.5,24.4,8.7,34.2-.4,5.3-1.6,15.2-6.1,18.8-1.2,1-2.5.8-4,.6l-.2-.3c-.8.5-1.7,1.1-2.7,1.2v-.3c.5-1.3,1.8-2,2.7-3.1.7-.8,1.2-2.4,1.6-3.4,2.5-6.7,3.3-13.4,3-20.5-.5-9.9-3.4-21.9-11.1-28.8-.5-.4-.3-.2-.5-.9l.9-.7Z"/>
      <path class="cls-3" d="M415.9,311.3c.9-.2,1.4-.2,2.3,0,1.4,1.9,2.9,10.9,3.4,13.6-3.2.7-6.5.8-9.7,1.2-3.9.5-7.8,1.3-11.6,2.3l-2.8.9c-1.3-4-1.8-8.3-2.7-12.4,6.9-2.4,13.9-4.5,21.1-5.7Z"/>
      <path class="cls-3" d="M281.3,408.1c2.1-.3,5.9-.5,7.9.3-1.6,3.2-4.7,6.8-7.1,9.5-.8,0-1.6.2-2.3.4-9.4,1.9-18.5,8-23.8,16.1l-1.6,2.8c-1-3-2.8-5.5-4-8.4.5-1.1,1.1-2.1,1.8-3.1,6.8-9.7,17.5-15.5,29.1-17.5Z"/>
      <path class="cls-3" d="M396.9,355.1c1.4,3.9,1.8,8.7,2.6,12.8,1.5,8,3,16.1,4.7,24-2.6.8-5.6,2.5-8.3,2.7-.8-.4-.8-.4-1.3-1.2-2-6.1-6-11.3-8.7-17-.2-.4-.5-1.2-.4-1.7.2-1.1,4-5.6,4.9-6.8,2.7-4,5-8.3,6.6-12.8Z"/>
      <path class="cls-3" d="M272.3,374.7c1.5.5,2.8.7,4.4.8,1.1,2,1.9,4.1,2.7,6.2-2.8,0-5.6,0-8.4.4-2.8.3-5.5.8-8.3,1.4-9.1,2.1-18.6,7.3-23.6,15.3l-1.8,2.6c-.9-2.1-2.8-4.7-3.3-6.8-.4-1.6,1.1-3.7,2-4.9,5.8-7.9,15.5-12.9,25.1-14.1,3.6-.4,7.3-.2,10.8-.8.1,0,.2,0,.3,0Z"/>
      <path class="cls-3" d="M345.8,337.2c5-.2,10.7.3,15.4,2.1,1.1,1.7,2.1,3.4,3,5.2-2.6-.5-5.2-.9-7.9-.9-11.4-.3-19.1,2.5-27.3,10.3-2.8,3.4-5,6.2-6.4,10.4-1.5-2.8-2.9-5.9-2.9-9.2,0-4.2,2.2-8.1,5-11,5.5-5.7,13.6-6.8,21.1-6.9Z"/>
      <path class="cls-3" d="M379.7,394.2c.5.2.7.2,1.2.1,2.7-.3,5.4,0,8.1.4l2,2.6c-2.2,1.7-4.5,3.9-7,5.2-2.3,1.2-5.1,1.6-7.6,2.1-8.6,1.8-14.6,4.3-21.1,10.3-1.3,1.4-2.5,2.9-3.8,4.4-.7-3.4-1.6-6-3.9-8.7.5-.9,1-1.7,1.6-2.5,7-9.8,19.2-12.5,30.4-14Z"/>
      <path class="cls-3" d="M275.1,385.1l5.7.2,4.6,8.1c-.7,0-1.4,0-2.2-.1-13.9-.4-26.5,4.3-36.6,13.8-1.5,1.5-2.9,3-4.3,4.6-1-2.3-2.1-4.6-3.1-6.9,1.3-2.6,3-4.9,4.9-7,7.8-8.5,19.7-12.4,31-12.9Z"/>
      <path class="cls-3" d="M373.2,382c.4-.2.2-.2.7-.2,3,.1,6,.4,9,.8,1.9,2.6,3.5,5.9,5,8.8-12.5-1.1-25.3,1.3-35.6,8.7-2.4,1.9-4.4,4.1-6.4,6.3-1.2-2.2-2.7-4.1-4.2-6.1,1.3-1.8,2.5-3.8,3.9-5.5,7-8.5,17-11.8,27.6-12.8Z"/>
      <path class="cls-3" d="M278.4,396.8c2.9-.4,5.9-.1,8.8,0,1.1,3.3,2.5,6.5,4.2,9.5-2.7-.8-5.3-1.6-8.1-1.6-10.2,0-22.4,6.4-29.5,13.5-1.8,1.8-3.2,4.1-4.7,6.2-2.2-3-3.5-6-4.4-9.6,9.2-10.6,19.7-16.3,33.7-17.9Z"/>
      <path class="cls-3" d="M361.8,358c2.7.5,6.1.1,8.9.4,1.8,2.6,3.1,5.7,4.4,8.6-4,.2-8-.5-12-.1-10.3.8-19.3,5.8-25.9,13.6-1.6,2.2-2.8,4.5-4.1,6.9-1.1-2.9-2.6-5.6-4-8.4,1.3-2.3,2.7-4.6,4.3-6.8,7.4-9.6,16.8-12.8,28.3-14.2Z"/>
      <path class="cls-3" d="M357.2,346.6c3,0,5.6.3,8.5,1,.4.5.7.9,1,1.4.6,1,3,5,2.8,6-2.9-.3-6.5-.8-9.3-.5-11.5,1.1-21.3,5.8-28.7,14.7-1.6,2.1-2.6,4.5-4,6.8-1.2-2.6-2.3-5.4-3.5-8,1.4-4.2,3.7-8.5,6.8-11.7,7.3-7.7,16.3-9.3,26.4-9.6Z"/>
      <path class="cls-3" d="M366.4,370c3.2-.5,7.2,0,10.4.6,1.9,2.7,3.2,5.6,4.3,8.6-2.1-.3-4.3-.4-6.5-.4-12-.1-22,3.7-30.6,12.1-2.2,2.4-3.7,4.8-5,7.8-1.5-2.8-2.8-5.7-4-8.6,1.7-3,3.5-5.8,5.8-8.4,6.6-7.2,15.8-11.3,25.5-11.7Z"/>
      <path class="cls-3" d="M253.1,351c3.7-.1,7.5,0,11.1.9,1.3,2.7,2.6,5.4,4.4,7.9-14.5-.9-25.9.9-37.4,10.5-2.3,2.2-4.3,4.5-6,7.2-1.7-2.7-2.9-5.6-4.2-8.5,1.6-2,3.1-4.2,4.8-6.1,7.3-8.3,16.6-11.1,27.3-11.8Z"/>
      <path class="cls-3" d="M255.5,363.1c.4.2.7.2,1.1.2,4.7-.2,9.6-.5,14.3.4,1.2,2.6,2.5,5.1,3.5,7.8-13.2-.8-24.7,1.9-35.3,9.7-3,2.5-5.5,5.4-7.2,8.9-1.9-3-3.9-6.2-5-9.6,5.8-7,11.7-12.9,20.6-15.7,2.4-.8,5.2-.6,7.6-1.5.2,0,.3-.1.5-.2Z"/>
      <path class="cls-5" d="M317.3,400.5c2.5-.3,5.5-.2,8,0,4.6.3,10,1.2,13.2,4.8.6.7,1.3,1.4,1.9,2.1-11.1-2.2-26.8-3-36.8,2.9-15.8,9.4-21.6,36.4-25.8,53.3-1.4,5.4-3,11.4-3.1,17.1-.4.7-.3.7-1.1,1-1.1-1-2.4-6-2.6-7.6-1.7-18.3,8.1-47.1,20.1-61.1,7.4-8.7,15-11.6,26.1-12.5Z"/>
      <path class="cls-5" d="M418.1,395.5c1.5,0,3,0,4.5,0,1.5,0,3,.3,4.4.6,5.4,1,9.8,3.4,12.9,8-1.5-1-3-1.9-4.8-2.4-7.7-2.2-32.3,2.1-39.1,6.2-2,1.2-3.3,3-4.4,5-2,3.6-3.2,7.7-4.5,11.6-3.7,10.6-7.1,21.4-9.8,32.3-1.2,5.6-2.6,11.4-2.4,17.2-.5-.4-1-.8-1.4-1.2-2.3-2.1-3.8-5.1-3.9-8.2-.4-9.6,12.4-51.1,18.7-57.9,7.6-8.1,19.1-10.6,29.7-11.2Z"/>
      <path class="cls-5" d="M122.7,135.3c.8.1,1.6.2,2.3.7,4.3,2.7,6.7,9.1,7.8,13.8,3,12.4,2.4,23.6-4.2,34.6-1,.5-2,.9-2.9,1.4-.2,0-.4,0-.6,0-1.9-.4-4-2.9-4.9-4.4-5.8-9.3-7.4-22.7-4.8-33.3,1.2-4.8,3-10,7.4-12.6Z"/>
      <path class="cls-1" d="M120.9,146.2c1,0,1.7.2,2.4.9,4.1,4,4.5,16.9,4.1,22.4-.1,1.7-.1,2.8-1.4,3.9-.4-.2-.9-.3-1.3-.5,0,0-.5-.3-.5-.4-.9-1.8.2-12-.8-15.6-.8-2.9-2.5-5.6-3.2-8.4-.2-1,.2-1.4.7-2.2Z"/>
      <path class="cls-3" d="M377,276.7c1.5,2.9,2.4,6.9,3.4,10,5.8,17.7,10.9,35.8,13.6,54.2.3,1.8.5,3.6.3,5.5-.8,7.1-5.1,16.7-9.4,22.5l-1.5,2.3c-3.1-5.9-5.5-12.6-9.4-18,3.1-3.6,4.3-8.9,4.9-13.5,1.1-8.2.8-16.7.4-25-.6-12.7-1.7-25.3-2.3-38Z"/>
      <path class="cls-3" d="M85.2,389.2c.4,0,.7,0,1.1-.1.7,0,1.2,0,1.7.5.3,4.3-1,9.7-1.3,14.1-.8,10.1-1.3,20.2-1.8,30.3-6.1-5.5-11.3-11.7-17.2-17.3-7.1-6.4-12.8-14.4-19.8-21l.2-5.8c11.9,1.4,25.2.1,37.1-.8Z"/>
      <path class="cls-3" d="M331,332.8c2.8-.1,7.3-.9,9.9.1v.4c-1.5.4-3.2.1-4.6.5-4.2,1.3-8.2,3.4-12.6,4-3.4.5-7.2.2-10.7.3l-23.7.6c-10.7.3-21.4,1.5-32.1,1.3-5.4,0-10.6-1.4-16-1.3-5.6.1-10.7,2-16.2,2.4-4.7.3-29.6.5-31.7,1.6-.5,1.2-.4,2.4-.4,3.6.2,6.5,1.1,13,1.5,19.6.4,6.5.5,26.8,2.2,31.3,1,.4,1.7.6,2.8.7,3.9.2,8-.3,11.9-.5,5.3-.2,10.7,0,15.9-.4.9,0,2,0,2.8.3.6.3,1,.7,1.2,1.4,0,0-.1.1-.2.2-.5.4-1.3.5-1.9.5-6.4.5-12.8.5-19.2.9-5.6.3-12.2,1.8-17.8.7-.8-1.9-.6-5.4-.8-7.5-1.3-14.2-2.5-28.3-2.7-42.5,0-4.4-.4-8.8.2-13.1,6.1,1.4,16.4-.1,23-.4l29-1.2c30.1-1.5,60.2-2.7,90.2-3.5Z"/>
      <g>
        <path class="cls-3" d="M160.2,561.9c7.3.7,15.2.2,22.5,0-.2,9.4-.3,18.8-.3,28.2,0,4.4-.3,185,0,214.5s-1.8,4-3.9,4h-14.4c-2.2,0-4-1.8-3.9-4,.3-33,.2-229.3.2-242.7Z"/>
        <path class="cls-3" d="M349.9,551.2c7.1-.6,14.4-1.5,21.5-1.7.2,5.5-.2,11-.3,16.5-.3,12.4-.8,146.7-1,172.5,0,1.2-1,2.1-2.1,2.1h-16.9c-1.2,0-2.1-1-2.1-2.1.3-24.6.4-154.3.5-163.9,0-7.8-.3-15.6.5-23.3Z"/>
        <path class="cls-3" d="M64.1,740.5c.4-2.8.2-5.6.2-8.4,0-5.9,0-147.9,0-153.9,0-8.1.4-16.2.4-24.3,0-2.5.4-5.4-.2-7.8-.4-.1-.9-.2-1.3-.3l.2-.4h1c1.3-3,.4-44.1.7-51.8,2.5,3,5,6.1,7.7,9,3.7,4,7.6,7.7,11,11.9-1.2,11.5-.5,23.7-.5,35.3,0,18.1-.4,172.4-.9,190.5h-18.3Z"/>
      </g>
      <path class="cls-4" d="M146.8,92.3c.2,1-.4,2.3-.5,3.4-.3,2.3-.1,4.8,0,7.1.4,5,2,9.9,2.5,15,.5,4.4,1.4,8.8,2.1,13.2l5.7,35.5c1.4,8.6,2.6,24.4,5.7,31.8,2.4,5.6,6,8.7,10.6,12.4-11,4.5-21.1,10.6-31.4,16.3-.4-1.6-.7-3.1-.9-4.8-1.9-10-3.7-20-5.2-30.1,1-.2,2-.3,2.9-.6,3.4-1.1,5.9-3.7,7.5-6.9,5.8-11.5,3.8-29.5-.3-41.2-1.9-5.4-5.5-13.9-11-16.4-3.1-1.4-5.8-.4-8.7.8-.5-5.3-1.4-10.6-2.3-15.9,7.4-6.8,15.5-13.2,23.3-19.6Z"/>
      <path class="cls-5" d="M427,404.4c.5,0,.9,0,1.4,0,3.7-.1,7.4.2,10.2,2.9,2.4,2.3,3.1,5.2,3.2,8.4.3,12.8-8.1,48.1-17.2,57.4-6.3,6.4-22.3,6.3-30.8,6.4-4.1-.2-10.5-.6-14-2.7-.8-.5-1.1-1.1-1.3-2-1.5-7.9,9.8-40.6,13-49.9,1.3-3.9,2.3-9.2,4.7-12.4,3.7-5,24.4-7.3,30.9-8Z"/>
      <path class="cls-5" d="M324.9,409.4c5.8.4,11.2.9,16.9,2.2.3.3.6.6.9,1,.3.3.6.7.8,1s.5.7.7,1.1c.2.4.4.8.6,1.2.2.4.4.8.5,1.2.2.4.3.8.4,1.3.1.4.2.9.3,1.3,0,.4.2.9.2,1.3.9,8.2-11.1,44.5-14.9,53-.4.9-.9,1.8-1.4,2.6-.5.8-1.1,1.7-1.8,2.4-6,7.1-18.5,7.6-27.1,8.3-7.5-.4-14.8-.9-22-3.1,1.3-13.3,7.5-38,12.5-50.2,2.4-5.8,5.4-11.7,9.6-16.4,6.6-7.2,14.3-7.8,23.5-8.2Z"/>
      <path class="cls-4" d="M176.1,215.6h.4c.1.4.3.5.3.8.4,2.6.2,5.9.3,8.7.3,6.2.7,12.4,1.2,18.6l3.8,47.9c1,14.6,1.7,29.4,3.6,44-3.8,2-8.3,6.2-11.9,8.8-11,7.9-22,16.1-33.5,23.4.1-4.8-.4-9.8-.7-14.7-.3-6.8-.5-13.7-1.2-20.4,0-4-1.4-8.9-.5-12.8.9-4,3.2-8.1,4.9-11.8,5.1-11.1,10.5-22.1,16.2-33,2.3-4.5,5.1-8.9,7.2-13.5.5-1.2,1.1-2.5,1-3.8-.4-4.8-4.4-9.8-7.9-12.8-3-2.6-6.5-4.3-10.6-3.9-6.6.6-12,6.3-15.9,11.1-.2-4.2-.3-8.4-.3-12.5,3.6-2.2,7-4.8,10.6-7,5.3-3.2,10.7-6.2,16.3-9,5.5-2.8,11.1-5.5,16.8-8Z"/>
      <path class="cls-3" d="M38.6,401.9c2.5,1.2,14.1,15,17.1,18.1,11.9,12.4,24.2,24.5,36.7,36.3,3.1,3,6,6.1,9.2,9,10.8,10.1,22.3,19.9,34.3,28.6,5,3.7,10,7.6,15.7,10.1-3,6.9-6,14.5-5.4,22.2.7,9.4,4.7,16,11.8,21.9.5.5.5.5.7,1.1,0,0-.2,0-.3,0-.9.2-2.3-.4-3.2-.6-7.1-2-13.2-5.6-19.2-9.7-3.5-2.3-6.6-5-10-7.5-6.5-5-12.6-10.1-18.7-15.6-4.4-4-9-7.9-13.3-12-7-6.8-13.7-13.9-20.1-21.2-6.4-7.3-12.5-14.9-18.4-22.7-4-5.3-8.1-10.8-11.4-16.5-3.6-6.4-6.8-13.9-8.2-21-1.2-6.4-1.1-14.9,2.6-20.5Z"/>
      <path class="cls-3" d="M23.1,35.6c.8.9,1,3.2,1.2,4.4.9,4.7,1.4,9.4,2.1,14.1l3.7,24.2c5,33.7,9.8,67.5,14.3,101.3l16.1,115.6c4.5,30.5,8.6,61,12.2,91.5-5.5,1-11.3.9-16.9,1.7-2.5.5-5,.9-7.5,1.1-1.8-6-2-12.6-2.9-18.8-2.4-15.3-4.6-30.5-6.5-45.9l-11.6-87.3-12.3-93c-1.8-12.4-3.5-24.9-5-37.4-1.4-11.5-2.9-22.9-2.4-34.5.6-15,4.4-26.9,15.5-37.1Z"/>
      <path class="cls-3" d="M365.1,202.8c.8,0,1.3-.1,2.1.2.2.3.3.4.4.8.6,2.4.3,15,.5,18.4l3,71.9c.1,3.7,1.7,31.9.9,33.4-29.7,1.6-59.6,1.8-89.3,3l-63.4,2.5c-7.9.3-15.8,1.1-23.7,1.2-1.1.1-2.1.3-3.1.2-.1-.2-.3-.4-.4-.6-.4-1.2,0-5.8-.2-7.4-.4-6.9-1-13.7-1.5-20.6-2-30.4-4.3-60.7-6.8-91.1,9.7,0,19.6-1.1,29.3-1.8,19.4-1.3,38.8-2.7,58.2-4.3,17.1-1.3,34.2-2.5,51.4-3.5,14.2-.8,28.5-1.2,42.6-2.4Z"/>
      <path class="cls-1" d="M352.5,214.5c1.7,0,3.2-.2,4.7.7,1,2,1.3,4.7,1.5,7,.5,5.6.6,11.3.8,16.9l1.3,30.7c.5,9.8,1,19.7,1.3,29.5.2,5.4.5,10.8.1,16.2-5.6,2.1-14.1,1.7-20.1,2-13.6.7-27.2.9-40.8,1.6l-58.5,2.5c-10.8.5-21.6,1.3-32.4,1.3-2.1.1-5.6.7-7.4-.8-.7-1.4-.9-2.8-1.1-4.4-.5-4.8-.6-9.7-.8-14.5-.4-7.1-.8-14.2-1.3-21.3l-2.1-32c-.6-8.7-1.3-17.5-1.5-26.2.8-.6,1.9-.7,2.9-.8,13.5-1.2,27.2-1.6,40.8-2.3l48.3-2.5c21.4-1,42.8-2.9,64.2-3.6Z"/>
      <path class="cls-3" d="M345.1,219c3.2.1,6.5-.2,9.7,0-.3,5.6.3,11.1.5,16.7l.8,20c.8,19,1.1,38.1,2.1,57.1-23.3.7-46.6,1.6-69.8,2.9l-40.7,1.5c-9.6.4-19.2,1.2-28.9,1.3-4,.2-8.1.3-12.1.3-.8-3.5-.7-7.4-.9-11-.3-5.4-.6-10.9-1-16.3l-2.6-42.4c-.4-7.5-1.1-15.1-1.1-22.6,8.7,0,17.5-.9,26.2-1.3l46.3-2.2,45.3-2.4c8.6-.5,17.5-.5,26.1-1.6Z"/>
      <path class="cls-1" d="M343.8,223.4c.3,0,.8,0,1.1.2.9.3,1.2,1.4,1.4,2.2.8,3.5,1.7,16.8,0,19.6-3.2,1.4-7.8,1.3-11.3,1.7-6.3.7-12.7,1.2-19,2.4-.4,0-.6-.2-1-.3-1.4-3-1.7-18.5-1.6-22.6,3.7-.9,7.7-1.1,11.5-1.4l18.8-1.8Z"/>
      <path class="cls-5" d="M341.8,237.2l.5.3c.2,1.5.4,3.1.3,4.6-1.7,1.1-20.6,2.3-24,2.7-.9-1.7-.4-3.2,0-4.9,6.5-1.8,16.2-1.6,23.3-2.6Z"/>
      <path class="cls-5" d="M341.3,227.5l.3.2c1,1.6.7,4.4.6,6.2-8,0-16.3,1-24.3,2.3-.2-2.1-.6-4.2,0-6.3,1.5-.7,19.9-2,23.2-2.4Z"/>
      <path class="cls-1" d="M339.9,255.6c2,.4,4.2-.8,6.1.3.7.4,1.1.9,1.3,1.6,1,4.1.9,16.2,1,21.1.2,6.7.7,13.4.6,20.1,0,1,0,2.1-.5,3-2.5,1.8-19.5,1.6-23.6,1.6-1.9,0-5.4.7-7.2,0-.6-1.3-.9-2.8-1-4.2-.6-5.2-.5-10.5-.8-15.7-.4-6.6-1.1-13.3-1-19.9,0-1.7.1-3.4.7-5.1,1.8-2,20.1-1.8,23.9-2.7.2,0,.4,0,.6-.1Z"/>
      <path class="cls-2" d="M341.5,259.7c.4,0,.6,0,1,.1.2.2.4.4.5.7.7,2.2,1.1,32.7,1.2,38-4.7.2-9.4.4-14.2.5-1.8,0-3.8-.2-5.5.1h-3.6c-.6-6.8-.6-13.7-1-20.5-.3-5.6-1-11.4-.7-16.9,2.3-1.8,18.5-1.7,22.4-1.9Z"/>
      <path class="cls-1" d="M242,230.1c.7.1,1.1.3,1.7.7.5,1,.7,2.1.8,3.3.7,7.1.6,14.5,1,21.7.6,11.4,1.4,22.8,1.9,34.3.2,4.7,1.3,11.1,0,15.7-.8.8-1.7,1.1-2.8,1.3-3,.5-6.2.3-9.3.5-5.4.3-11.6,1.2-16.9.4-.8-.1-1.5-.6-2.1-1.1-1-1.1-1.4-1.9-1.7-3.5-1.5-8-1.4-19.5-1.9-27.9-.7-12.6-1.8-25.2-2.5-37.8,0-1.4-.4-3.8.6-4.9,4-2.2,25.6-2.4,31.1-2.5Z"/>
      <path class="cls-2" d="M232.4,234.4c2.5-.1,5.1-.2,7.6-.2,1,11.9,1.3,24,2,36,.6,10.8,1.6,21.8,1.4,32.6-5.9.3-11.9.4-17.8.7-2.2.2-4.4.1-6.6,0-1.5-16.6-2-33.3-3.1-50-.4-6-.3-12.1-1.3-18.1,5.9-.8,11.9-.6,17.8-1.1Z"/>
      <path class="cls-3" d="M318.6,62.6c12.7-.2,35.4-1.2,45.7,6.9,2.6,2,4.3,4.6,5.3,7.7,1.8,5.4,2.3,11.4,3.2,17.1,1.7,10.2,3.2,20.4,4.6,30.6,2.3,16.3,5.1,32.7,7,49.1.6,4.9-1.3,10.3-4.4,14.1-2.9,3.5-7,6.5-11.5,7.6-4.9,1.2-10.7,1-15.7,1.3l-25.5,1.5-75.6,5c-11.2.7-22.3,1.6-33.4,2.6-9.9.6-19.9,1.8-29.8,2.3-5.2.3-11-1.4-14.9-5.1-3-2.8-4.9-6.6-5.9-10.6-1.4-5.3-1.6-11-2.2-16.4-.7-6.7-1.6-13.4-2.7-20-1.6-10.2-3.3-20.5-5.3-30.6-1.4-7.3-2.9-14.6-4.1-22-.4-2.5-1.1-5.3-1.1-7.8,0-5.3,3.8-11.7,7.3-15.4,2.3-2.4,4.7-4,7.9-4.9,9.1-2.8,24.2-3.7,34.1-4.8,38.9-4.2,77.9-6.9,117.1-8.1Z"/>
      <path class="cls-1" d="M316.9,69.5c10-.4,33.5-1.7,41.2,5.6,1.4,1.3,3.2,3.1,3.8,4.9,2,5.5,2.6,12,3.5,17.8l3.9,24c1.8,11.4,3.7,22.7,5.4,34.1.7,5.2,1.8,10.5,2,15.7.1,4.8-2.1,10.3-5.4,13.7-1.5,1.5-3.3,3.2-5.4,3.6-6.3,1.2-13.3.9-19.7,1.2-9,.5-18,1.3-26.9,1.9-21.1,1.5-42.2,2.9-63.3,4.1-12.2.8-24.4,1.8-36.6,2.2-5.3.5-10.7.6-16,.9-5.9.3-12.9,1.4-18.8.4-1.9-.3-3.2-1-4.6-2.2-1.8-1.6-3.4-3.6-4.2-6-1-3-1.4-6.3-2-9.3-1.5-7.7-2.8-15.4-4.2-23.1l-6.8-38.6c-1.2-7-2.9-14.2-3.3-21.3-.3-4.4,3.3-10.3,6.2-13.5,1.4-1.6,3.3-3.3,5.3-3.9,3.6-1.1,7.9-1.1,11.6-1.5,4.3-.5,8.7-1.1,13-1.7,24.2-3.1,48.8-5.6,73.2-7,9.2-.5,18.5-1,27.8-1.3,6.8-.2,13.7-.2,20.5-.5Z"/>
      <path class="cls-3" d="M317.2,76.4c9.4-.9,26.7-.6,34.2,5.6,1,.9,2,1.9,2.5,3.2,1.9,5.1,2.7,13.6,3.7,19.2.8,4.3,2,8.6,2.8,12.9,1.6,8.7,2.8,17.6,4.1,26.3,1.6,10.1,3.3,20.2,4.3,30.5.3,3,.8,6.7-1.3,9.1-1.3,1.5-3.2,2.8-5.2,3.2-8.1,1.6-17.3.8-25.6,1.5-39.9,3.4-80.1,5.1-120.1,7.5-5.4.2-10.8.5-16.3.8-5.8.4-11.4,1-17.3.4-1.8-1.8-3.3-3.5-4.1-5.8-1-2.8-1.4-5.9-2-8.8-1.4-7.1-2.6-14.3-3.9-21.5-2.4-12.8-4.6-25.7-6.9-38.5-1.4-8-3-16-3.8-24.1,2.3-3.7,4.5-6.6,8.1-9.1,3.9.2,8.5-1,12.5-1.5,10.4-1.2,20.8-2.3,31.2-3.3,34.3-3.5,68.6-6,103-7.5Z"/>
      <path class="cls-1" d="M292.9,156.3c1.1,0,2,0,2.8.9.8.9.8,2.3.7,3.4-.5,3.5-2.8,6.9-5.6,8.9-3.3,2.4-8.1,3.5-12.2,2.7-3.8-.8-6.9-3.3-9-6.5-.4-.9-1-1.9-1.2-2.9-.3-1.1-.2-2.9.5-3.8.5-.7,1-.7,1.8-.8,2.3.6,3.3,3.6,4.7,5.4,1.4,1.9,3.6,3.3,6,3.5,1.4.1,2.8-.1,4.1-.6,6.1-2,3.7-7.1,6.9-9.7.2-.1.3-.3.5-.4Z"/>
      <g>
        <path class="cls-2" d="M217.8,168.7c-2.6-2.2-7.4-3.7-10.9-3.4-4.6.4-9.3,1.3-12.5,4.9-1.6,1.8-2.5,4.3-2.2,6.7.3,2.5,1.8,4.6,3.8,6.1,3.4,2.6,7.4,3.1,11.5,3.2,4.2-.2,8.6-1,11.6-4.2,1.6-1.7,2.6-4,2.4-6.4-.2-2.7-1.7-5.2-3.7-7Z"/>
        <path class="cls-2" d="M361.7,165.2c-.3-3.1-2.2-5.9-4.6-7.7-3.8-2.9-7.3-2.5-11.6-3.2-4.6.9-9.6,1.9-12.5,6.1-1.4,2-2.1,4.5-1.6,6.9.5,2.8,2.3,5,4.5,6.5,3.6,2.4,7.5,2.9,11.7,3,4.5-.4,8.8-1.3,11.8-4.9,1.6-1.9,2.5-4.2,2.2-6.7Z"/>
      </g>
      <path class="cls-1" d="M319.4,86.5c0,0,.1,0,.2,0,9.4-1,18.7,1.3,26.2,7.2,5.9,4.6,12.4,12.1,13.3,19.9,1,8.8-1.1,20.8-6.8,27.8-6.3,7.8-14.3,11.4-24.1,12.4-9.9.3-19.2-1.2-27.3-7.5-6.7-5.3-11.6-13.3-12.6-21.8-1-9,1.9-18.4,7.6-25.5,5.7-7.1,14.5-11.6,23.5-12.5Z"/>
      <path class="cls-3" d="M349.1,105.9c.5,0,.9,0,1.4.2,1.2.4,2.3,2.3,2.9,3.3,1.5,2.9,2.4,7.3,1.2,10.5-.6,1.5-1.3,2.2-2.8,2.8-.6,0-1.2-.2-1.8-.3-1.7-.5-3.3-2.6-4-4.1-1.2-2.6-1.5-6-.5-8.7.8-2,1.6-2.7,3.5-3.6Z"/>
      <path class="cls-3" d="M321.2,89.7c.8,0,1.5,0,2.3,0,9.6.3,17.2,3.5,23.7,10.5-5.4-3.3-9.9-6.8-16.5-7.4-.3,0-.6,0-.9,0-.3,0-.6,0-.9,0s-.6,0-.9,0c-.3,0-.6,0-.9,0-.3,0-.6,0-.9.1-.3,0-.6.1-.9.2-.3,0-.6.1-.9.2-.3,0-.6.2-.9.3-.3,0-.6.2-.9.3-.3.1-.6.2-.9.3-.3.1-.6.3-.9.4-.3.1-.6.3-.8.4-.3.2-.6.3-.8.5-.3.2-.5.3-.8.5-.3.2-.5.4-.8.6-.3.2-.5.4-.7.6-4.5,3.8-6.4,9.2-6.9,14.9,2-.1,3.9-.2,5.9-.3.9.7,2.1,1.4,2.7,2.4.8,1.2.8,2.8.5,4.2-1.2,4.5-5.1,3-7.9,4.6,0,.8,0,1.4.4,2.1,2.5,6.3,6.5,12,12.9,14.8,6.5,2.8,12.8,2.2,19.2-.4,4.2-2.1,6.6-5.5,9.1-9.3-.9,3.2-2.1,6-4.1,8.6-4.5,6-11.9,9.4-19.2,10.5-8.6,1.2-18.1-.8-25-6.1-6-4.6-9.8-11.1-10.7-18.7-1-8.2,1.7-16.7,6.8-23.2,5.3-6.7,12.8-10.5,21.1-11.5Z"/>
      <path class="cls-1" d="M223.1,91.7c1.8.6,4.6.3,6.5.4,7.6.5,14.5,3.5,20.4,8.3.4.3.8.7,1.3,1.1s.8.7,1.2,1.1c.4.4.8.8,1.1,1.2.4.4.7.8,1.1,1.2.4.4.7.9,1,1.3.3.4.6.9,1,1.3.3.5.6.9.9,1.4.3.5.6,1,.8,1.4.3.5.5,1,.7,1.5.2.5.5,1,.7,1.5.2.5.4,1,.6,1.5.2.5.4,1,.5,1.6.2.5.3,1.1.4,1.6.1.5.3,1.1.4,1.6.1.5.2,1.1.3,1.6,0,.5.2,1.1.2,1.6.9,9.4-1.6,19.4-7.7,26.8-6.8,8.1-16.6,11.9-26.9,12.8-11.6.3-21.7-2-30.5-10.1-6.7-6.1-10-14.6-10.3-23.5-.3-9.5,3.7-19.4,10.3-26.3,5.5-5.7,15.8-10.6,23.8-10.8.6,0,1.2,0,1.8-.2.1,0,.3,0,.4-.1Z"/>
      <path class="cls-3" d="M251,112.2c1.6.3,2.8.8,4.3,1.6,1.5,2.9,3.7,7.4,2.9,10.6-.5,2-1.6,3.1-3.3,4.1-1.6,0-3.1-.5-4.6-.8,0,0-.1-.2-.2-.3-1.9-3.2-3.8-7.7-2.7-11.4.6-2,1.8-3,3.5-3.9Z"/>
      <path class="cls-3" d="M221.9,95.3c.6,0,1.2-.2,1.8-.2,2.7,0,9.1-.1,11.1,1.7v.4c-.1,0-.6.2-.6.2-1.1-.2-2-.4-3.1-.2-5.3,1.1-9.8,2.2-14,5.9-5.4,4.7-6.8,10.6-7.2,17.5l4.6-.6c1.8,1,3.2,2.1,4.5,3.7-.3,1.8-.7,3.6-1.9,5.1-1.7,2-4.1,2.3-6.6,2.6,0,.4.2.8.3,1.2,0,.4.2.8.3,1.2.1.4.2.8.4,1.2.1.4.3.8.4,1.2s.3.8.5,1.1c.2.4.4.7.5,1.1.2.4.4.7.6,1.1.2.4.4.7.6,1,.2.3.5.7.7,1,.2.3.5.7.7,1,.3.3.5.6.8.9.3.3.6.6.8.9.3.3.6.6.9.9.3.3.6.5.9.8.3.3.6.5,1,.8.3.2.7.5,1,.7.3.2.7.4,1,.6.3.2.7.4,1,.6.3.2.7.4,1,.5.4.2.7.3,1.1.5.4.2.7.3,1.1.4.4.1.7.3,1.1.4.4.1.8.2,1.1.3.4,0,.8.2,1.1.3.4,0,.8.1,1.2.2.4,0,.8.1,1.2.1.4,0,.8,0,1.2,0,.4,0,.8,0,1.2,0s.8,0,1.2,0c.4,0,.8,0,1.2,0,.4,0,.8,0,1.2-.1.4,0,.8-.1,1.2-.2,7.7-1.5,12.2-5.6,16.4-11.9.2.7-.2,1.3-.5,2-.8,1.5-1.6,2.9-2.6,4.2-5.1,7.2-12.4,11.2-21.1,12.6-9.7,1.6-19.4-.1-27.4-6-6.3-4.6-10.7-12-11.8-19.7-1.2-8.7,1.5-17.2,6.8-24.1,5.9-7.8,13.8-11.3,23.3-12.7Z"/>
      <path class="cls-3" d="M142.7,384.2c2.8.2,6.7,2.9,9.3,4.1,5.7,2.7,11.6,5.1,17.3,7.8,6,2.9,12.4,6.6,18.7,8.6l.6.2c4.1,1.3,38.3-.6,45.1-.8,3.1,6.1,5.7,12.6,8.5,18.9,4.4,9.8,9,19.6,13.2,29.6,4,9.7,7.7,19.7,12.9,28.8,2.8,4.9,6.4,7,11.8,8.4,13.7,3.6,35.4,3.8,47.6-3.6,3.1-1.9,5.5-4.6,7.3-7.7,3.2-5.4,5-11.9,6.9-17.8,3.4-10.5,6.5-20.9,9.1-31.7,2.2,4.9,4,10.1,6.1,15.1,2.4,5.8,5,11.5,7.2,17.4.5,1.4.4,2.7.4,4.1,0,3.8,1.5,6.9,4,9.7,5.4,6.2,13.6,8.5,21.5,9,10.8.7,30.5.1,38.8-7.7,3.2-3,5-7.6,6.7-11.5,6-14,11.7-33,12.2-48.2.2-6.6-1-12.8-5.7-17.7-1.5-1.6-3.4-3-4.9-4.7v-.6c0,0,.7.2.7.2v-.3c0,0-.5.1-.5.1v.3c.1,0,.8-.2.8-.2.2.3.4.5.7.8,8,6.4,14.9,14,23,20.3,10.6,8.3,21.3,16.7,32.1,24.8,5.4,4.1,10.7,8.3,16.1,12.5,3.2,2.5,6.6,4.8,9.5,7.6.4.4.8.8,1.2,1.2.4.4.8.8,1.1,1.2.4.4.7.8,1.1,1.3.3.4.7.9,1,1.3.3.5.6.9.9,1.4.3.5.6.9.9,1.4.3.5.5,1,.8,1.5.3.5.5,1,.7,1.5.2.5.4,1,.6,1.5.2.5.4,1,.6,1.6.2.5.3,1.1.5,1.6.2.5.3,1.1.4,1.6.1.5.2,1.1.3,1.6,0,.5.2,1.1.3,1.6,0,.6.1,1.1.2,1.7,0,.6,0,1.1,0,1.7.3,11-2.2,32-9.9,39.9-3,3.1-7.9,5.5-12.1,6.4-10.9,2.2-22.1,3-33.2,3.7-12.9.9-25.8,1.6-38.7,2.1l-68.1,3.4c-3.2.1-6.3.7-9.5.9-5.6.3-11.1.3-16.7.7-2,.1-4,.6-6,.7l-54,2.6c-7.7.4-15.4,1.3-23.1,1.5-.2.2-1,1-1.3,1-.2,0-.9-.6-1.1-.7-.3,0-.8,0-1.1,0-4.3,0-14.7.2-18.5,1.2,0,0-.2,0-.2,0-3.4-.3-7.3.2-10.8.4l-22.8,1c-2.8.1-5.6.3-8.4.4-1.5,0-3.2-.1-4.7,0-1.1.2-.7.9-1.6,1.4v-.9c-1.7-.8-13.5,0-16,.6l-.2,1.4-.4.3-.4-.2c.3-.6.4-.8.4-1.4-2.8-.7-5.5.7-8.2-1.1-1.2-.8-2.3-2.6-3.3-3.7-4-4.9-7.6-9-9-15.4-1.9-8.5.7-18.4,5.3-25.7,6.8-.3,13.8.1,20.7.2,10.3,0,20.5-.2,30.8-.5,44.4-1.6,88.7-3.6,133-6.1,47.3-2.9,95.3-5.6,141.8-15,10.2-2,22.5-4.1,31.4-9.8,1.2-.8,2.2-1.8,3.1-2.9-19.5,8.3-40.7,11.1-61.5,14-35.1,4.9-70.6,7.3-105.9,9.6-45.1,3-90.2,5.2-135.3,6.8l-41.5,1.3c-3.8,0-7.6,0-11.4,0-.5,0-.8,0-1.3.3-.1,0-.2.2-.3.3-.7,0-1.1-.3-1.7-.6v-.5c1.5-2.2,4.1-3.9,6.2-5.5v-.6s-.7-.3-.7-.3c-4,.6-6.8,3-9.8,5.4-4.8-4.1-9.6-8.2-14.2-12.5-4.3-4-40.7-38.2-41-39.7,6.1.1,11.2-.2,16.4-3.8,1.4-1,2.9-2.3,3.5-4,2-5.6,1.6-15.1,2-21.2.8-11,1.7-22.4,3.7-33.2,3,0,15.7-1,18.2-1.7Z"/>
      <path class="cls-3" d="M192.8,3.9c30.2-.1,60.5,0,90.6,2.3,12.3,1,24.6,1.9,36.7,4.5,11.8,2.6,24.6,6.5,34.1,14.2,14.6,11.9,16.8,31.6,18.6,49.1-.9-1.7-1.8-3.3-3.1-4.7-11.7-12.9-37.9-9.1-54-9.9.9-8.2,2.4-16.4,3.7-24.5,1.8-1,3.7-2.2,4.7-4.1,1-1.8,1.4-4.1.7-6.1-.8-2.1-2.5-3.6-4.5-4.4-.3-.1-.6-.2-.9-.3-.3,0-.6-.2-.9-.2-.3,0-.6,0-.9-.1-.3,0-.6,0-.9,0-.3,0-.6,0-.9,0-.3,0-.6.1-.9.2-.3,0-.6.2-.9.3-.3.1-.6.2-.9.4-1.7.8-3.1,2.2-3.7,4-.7,2-.6,4.5.4,6.3,1.2,2.1,3.1,3.1,5.4,3.7-.9,6.9-2.2,18.4-4.2,24.9-18.3.9-36.6,1.9-54.8,3.2-23.8,1.9-47.5,4.5-71.3,6.8-2.8-7.8-5.9-15.7-8.1-23.7.7-.6,1.4-1.3,1.9-2,1.9-2.4,1.6-4.7,1.3-7.5-.9-1.3-1.7-2.5-3-3.4-2-1.3-4.3-1.6-6.6-1-.3,0-.5.1-.7.2-.2,0-.5.2-.7.3-.2.1-.5.2-.7.4-.2.1-.4.3-.6.5-.2.2-.4.3-.6.5-.2.2-.4.4-.5.6-.2.2-.3.4-.5.6-.1.2-.3.4-.4.7-.9,1.7-1.1,3.7-.4,5.6,1.2,3.5,4.6,5,7.7,6.5,2.9,7.3,5,14.9,7.3,22.4-7.7,1.7-15,1.6-22.5,4.9-1.7.8-3.2,2-4.7,3.2-4.6,3.7-8.8,8-13.3,11.8l-13.5,11.6c-3.1,2.7-6.5,5.4-9.3,8.5.2,6.8,2,14,3.1,20.8-3.9,2.9-5.9,6.6-7.4,11.1-4.4,12.8-3,26.7,2.8,38.8.5,1,1.1,2,1.7,2.9,2,3.1,6,6.9,9.8,7.7.7.1,1.1.2,1.7.7,1.7,3.1,6.5,33.3,7.1,38.5-2.7,2.6-6.2,4.3-8.6,7.3-.8,6.9,0,15.9.7,22.9-16.7,23.9-28.6,66.3-34.2,95.2-1,5.3-2,10.6-2.7,16-.6,4.2-.8,8.5-2,12.6l-.2.6c-3.9.2-8,.4-11.9,1.1-.5-9.8-2.2-19.8-3.5-29.6l-7.1-51-27.2-195.8c-2-13.7-3.8-27.4-6-41-1.3-7.8-2.5-15.6-3.6-23.4-.6-4.4-1.5-8.8-1.7-13.2,4.3-2.2,8.7-4.5,13.2-6.3,10.6-4.2,21.8-7.1,32.9-9.5,28.4-6.3,57.2-9.3,86.2-11.1,6.6-.4,13.4-.7,20-.9,4.1-.1,8.2,0,12.3-.5h.6Z"/>
    </g>
  </g>
</svg>