<?xml version="1.0" encoding="UTF-8"?>
<svg xmlns="http://www.w3.org/2000/svg" version="1.1" viewBox="0 0 2000 2000">
  <defs>
    <style>
      .cls-1 {
        fill: #fff;
      }
    </style>
  </defs>
  <!-- Generator: Adobe Illustrator 28.6.0, SVG Export Plug-In . SVG Version: 1.2.0 Build 709)  -->
  <g>
    <g id="Layer_1">
      <g>
        <g>
          <path class="cls-1" d="M1756.6,75.6l79.5,79.5c3.7,3.7,3.6,9.6,0,13.2l-44.2,44.2c-3.6,3.6-9.6,3.7-13.2,0l-38.4-38.4-24.7,8.2c-2.3.7-4.1-1.1-4.1-3v-34l-12.3-12.3c-3.7-3.7-3.6-9.6,0-13.2l44.2-44.2c3.6-3.6,9.6-3.7,13.2,0ZM1703.6,124.2c-1.2,1.2-1.2,3.2,0,4.4l13.2,13.2c.6.6.9,1.4.9,2.2v31l22.4-7.5c1.1-.4,2.4,0,3.2.8l39.7,39.7c1.2,1.2,3.2,1.2,4.4,0l44.2-44.2c1.2-1.2,1.2-3.2,0-4.4l-79.5-79.5c-1.2-1.2-3.2-1.2-4.4,0l-44.2,44.2Z"/>
          <path class="cls-1" d="M1809.6,349.3l-6.7-6.7c-10.2,8.2-24.9,8.2-35.1,0l-4.5,4.5,6.6,6.6c11,11,11,28.8,0,39.7l-26.5,26.5c-1.2,1.2-3.2,1.2-4.4,0l-114.8-114.8c-1.2-1.2-1.2-3.2,0-4.4l26.5-26.5c11-11,28.8-11,39.7,0l6.6,6.6,4.5-4.5c-8.2-10.2-8.2-24.9,0-35.1l-6.7-6.7c-6.1-6.1-6.1-16,0-22.1l17.7-17.7c5.4-5.4,13.7-6,19.7-1.9,2.9-2.5,6-4.5,9.3-6,1.6-.7,3.4,0,4.1,1.6.7,1.6,0,3.4-1.6,4.1-2.5,1.1-4.9,2.6-7.2,4.5l4.4,4.4c3-2.4,6.6-4.2,10.3-5.2,1.7-.4,3.4.6,3.8,2.2.4,1.7-.6,3.4-2.2,3.8-3.6.9-7.1,3-9.8,5.6l-35.3,35.3c-8.5,8.5-8.5,22.4,0,30.9l61.8,61.8c8.5,8.5,22.4,8.5,30.9,0l35.3-35.3c8.5-8.5,8.5-22.4,0-30.9l-44.2-44.2c-1.2-1.2-1.2-3.2,0-4.4s3.2-1.2,4.4,0l44.2,44.2c10.2,10.2,10.9,26.4,2.1,37.4l4.4,4.4c11.2-13.5,10.5-33.6-2.1-46.3l-44.2-44.2c-1.2-1.2-1.2-3.2,0-4.4,1.2-1.2,3.2-1.2,4.4,0l44.2,44.2c15.2,15.2,15.8,39.4,1.9,55.3,4.1,6.1,3.4,14.4-1.9,19.7l-17.7,17.7c-6.1,6.1-16,6.1-22.1,0ZM1736.8,205.8l-6.6-6.6c-3.7-3.7-9.6-3.6-13.2,0l-17.7,17.7c-3.6,3.6-3.7,9.6,0,13.2l6.6,6.6,30.9-30.9ZM1692.2,364.4c1.7-3.5,1.1-7.8-1.8-10.6s-7.2-3.5-10.6-1.8l12.5,12.5ZM1763.2,338.3l-57.4-57.4-4.4,4.4,57.4,57.4,4.4-4.4ZM1686,278.7c-8.5-8.5-22.4-8.5-30.9,0l-24.3,24.3,44.4,44.4c6.1-4,14.3-3.4,19.6,2s6,13.6,2,19.6l44.4,44.4,24.3-24.3c8.5-8.5,8.5-22.4,0-30.9l-79.5-79.5ZM1844.9,327.3c3.6-3.6,3.7-9.6,0-13.2l-6.6-6.6-30.9,30.9,6.6,6.6c3.7,3.7,9.6,3.6,13.2,0l17.7-17.7Z"/>
          <path class="cls-1" d="M1791.9,274.3c6.1-6.1,16-6.1,22.1,0,6.1,6.1,6.1,16,0,22.1-6.1,6.1-16,6.1-22.1,0-6.1-6.1-6.1-16,0-22.1ZM1796.4,291.9c3.7,3.7,9.6,3.6,13.2,0,3.6-3.6,3.7-9.6,0-13.2s-9.6-3.6-13.2,0-3.7,9.6,0,13.2Z"/>
          <path class="cls-1" d="M1747.8,230.1c6.1-6.1,16-6.1,22.1,0,6.1,6.1,6.1,16,0,22.1-6.1,6.1-16,6.1-22.1,0-6.1-6.1-6.1-16,0-22.1ZM1765.5,247.8c3.6-3.6,3.7-9.6,0-13.2s-9.6-3.6-13.2,0-3.7,9.6,0,13.2,9.6,3.6,13.2,0Z"/>
          <path class="cls-1" d="M1765.5,305.2l-26.5-26.5c-1.2-1.2-1.2-3.2,0-4.4s3.2-1.2,4.4,0l26.5,26.5c1.2,1.2,1.2,3.2,0,4.4-1.2,1.2-3.2,1.2-4.4,0Z"/>
          <path class="cls-1" d="M1699.2,344.9c-6.1-6.1-6.1-16,0-22.1,6.1-6.1,16-6.1,22.1,0,6.1,6.1,6.1,16,0,22.1-6.1,6.1-16,6.1-22.1,0ZM1716.9,327.3c-3.7-3.7-9.6-3.6-13.2,0-3.6,3.6-3.7,9.6,0,13.2s9.6,3.6,13.2,0,3.7-9.6,0-13.2Z"/>
        </g>
        <g>
          <path class="cls-1" d="M1924.4,756.6l-79.5,79.5c-3.7,3.7-9.6,3.6-13.2,0l-44.2-44.2c-3.6-3.6-3.7-9.6,0-13.2l38.4-38.4-8.2-24.7c-.7-2.3,1.1-4.1,3-4.1h34l12.3-12.3c3.7-3.7,9.6-3.6,13.2,0l44.2,44.2c3.6,3.6,3.7,9.6,0,13.2ZM1875.8,703.6c-1.2-1.2-3.2-1.2-4.4,0l-13.2,13.2c-.6.6-1.4.9-2.2.9h-31l7.5,22.4c.4,1.1,0,2.4-.8,3.2l-39.7,39.7c-1.2,1.2-1.2,3.2,0,4.4l44.2,44.2c1.2,1.2,3.2,1.2,4.4,0l79.5-79.5c1.2-1.2,1.2-3.2,0-4.4l-44.2-44.2Z"/>
          <path class="cls-1" d="M1650.7,809.6l6.7-6.7c-8.2-10.2-8.2-24.9,0-35.1l-4.5-4.5-6.6,6.6c-11,11-28.8,11-39.7,0l-26.5-26.5c-1.2-1.2-1.2-3.2,0-4.4l114.8-114.8c1.2-1.2,3.2-1.2,4.4,0l26.5,26.5c11,11,11,28.8,0,39.7l-6.6,6.6,4.5,4.5c10.2-8.2,24.9-8.2,35.1,0l6.7-6.7c6.1-6.1,16-6.1,22.1,0l17.7,17.7c5.4,5.4,6,13.7,1.9,19.7,2.5,2.9,4.5,6,6,9.3.7,1.6,0,3.4-1.6,4.1-1.6.7-3.4,0-4.1-1.6-1.1-2.5-2.6-4.9-4.5-7.2l-4.4,4.4c2.4,3,4.2,6.6,5.2,10.3.4,1.7-.6,3.4-2.2,3.8-1.7.4-3.4-.6-3.8-2.2-.9-3.6-3-7.1-5.6-9.8l-35.3-35.3c-8.5-8.5-22.4-8.5-30.9,0l-61.8,61.8c-8.5,8.5-8.5,22.4,0,30.9l35.3,35.3c8.5,8.5,22.4,8.5,30.9,0l44.2-44.2c1.2-1.2,3.2-1.2,4.4,0s1.2,3.2,0,4.4l-44.2,44.2c-10.2,10.2-26.4,10.9-37.4,2.1l-4.4,4.4c13.5,11.2,33.6,10.5,46.3-2.1l44.2-44.2c1.2-1.2,3.2-1.2,4.4,0,1.2,1.2,1.2,3.2,0,4.4l-44.2,44.2c-15.2,15.2-39.4,15.8-55.3,1.9-6.1,4.1-14.4,3.4-19.7-1.9l-17.7-17.7c-6.1-6.1-6.1-16,0-22.1ZM1794.2,736.8l6.6-6.6c3.7-3.7,3.6-9.6,0-13.2l-17.7-17.7c-3.6-3.6-9.6-3.7-13.2,0l-6.6,6.6,30.9,30.9ZM1635.6,692.2c3.5,1.7,7.8,1.1,10.6-1.8s3.5-7.2,1.8-10.6l-12.5,12.5ZM1661.7,763.2l57.4-57.4-4.4-4.4-57.4,57.4,4.4,4.4ZM1721.3,686c8.5-8.5,8.5-22.4,0-30.9l-24.3-24.3-44.4,44.4c4,6.1,3.4,14.3-2,19.6s-13.6,6-19.6,2l-44.4,44.4,24.3,24.3c8.5,8.5,22.4,8.5,30.9,0l79.5-79.5ZM1672.7,844.9c3.6,3.6,9.6,3.7,13.2,0l6.6-6.6-30.9-30.9-6.6,6.6c-3.7,3.7-3.6,9.6,0,13.2l17.7,17.7Z"/>
          <path class="cls-1" d="M1725.7,791.9c6.1,6.1,6.1,16,0,22.1-6.1,6.1-16,6.1-22.1,0s-6.1-16,0-22.1c6.1-6.1,16-6.1,22.1,0ZM1708.1,796.4c-3.7,3.7-3.6,9.6,0,13.2,3.6,3.6,9.6,3.7,13.2,0s3.6-9.6,0-13.2c-3.6-3.6-9.6-3.7-13.2,0Z"/>
          <path class="cls-1" d="M1769.9,747.8c6.1,6.1,6.1,16,0,22.1-6.1,6.1-16,6.1-22.1,0-6.1-6.1-6.1-16,0-22.1,6.1-6.1,16-6.1,22.1,0ZM1752.2,765.5c3.6,3.6,9.6,3.7,13.2,0s3.6-9.6,0-13.2-9.6-3.7-13.2,0c-3.7,3.7-3.6,9.6,0,13.2Z"/>
          <path class="cls-1" d="M1694.8,765.5l26.5-26.5c1.2-1.2,3.2-1.2,4.4,0s1.2,3.2,0,4.4l-26.5,26.5c-1.2,1.2-3.2,1.2-4.4,0-1.2-1.2-1.2-3.2,0-4.4Z"/>
          <path class="cls-1" d="M1655.1,699.2c6.1-6.1,16-6.1,22.1,0,6.1,6.1,6.1,16,0,22.1-6.1,6.1-16,6.1-22.1,0-6.1-6.1-6.1-16,0-22.1ZM1672.7,716.9c3.7-3.7,3.6-9.6,0-13.2-3.6-3.6-9.6-3.7-13.2,0s-3.6,9.6,0,13.2,9.6,3.7,13.2,0Z"/>
        </g>
        <g>
          <path class="cls-1" d="M1243.4,924.4l-79.5-79.5c-3.7-3.7-3.6-9.6,0-13.2l44.2-44.2c3.6-3.6,9.6-3.7,13.2,0l38.4,38.4,24.7-8.2c2.3-.7,4.1,1.1,4.1,3v34l12.3,12.3c3.7,3.7,3.6,9.6,0,13.2l-44.2,44.2c-3.6,3.6-9.6,3.7-13.2,0ZM1296.4,875.8c1.2-1.2,1.2-3.2,0-4.4l-13.2-13.2c-.6-.6-.9-1.4-.9-2.2v-31l-22.4,7.5c-1.1.4-2.4,0-3.2-.8l-39.7-39.7c-1.2-1.2-3.2-1.2-4.4,0l-44.2,44.2c-1.2,1.2-1.2,3.2,0,4.4l79.5,79.5c1.2,1.2,3.2,1.2,4.4,0l44.2-44.2Z"/>
          <path class="cls-1" d="M1190.4,650.7l6.7,6.7c10.2-8.2,24.9-8.2,35.1,0l4.5-4.5-6.6-6.6c-11-11-11-28.8,0-39.7l26.5-26.5c1.2-1.2,3.2-1.2,4.4,0l114.8,114.8c1.2,1.2,1.2,3.2,0,4.4l-26.5,26.5c-11,11-28.8,11-39.7,0l-6.6-6.6-4.5,4.5c8.2,10.2,8.2,24.9,0,35.1l6.7,6.7c6.1,6.1,6.1,16,0,22.1l-17.7,17.7c-5.4,5.4-13.7,6-19.7,1.9-2.9,2.5-6,4.5-9.3,6-1.6.7-3.4,0-4.1-1.6-.7-1.6,0-3.4,1.6-4.1,2.5-1.1,4.9-2.6,7.2-4.5l-4.4-4.4c-3,2.4-6.6,4.2-10.3,5.2-1.7.4-3.4-.6-3.8-2.2-.4-1.7.6-3.4,2.2-3.8,3.6-.9,7.1-3,9.8-5.6l35.3-35.3c8.5-8.5,8.5-22.4,0-30.9l-61.8-61.8c-8.5-8.5-22.4-8.5-30.9,0l-35.3,35.3c-8.5,8.5-8.5,22.4,0,30.9l44.2,44.2c1.2,1.2,1.2,3.2,0,4.4s-3.2,1.2-4.4,0l-44.2-44.2c-10.2-10.2-10.9-26.4-2.1-37.4l-4.4-4.4c-11.2,13.5-10.5,33.6,2.1,46.3l44.2,44.2c1.2,1.2,1.2,3.2,0,4.4s-3.2,1.2-4.4,0l-44.2-44.2c-15.2-15.2-15.8-39.4-1.9-55.3-4.1-6.1-3.4-14.4,1.9-19.7l17.7-17.7c6.1-6.1,16-6.1,22.1,0ZM1263.2,794.2l6.6,6.6c3.7,3.7,9.6,3.6,13.2,0l17.7-17.7c3.6-3.6,3.7-9.6,0-13.2l-6.6-6.6-30.9,30.9ZM1307.8,635.6c-1.7,3.5-1.1,7.8,1.8,10.6s7.2,3.5,10.6,1.8l-12.5-12.5ZM1236.8,661.7l57.4,57.4,4.4-4.4-57.4-57.4-4.4,4.4ZM1314,721.3c8.5,8.5,22.4,8.5,30.9,0l24.3-24.3-44.4-44.4c-6.1,4-14.3,3.4-19.6-2-5.3-5.3-6-13.6-2-19.6l-44.4-44.4-24.3,24.3c-8.5,8.5-8.5,22.4,0,30.9l79.5,79.5ZM1155.1,672.7c-3.6,3.6-3.7,9.6,0,13.2l6.6,6.6,30.9-30.9-6.6-6.6c-3.7-3.7-9.6-3.6-13.2,0l-17.7,17.7Z"/>
          <path class="cls-1" d="M1208.1,725.7c-6.1,6.1-16,6.1-22.1,0-6.1-6.1-6.1-16,0-22.1,6.1-6.1,16-6.1,22.1,0,6.1,6.1,6.1,16,0,22.1ZM1203.6,708.1c-3.7-3.7-9.6-3.6-13.2,0-3.6,3.6-3.7,9.6,0,13.2s9.6,3.6,13.2,0,3.7-9.6,0-13.2Z"/>
          <path class="cls-1" d="M1252.2,769.9c-6.1,6.1-16,6.1-22.1,0-6.1-6.1-6.1-16,0-22.1,6.1-6.1,16-6.1,22.1,0,6.1,6.1,6.1,16,0,22.1ZM1234.5,752.2c-3.6,3.6-3.7,9.6,0,13.2s9.6,3.6,13.2,0,3.7-9.6,0-13.2c-3.7-3.7-9.6-3.6-13.2,0Z"/>
          <path class="cls-1" d="M1234.5,694.8l26.5,26.5c1.2,1.2,1.2,3.2,0,4.4s-3.2,1.2-4.4,0l-26.5-26.5c-1.2-1.2-1.2-3.2,0-4.4,1.2-1.2,3.2-1.2,4.4,0Z"/>
          <path class="cls-1" d="M1300.8,655.1c6.1,6.1,6.1,16,0,22.1s-16,6.1-22.1,0c-6.1-6.1-6.1-16,0-22.1,6.1-6.1,16-6.1,22.1,0ZM1283.1,672.7c3.7,3.7,9.6,3.6,13.2,0,3.6-3.6,3.7-9.6,0-13.2-3.7-3.7-9.6-3.6-13.2,0-3.6,3.6-3.7,9.6,0,13.2Z"/>
        </g>
        <g>
          <path class="cls-1" d="M1075.6,243.4l79.5-79.5c3.7-3.7,9.6-3.6,13.2,0l44.2,44.2c3.6,3.6,3.7,9.6,0,13.2l-38.4,38.4,8.2,24.7c.7,2.3-1.1,4.1-3,4.1h-34l-12.3,12.3c-3.7,3.7-9.6,3.6-13.2,0l-44.2-44.2c-3.6-3.6-3.7-9.6,0-13.2ZM1124.2,296.4c1.2,1.2,3.2,1.2,4.4,0l13.2-13.2c.6-.6,1.4-.9,2.2-.9h31l-7.5-22.4c-.4-1.1,0-2.4.8-3.2l39.7-39.7c1.2-1.2,1.2-3.2,0-4.4l-44.2-44.2c-1.2-1.2-3.2-1.2-4.4,0l-79.5,79.5c-1.2,1.2-1.2,3.2,0,4.4l44.2,44.2Z"/>
          <path class="cls-1" d="M1349.3,190.4l-6.7,6.7c8.2,10.2,8.2,24.9,0,35.1l4.5,4.5,6.6-6.6c11-11,28.8-11,39.7,0l26.5,26.5c1.2,1.2,1.2,3.2,0,4.4l-114.8,114.8c-1.2,1.2-3.2,1.2-4.4,0l-26.5-26.5c-11-11-11-28.8,0-39.7l6.6-6.6-4.5-4.5c-10.2,8.2-24.9,8.2-35.1,0l-6.7,6.7c-6.1,6.1-16,6.1-22.1,0l-17.7-17.7c-5.4-5.4-6-13.7-1.9-19.7-2.5-2.9-4.5-6-6-9.3-.7-1.6,0-3.4,1.6-4.1,1.6-.7,3.4,0,4.1,1.6,1.1,2.5,2.6,4.9,4.5,7.2l4.4-4.4c-2.4-3-4.2-6.6-5.2-10.3-.4-1.7.6-3.4,2.2-3.8,1.7-.4,3.4.6,3.8,2.2.9,3.6,3,7.1,5.6,9.8l35.3,35.3c8.5,8.5,22.4,8.5,30.9,0l61.8-61.8c8.5-8.5,8.5-22.4,0-30.9l-35.3-35.3c-8.5-8.5-22.4-8.5-30.9,0l-44.2,44.2c-1.2,1.2-3.2,1.2-4.4,0s-1.2-3.2,0-4.4l44.2-44.2c10.2-10.2,26.4-10.9,37.4-2.1l4.4-4.4c-13.5-11.2-33.6-10.5-46.3,2.1l-44.2,44.2c-1.2,1.2-3.2,1.2-4.4,0s-1.2-3.2,0-4.4l44.2-44.2c15.2-15.2,39.4-15.8,55.3-1.9,6.1-4.1,14.4-3.4,19.7,1.9l17.7,17.7c6.1,6.1,6.1,16,0,22.1ZM1205.8,263.2l-6.6,6.6c-3.7,3.7-3.6,9.6,0,13.2l17.7,17.7c3.6,3.6,9.6,3.7,13.2,0l6.6-6.6-30.9-30.9ZM1364.4,307.8c-3.5-1.7-7.8-1.1-10.6,1.8-2.9,2.9-3.5,7.2-1.8,10.6l12.5-12.5ZM1338.3,236.8l-57.4,57.4,4.4,4.4,57.4-57.4-4.4-4.4ZM1278.7,314c-8.5,8.5-8.5,22.4,0,30.9l24.3,24.3,44.4-44.4c-4-6.1-3.4-14.3,2-19.6s13.6-6,19.6-2l44.4-44.4-24.3-24.3c-8.5-8.5-22.4-8.5-30.9,0l-79.5,79.5ZM1327.3,155.1c-3.6-3.6-9.6-3.7-13.2,0l-6.6,6.6,30.9,30.9,6.6-6.6c3.7-3.7,3.6-9.6,0-13.2l-17.7-17.7Z"/>
          <path class="cls-1" d="M1274.3,208.1c-6.1-6.1-6.1-16,0-22.1,6.1-6.1,16-6.1,22.1,0,6.1,6.1,6.1,16,0,22.1-6.1,6.1-16,6.1-22.1,0ZM1291.9,203.6c3.7-3.7,3.6-9.6,0-13.2-3.6-3.6-9.6-3.7-13.2,0s-3.6,9.6,0,13.2,9.6,3.7,13.2,0Z"/>
          <path class="cls-1" d="M1230.1,252.2c-6.1-6.1-6.1-16,0-22.1,6.1-6.1,16-6.1,22.1,0,6.1,6.1,6.1,16,0,22.1-6.1,6.1-16,6.1-22.1,0ZM1247.8,234.5c-3.6-3.6-9.6-3.7-13.2,0-3.7,3.7-3.6,9.6,0,13.2s9.6,3.7,13.2,0,3.6-9.6,0-13.2Z"/>
          <path class="cls-1" d="M1305.2,234.5l-26.5,26.5c-1.2,1.2-3.2,1.2-4.4,0-1.2-1.2-1.2-3.2,0-4.4l26.5-26.5c1.2-1.2,3.2-1.2,4.4,0,1.2,1.2,1.2,3.2,0,4.4Z"/>
          <path class="cls-1" d="M1344.9,300.8c-6.1,6.1-16,6.1-22.1,0-6.1-6.1-6.1-16,0-22.1s16-6.1,22.1,0c6.1,6.1,6.1,16,0,22.1ZM1327.3,283.1c-3.7,3.7-3.6,9.6,0,13.2s9.6,3.7,13.2,0c3.7-3.7,3.6-9.6,0-13.2s-9.6-3.7-13.2,0Z"/>
        </g>
        <g>
          <path class="cls-1" d="M1993.8,872h-112.4c-5.2,0-9.4,4.2-9.4,9.4v62.4c0,5.2,4.2,9.4,9.4,9.4h17.4l24.1,24.1c1.3,1.4,3.9,1.3,5-.8l11.6-23.2h54.3c2.4,0,4.6-.9,6.2-2.4v-76.4c-1.7-1.5-3.8-2.4-6.2-2.4ZM1993.8,946.9h-56.2c-1.2,0-2.3.7-2.8,1.7l-10.5,21.1-21.9-21.9c-.6-.6-1.4-.9-2.2-.9h-18.7c-1.7,0-3.1-1.4-3.1-3.1v-62.4c0-1.7,1.4-3.1,3.1-3.1h112.4c1.7,0,3.1,1.4,3.1,3.1v62.4c0,1.7-1.4,3.1-3.1,3.1Z"/>
          <path class="cls-1" d="M1940.7,987.5c0-5.2,4.2-9.4,9.4-9.4h9.4v21.9h6.2v-25c0-3.8,1-7.7,2.9-10.9.9-1.5.4-3.4-1.1-4.3-1.5-.9-3.4-.4-4.3,1.1-1.9,3.3-3.2,7.1-3.6,10.9h-6.3c.3-2.9.9-5.7,1.9-8.2.6-1.6-.2-3.4-1.8-4-1.6-.6-3.4.2-4,1.8-1.3,3.4-2.1,7-2.4,10.8-7.2,1.4-12.6,7.7-12.6,15.3v12.5h6.2v-12.5Z"/>
          <path class="cls-1" d="M2000,996.9c-5.2,0-9.4-4.2-9.4-9.4s4.2-9.4,9.4-9.4v-6.2c-8.6,0-15.6,7-15.6,15.6s2.5,9.6,6.3,12.5h9.4v-3.1Z"/>
        </g>
        <g>
          <path class="cls-1" d="M1381.4,872h112.4c5.2,0,9.4,4.2,9.4,9.4v62.4c0,5.2-4.2,9.4-9.4,9.4h-54.3l-11.6,23.2c-1.1,2.1-3.7,2.2-5,.8l-24.1-24.1h-17.4c-5.2,0-9.4-4.2-9.4-9.4v-62.4c0-5.2,4.2-9.4,9.4-9.4ZM1378.2,943.8c0,1.7,1.4,3.1,3.1,3.1h18.7c.8,0,1.6.3,2.2.9l21.9,21.9,10.5-21.1c.5-1.1,1.6-1.7,2.8-1.7h56.2c1.7,0,3.1-1.4,3.1-3.1v-62.4c0-1.7-1.4-3.1-3.1-3.1h-112.4c-1.7,0-3.1,1.4-3.1,3.1v62.4Z"/>
          <path class="cls-1" d="M1615.4,972.2c-1.5-21.1-19-37.8-40.5-37.8h-62.4c-1.7,0-3.1,1.4-3.1,3.1s1.4,3.1,3.1,3.1h62.4c17.9,0,32.6,13.7,34.2,31.2h-6.3c-1.6-14-13.5-25-27.9-25h-62.4c-1.7,0-3.1,1.4-3.1,3.1s1.4,3.1,3.1,3.1h62.4c12,0,21.9,9.8,21.9,21.9v25h6.2v-21.9h9.4c5.2,0,9.4,4.2,9.4,9.4v12.5h6.2v-12.5c0-7.6-5.4-13.9-12.6-15.3Z"/>
          <path class="cls-1" d="M1440.7,987.5c0-5.2,4.2-9.4,9.4-9.4h9.4v21.9h6.2v-25c0-3.8,1-7.7,2.9-10.9.9-1.5.4-3.4-1.1-4.3-1.5-.9-3.4-.4-4.3,1.1-1.9,3.3-3.2,7.1-3.6,10.9h-6.3c.3-2.9.9-5.7,1.9-8.2.6-1.6-.2-3.4-1.8-4-1.6-.6-3.4.2-4,1.8-1.3,3.4-2.1,7-2.4,10.8-7.2,1.4-12.6,7.7-12.6,15.3v12.5h6.2v-12.5Z"/>
          <path class="cls-1" d="M1578,987.5c0-8.6-7-15.6-15.6-15.6s-15.6,7-15.6,15.6,2.5,9.6,6.3,12.5h18.7c3.8-2.8,6.3-7.4,6.3-12.5ZM1562.4,996.9c-5.2,0-9.4-4.2-9.4-9.4s4.2-9.4,9.4-9.4,9.4,4.2,9.4,9.4-4.2,9.4-9.4,9.4Z"/>
          <path class="cls-1" d="M1515.6,987.5c0-8.6-7-15.6-15.6-15.6s-15.6,7-15.6,15.6,2.5,9.6,6.3,12.5h18.7c3.8-2.8,6.3-7.4,6.3-12.5ZM1500,996.9c-5.2,0-9.4-4.2-9.4-9.4s4.2-9.4,9.4-9.4,9.4,4.2,9.4,9.4-4.2,9.4-9.4,9.4Z"/>
        </g>
        <g>
          <path class="cls-1" d="M1003.1,943.8v-62.4c0-2.8-1.2-5.2-3.1-7v76.4c1.9-1.7,3.1-4.2,3.1-7Z"/>
          <path class="cls-1" d="M1115.4,972.2c-1.5-21.1-19-37.8-40.5-37.8h-62.4c-1.7,0-3.1,1.4-3.1,3.1s1.4,3.1,3.1,3.1h62.4c17.9,0,32.6,13.7,34.2,31.2h-6.3c-1.6-14-13.5-25-27.9-25h-62.4c-1.7,0-3.1,1.4-3.1,3.1s1.4,3.1,3.1,3.1h62.4c12,0,21.9,9.8,21.9,21.9v25h6.2v-21.9h9.4c5.2,0,9.4,4.2,9.4,9.4v12.5h6.2v-12.5c0-7.6-5.4-13.9-12.6-15.3Z"/>
          <path class="cls-1" d="M1078,987.5c0-8.6-7-15.6-15.6-15.6s-15.6,7-15.6,15.6,2.5,9.6,6.3,12.5h18.7c3.8-2.8,6.3-7.4,6.3-12.5ZM1062.4,996.9c-5.2,0-9.4-4.2-9.4-9.4s4.2-9.4,9.4-9.4,9.4,4.2,9.4,9.4-4.2,9.4-9.4,9.4Z"/>
          <path class="cls-1" d="M1015.6,987.5c0-8.6-7-15.6-15.6-15.6v6.2c5.2,0,9.4,4.2,9.4,9.4s-4.2,9.4-9.4,9.4v3.1h9.4c3.8-2.8,6.3-7.4,6.3-12.5Z"/>
        </g>
        <g>
          <path class="cls-1" d="M1993.8,372h-112.4c-5.2,0-9.4,4.2-9.4,9.4v62.4c0,5.2,4.2,9.4,9.4,9.4h17.4l24.1,24.1c1.3,1.4,3.9,1.3,5-.8l11.6-23.2h54.3c2.4,0,4.6-.9,6.2-2.4v-76.4c-1.7-1.5-3.8-2.4-6.2-2.4ZM1993.8,446.9h-56.2c-1.2,0-2.3.7-2.8,1.7l-10.5,21.1-21.9-21.9c-.6-.6-1.4-.9-2.2-.9h-18.7c-1.7,0-3.1-1.4-3.1-3.1v-62.4c0-1.7,1.4-3.1,3.1-3.1h112.4c1.7,0,3.1,1.4,3.1,3.1v62.4c0,1.7-1.4,3.1-3.1,3.1Z"/>
          <path class="cls-1" d="M1953.2,621.8v-34.3c0-12,9.8-21.9,21.9-21.9h25v-6.2h-9.4v-6.2h9.4v-6.2h-12.5c-12,0-21.9-9.8-21.9-21.9v-50c0-3.8,1-7.7,2.9-10.9.9-1.5.4-3.4-1.1-4.3-1.5-.9-3.4-.4-4.3,1.1-1.9,3.3-3.2,7.1-3.6,10.9h-6.3c.3-2.9.9-5.7,1.9-8.2.6-1.6-.2-3.4-1.8-4-1.6-.6-3.4.2-4,1.8-1.3,3.4-2.1,7-2.4,10.8-7.2,1.4-12.6,7.7-12.6,15.3v25c0,8.6,7,15.6,15.6,15.6h9.5c1.4,13,11.8,23.4,24.8,24.8v6.4h-9.4c-15.5,0-28.1,12.6-28.1,28.1v37.5c0,1.7,1.4,3.1,3.1,3.1h50v-6.2h-46.8ZM1959.4,521.9h-9.4c-5.2,0-9.4-4.2-9.4-9.4v-25c0-5.2,4.2-9.4,9.4-9.4h9.4v43.7Z"/>
          <path class="cls-1" d="M1990.6,487.5c0-5.2,4.2-9.4,9.4-9.4v-6.2c-8.6,0-15.6,7-15.6,15.6s7,15.6,15.6,15.6v-6.2c-5.2,0-9.4-4.2-9.4-9.4Z"/>
        </g>
        <g>
          <path class="cls-1" d="M1381.4,372h112.4c5.2,0,9.4,4.2,9.4,9.4v62.4c0,5.2-4.2,9.4-9.4,9.4h-54.3l-11.6,23.2c-1.1,2.1-3.7,2.2-5,.8l-24.1-24.1h-17.4c-5.2,0-9.4-4.2-9.4-9.4v-62.4c0-5.2,4.2-9.4,9.4-9.4ZM1378.2,443.8c0,1.7,1.4,3.1,3.1,3.1h18.7c.8,0,1.6.3,2.2.9l21.9,21.9,10.5-21.1c.5-1.1,1.6-1.7,2.8-1.7h56.2c1.7,0,3.1-1.4,3.1-3.1v-62.4c0-1.7-1.4-3.1-3.1-3.1h-112.4c-1.7,0-3.1,1.4-3.1,3.1v62.4Z"/>
          <path class="cls-1" d="M1612.4,528.1h-9.5c-1.4,13-11.8,23.4-24.8,24.8v6.4h9.4c15.5,0,28.1,12.6,28.1,28.1v37.5c0,1.7-1.4,3.1-3.1,3.1h-162.3c-1.7,0-3.1-1.4-3.1-3.1v-37.5c0-15.5,12.6-28.1,28.1-28.1h9.4v-6.4c-13-1.4-23.4-11.8-24.8-24.8h-9.5c-8.6,0-15.6-7-15.6-15.6v-25c0-7.6,5.4-13.9,12.6-15.3.3-3.8,1-7.4,2.4-10.8.6-1.6,2.4-2.4,4-1.8,1.6.6,2.4,2.4,1.8,4-1,2.6-1.6,5.3-1.9,8.2h6.3c.4-3.9,1.7-7.6,3.6-10.9.9-1.5,2.8-2,4.3-1.1,1.5.9,2,2.8,1.1,4.3-1.9,3.2-2.9,7.1-2.9,10.9v50c0,12,9.8,21.9,21.9,21.9h87.4c12,0,21.9-9.8,21.9-21.9v-50c0-12-9.8-21.9-21.9-21.9h-62.4c-1.7,0-3.1-1.4-3.1-3.1s1.4-3.1,3.1-3.1h62.4c14.4,0,26.4,11,27.9,25h6.3c-1.6-17.5-16.3-31.2-34.2-31.2h-62.4c-1.7,0-3.1-1.4-3.1-3.1s1.4-3.1,3.1-3.1h62.4c21.4,0,39,16.7,40.5,37.8,7.2,1.4,12.6,7.7,12.6,15.3v25c0,8.6-7,15.6-15.6,15.6ZM1459.4,478.1h-9.4c-5.2,0-9.4,4.2-9.4,9.4v25c0,5.2,4.2,9.4,9.4,9.4h9.4v-43.7ZM1540,621.8c-1.3-3.6-4.7-6.2-8.8-6.2s-7.5,2.6-8.8,6.2h17.6ZM1571.8,553.1h-81.2v6.2h81.2v-6.2ZM1475,565.6c-12,0-21.9,9.8-21.9,21.9v34.3h62.8c1.5-7.1,7.7-12.5,15.3-12.5s13.8,5.4,15.3,12.5h62.8v-34.3c0-12-9.8-21.9-21.9-21.9h-112.4ZM1621.8,487.5c0-5.2-4.2-9.4-9.4-9.4h-9.4v43.7h9.4c5.2,0,9.4-4.2,9.4-9.4v-25Z"/>
          <path class="cls-1" d="M1546.8,487.5c0-8.6,7-15.6,15.6-15.6s15.6,7,15.6,15.6-7,15.6-15.6,15.6-15.6-7-15.6-15.6ZM1562.4,496.9c5.2,0,9.4-4.2,9.4-9.4s-4.2-9.4-9.4-9.4-9.4,4.2-9.4,9.4,4.2,9.4,9.4,9.4Z"/>
          <path class="cls-1" d="M1484.4,487.5c0-8.6,7-15.6,15.6-15.6s15.6,7,15.6,15.6-7,15.6-15.6,15.6-15.6-7-15.6-15.6ZM1509.4,487.5c0-5.2-4.2-9.4-9.4-9.4s-9.4,4.2-9.4,9.4,4.2,9.4,9.4,9.4,9.4-4.2,9.4-9.4Z"/>
          <path class="cls-1" d="M1550,528.1h-37.5c-1.7,0-3.1-1.4-3.1-3.1s1.4-3.1,3.1-3.1h37.5c1.7,0,3.1,1.4,3.1,3.1s-1.4,3.1-3.1,3.1Z"/>
          <path class="cls-1" d="M1531.2,603c-8.6,0-15.6-7-15.6-15.6s7-15.6,15.6-15.6,15.6,7,15.6,15.6-7,15.6-15.6,15.6ZM1531.2,578c-5.2,0-9.4,4.2-9.4,9.4s4.2,9.4,9.4,9.4,9.4-4.2,9.4-9.4-4.2-9.4-9.4-9.4Z"/>
        </g>
        <g>
          <path class="cls-1" d="M1003.1,443.8v-62.4c0-2.8-1.2-5.2-3.1-7v76.4c1.9-1.7,3.1-4.2,3.1-7Z"/>
          <path class="cls-1" d="M1115.5,624.9v-37.5c0-15.5-12.6-28.1-28.1-28.1h-9.4v-6.4c13-1.4,23.4-11.8,24.8-24.8h9.5c8.6,0,15.6-7,15.6-15.6v-25c0-7.6-5.4-13.9-12.6-15.3-1.5-21.1-19-37.8-40.5-37.8h-62.4c-1.7,0-3.1,1.4-3.1,3.1s1.4,3.1,3.1,3.1h62.4c17.9,0,32.6,13.7,34.2,31.2h-6.3c-1.6-14-13.5-25-27.9-25h-62.4c-1.7,0-3.1,1.4-3.1,3.1s1.4,3.1,3.1,3.1h62.4c12,0,21.9,9.8,21.9,21.9v50c0,12-9.8,21.9-21.9,21.9h-74.9v6.2h71.8v6.2h-71.8v6.2h87.4c12,0,21.9,9.8,21.9,21.9v34.3h-62.8c-1.5-7.1-7.7-12.5-15.3-12.5s-13.8,5.4-15.3,12.5h-15.9v6.2h112.4c1.7,0,3.1-1.4,3.1-3.1ZM1103,478.1h9.4c5.2,0,9.4,4.2,9.4,9.4v25c0,5.2-4.2,9.4-9.4,9.4h-9.4v-43.7ZM1022.4,621.8c1.3-3.6,4.7-6.2,8.8-6.2s7.5,2.6,8.8,6.2h-17.6Z"/>
          <path class="cls-1" d="M1046.8,487.5c0-8.6,7-15.6,15.6-15.6s15.6,7,15.6,15.6-7,15.6-15.6,15.6-15.6-7-15.6-15.6ZM1062.4,496.9c5.2,0,9.4-4.2,9.4-9.4s-4.2-9.4-9.4-9.4-9.4,4.2-9.4,9.4,4.2,9.4,9.4,9.4Z"/>
          <path class="cls-1" d="M1015.6,487.5c0-8.6-7-15.6-15.6-15.6v6.2c5.2,0,9.4,4.2,9.4,9.4s-4.2,9.4-9.4,9.4v6.2c8.6,0,15.6-7,15.6-15.6Z"/>
          <path class="cls-1" d="M1050,528.1h-37.5c-1.7,0-3.1-1.4-3.1-3.1s1.4-3.1,3.1-3.1h37.5c1.7,0,3.1,1.4,3.1,3.1s-1.4,3.1-3.1,3.1Z"/>
          <path class="cls-1" d="M1031.2,603c-8.6,0-15.6-7-15.6-15.6s7-15.6,15.6-15.6,15.6,7,15.6,15.6-7,15.6-15.6,15.6ZM1031.2,578c-5.2,0-9.4,4.2-9.4,9.4s4.2,9.4,9.4,9.4,9.4-4.2,9.4-9.4-4.2-9.4-9.4-9.4Z"/>
        </g>
        <g>
          <path class="cls-1" d="M1953.2,121.8v-34.3c0-12,9.8-21.9,21.9-21.9h25v-6.2h-9.4v-6.2h9.4v-6.2h-12.5c-12,0-21.9-9.8-21.9-21.9V0h-6.2v21.9h-9.4c-5.2,0-9.4-4.2-9.4-9.4V0h-6.2v12.5c0,8.6,7,15.6,15.6,15.6h9.5c1.4,13,11.8,23.4,24.8,24.8v6.4h-9.4c-15.5,0-28.1,12.6-28.1,28.1v37.5c0,1.7,1.4,3.1,3.1,3.1h50v-6.2h-46.8Z"/>
          <path class="cls-1" d="M1990.6,0c2.6,2,5.8,3.1,9.4,3.1V0h-9.4Z"/>
        </g>
        <g>
          <path class="cls-1" d="M1450,28.1h9.5c1.4,13,11.8,23.4,24.8,24.8v6.4h-9.4c-15.5,0-28.1,12.6-28.1,28.1v37.5c0,1.7,1.4,3.1,3.1,3.1h162.3c1.7,0,3.1-1.4,3.1-3.1v-37.5c0-15.5-12.6-28.1-28.1-28.1h-9.4v-6.4c13-1.4,23.4-11.8,24.8-24.8h9.5c8.6,0,15.6-7,15.6-15.6V0h-6.2v12.5c0,5.2-4.2,9.4-9.4,9.4h-9.4V0h-6.2v25c0,12-9.8,21.9-21.9,21.9h-87.4c-12,0-21.9-9.8-21.9-21.9V0h-6.2v21.9h-9.4c-5.2,0-9.4-4.2-9.4-9.4V0h-6.2v12.5c0,8.6,7,15.6,15.6,15.6ZM1522.4,121.8c1.3-3.6,4.7-6.2,8.8-6.2s7.5,2.6,8.8,6.2h-17.6ZM1490.6,53.1h81.2v6.2h-81.2v-6.2ZM1587.4,65.6c12,0,21.9,9.8,21.9,21.9v34.3h-62.8c-1.5-7.1-7.7-12.5-15.3-12.5s-13.8,5.4-15.3,12.5h-62.8v-34.3c0-12,9.8-21.9,21.9-21.9h112.4Z"/>
          <path class="cls-1" d="M1571.8,0h-18.7c2.6,2,5.8,3.1,9.4,3.1s6.7-1.2,9.4-3.1Z"/>
          <path class="cls-1" d="M1509.4,0h-18.7c2.6,2,5.8,3.1,9.4,3.1s6.7-1.2,9.4-3.1Z"/>
          <path class="cls-1" d="M1550,28.1h-37.5c-1.7,0-3.1-1.4-3.1-3.1s1.4-3.1,3.1-3.1h37.5c1.7,0,3.1,1.4,3.1,3.1s-1.4,3.1-3.1,3.1Z"/>
          <path class="cls-1" d="M1531.2,103c-8.6,0-15.6-7-15.6-15.6s7-15.6,15.6-15.6,15.6,7,15.6,15.6-7,15.6-15.6,15.6ZM1531.2,78c-5.2,0-9.4,4.2-9.4,9.4s4.2,9.4,9.4,9.4,9.4-4.2,9.4-9.4-4.2-9.4-9.4-9.4Z"/>
        </g>
        <g>
          <path class="cls-1" d="M1115.5,124.9v-37.5c0-15.5-12.6-28.1-28.1-28.1h-9.4v-6.4c13-1.4,23.4-11.8,24.8-24.8h9.5c8.6,0,15.6-7,15.6-15.6V0h-6.2v12.5c0,5.2-4.2,9.4-9.4,9.4h-9.4V0h-6.2v25c0,12-9.8,21.9-21.9,21.9h-74.9v6.2h71.8v6.2h-71.8v6.2h87.4c12,0,21.9,9.8,21.9,21.9v34.3h-62.8c-1.5-7.1-7.7-12.5-15.3-12.5s-13.8,5.4-15.3,12.5h-15.9v6.2h112.4c1.7,0,3.1-1.4,3.1-3.1ZM1022.4,121.8c1.3-3.6,4.7-6.2,8.8-6.2s7.5,2.6,8.8,6.2h-17.6Z"/>
          <path class="cls-1" d="M1071.8,0h-18.7c2.6,2,5.8,3.1,9.4,3.1s6.7-1.2,9.4-3.1Z"/>
          <path class="cls-1" d="M1000,0v3.1c3.5,0,6.7-1.2,9.4-3.1h-9.4Z"/>
          <path class="cls-1" d="M1050,28.1h-37.5c-1.7,0-3.1-1.4-3.1-3.1s1.4-3.1,3.1-3.1h37.5c1.7,0,3.1,1.4,3.1,3.1s-1.4,3.1-3.1,3.1Z"/>
          <path class="cls-1" d="M1031.2,103c-8.6,0-15.6-7-15.6-15.6s7-15.6,15.6-15.6,15.6,7,15.6,15.6-7,15.6-15.6,15.6ZM1031.2,78c-5.2,0-9.4,4.2-9.4,9.4s4.2,9.4,9.4,9.4,9.4-4.2,9.4-9.4-4.2-9.4-9.4-9.4Z"/>
        </g>
      </g>
      <g>
        <g>
          <path class="cls-1" d="M1756.6,1075.6l79.5,79.5c3.7,3.7,3.6,9.6,0,13.2l-44.2,44.2c-3.6,3.6-9.6,3.7-13.2,0l-38.4-38.4-24.7,8.2c-2.3.7-4.1-1.1-4.1-3v-34l-12.3-12.3c-3.7-3.7-3.6-9.6,0-13.2l44.2-44.2c3.6-3.6,9.6-3.7,13.2,0ZM1703.6,1124.2c-1.2,1.2-1.2,3.2,0,4.4l13.2,13.2c.6.6.9,1.4.9,2.2v31l22.4-7.5c1.1-.4,2.4,0,3.2.8l39.7,39.7c1.2,1.2,3.2,1.2,4.4,0l44.2-44.2c1.2-1.2,1.2-3.2,0-4.4l-79.5-79.5c-1.2-1.2-3.2-1.2-4.4,0l-44.2,44.2Z"/>
          <path class="cls-1" d="M1809.6,1349.3l-6.7-6.7c-10.2,8.2-24.9,8.2-35.1,0l-4.5,4.5,6.6,6.6c11,11,11,28.8,0,39.7l-26.5,26.5c-1.2,1.2-3.2,1.2-4.4,0l-114.8-114.8c-1.2-1.2-1.2-3.2,0-4.4l26.5-26.5c11-11,28.8-11,39.7,0l6.6,6.6,4.5-4.5c-8.2-10.2-8.2-24.9,0-35.1l-6.7-6.7c-6.1-6.1-6.1-16,0-22.1l17.7-17.7c5.4-5.4,13.7-6,19.7-1.9,2.9-2.5,6-4.5,9.3-6,1.6-.7,3.4,0,4.1,1.6.7,1.6,0,3.4-1.6,4.1-2.5,1.1-4.9,2.6-7.2,4.5l4.4,4.4c3-2.4,6.6-4.2,10.3-5.2,1.7-.4,3.4.6,3.8,2.2.4,1.7-.6,3.4-2.2,3.8-3.6.9-7.1,3-9.8,5.6l-35.3,35.3c-8.5,8.5-8.5,22.4,0,30.9l61.8,61.8c8.5,8.5,22.4,8.5,30.9,0l35.3-35.3c8.5-8.5,8.5-22.4,0-30.9l-44.2-44.2c-1.2-1.2-1.2-3.2,0-4.4s3.2-1.2,4.4,0l44.2,44.2c10.2,10.2,10.9,26.4,2.1,37.4l4.4,4.4c11.2-13.5,10.5-33.6-2.1-46.3l-44.2-44.2c-1.2-1.2-1.2-3.2,0-4.4,1.2-1.2,3.2-1.2,4.4,0l44.2,44.2c15.2,15.2,15.8,39.4,1.9,55.3,4.1,6.1,3.4,14.4-1.9,19.7l-17.7,17.7c-6.1,6.1-16,6.1-22.1,0ZM1736.8,1205.8l-6.6-6.6c-3.7-3.7-9.6-3.6-13.2,0l-17.7,17.7c-3.6,3.6-3.7,9.6,0,13.2l6.6,6.6,30.9-30.9ZM1692.2,1364.4c1.7-3.5,1.1-7.8-1.8-10.6s-7.2-3.5-10.6-1.8l12.5,12.5ZM1763.2,1338.3l-57.4-57.4-4.4,4.4,57.4,57.4,4.4-4.4ZM1686,1278.7c-8.5-8.5-22.4-8.5-30.9,0l-24.3,24.3,44.4,44.4c6.1-4,14.3-3.4,19.6,2,5.3,5.3,6,13.6,2,19.6l44.4,44.4,24.3-24.3c8.5-8.5,8.5-22.4,0-30.9l-79.5-79.5ZM1844.9,1327.3c3.6-3.6,3.7-9.6,0-13.2l-6.6-6.6-30.9,30.9,6.6,6.6c3.7,3.7,9.6,3.6,13.2,0l17.7-17.7Z"/>
          <path class="cls-1" d="M1791.9,1274.3c6.1-6.1,16-6.1,22.1,0,6.1,6.1,6.1,16,0,22.1-6.1,6.1-16,6.1-22.1,0-6.1-6.1-6.1-16,0-22.1ZM1796.4,1291.9c3.7,3.7,9.6,3.6,13.2,0,3.6-3.6,3.7-9.6,0-13.2s-9.6-3.6-13.2,0c-3.6,3.6-3.7,9.6,0,13.2Z"/>
          <path class="cls-1" d="M1747.8,1230.1c6.1-6.1,16-6.1,22.1,0,6.1,6.1,6.1,16,0,22.1-6.1,6.1-16,6.1-22.1,0-6.1-6.1-6.1-16,0-22.1ZM1765.5,1247.8c3.6-3.6,3.7-9.6,0-13.2s-9.6-3.6-13.2,0-3.7,9.6,0,13.2c3.7,3.7,9.6,3.6,13.2,0Z"/>
          <path class="cls-1" d="M1765.5,1305.2l-26.5-26.5c-1.2-1.2-1.2-3.2,0-4.4s3.2-1.2,4.4,0l26.5,26.5c1.2,1.2,1.2,3.2,0,4.4-1.2,1.2-3.2,1.2-4.4,0Z"/>
          <path class="cls-1" d="M1699.2,1344.9c-6.1-6.1-6.1-16,0-22.1,6.1-6.1,16-6.1,22.1,0,6.1,6.1,6.1,16,0,22.1-6.1,6.1-16,6.1-22.1,0ZM1716.9,1327.3c-3.7-3.7-9.6-3.6-13.2,0-3.6,3.6-3.7,9.6,0,13.2s9.6,3.6,13.2,0,3.7-9.6,0-13.2Z"/>
        </g>
        <g>
          <path class="cls-1" d="M1924.4,1756.6l-79.5,79.5c-3.7,3.7-9.6,3.6-13.2,0l-44.2-44.2c-3.6-3.6-3.7-9.6,0-13.2l38.4-38.4-8.2-24.7c-.7-2.3,1.1-4.1,3-4.1h34l12.3-12.3c3.7-3.7,9.6-3.6,13.2,0l44.2,44.2c3.6,3.6,3.7,9.6,0,13.2ZM1875.8,1703.6c-1.2-1.2-3.2-1.2-4.4,0l-13.2,13.2c-.6.6-1.4.9-2.2.9h-31l7.5,22.4c.4,1.1,0,2.4-.8,3.2l-39.7,39.7c-1.2,1.2-1.2,3.2,0,4.4l44.2,44.2c1.2,1.2,3.2,1.2,4.4,0l79.5-79.5c1.2-1.2,1.2-3.2,0-4.4l-44.2-44.2Z"/>
          <path class="cls-1" d="M1650.7,1809.6l6.7-6.7c-8.2-10.2-8.2-24.9,0-35.1l-4.5-4.5-6.6,6.6c-11,11-28.8,11-39.7,0l-26.5-26.5c-1.2-1.2-1.2-3.2,0-4.4l114.8-114.8c1.2-1.2,3.2-1.2,4.4,0l26.5,26.5c11,11,11,28.8,0,39.7l-6.6,6.6,4.5,4.5c10.2-8.2,24.9-8.2,35.1,0l6.7-6.7c6.1-6.1,16-6.1,22.1,0l17.7,17.7c5.4,5.4,6,13.7,1.9,19.7,2.5,2.9,4.5,6,6,9.3.7,1.6,0,3.4-1.6,4.1-1.6.7-3.4,0-4.1-1.6-1.1-2.5-2.6-4.9-4.5-7.2l-4.4,4.4c2.4,3,4.2,6.6,5.2,10.3.4,1.7-.6,3.4-2.2,3.8-1.7.4-3.4-.6-3.8-2.2-.9-3.6-3-7.1-5.6-9.8l-35.3-35.3c-8.5-8.5-22.4-8.5-30.9,0l-61.8,61.8c-8.5,8.5-8.5,22.4,0,30.9l35.3,35.3c8.5,8.5,22.4,8.5,30.9,0l44.2-44.2c1.2-1.2,3.2-1.2,4.4,0s1.2,3.2,0,4.4l-44.2,44.2c-10.2,10.2-26.4,10.9-37.4,2.1l-4.4,4.4c13.5,11.2,33.6,10.5,46.3-2.1l44.2-44.2c1.2-1.2,3.2-1.2,4.4,0,1.2,1.2,1.2,3.2,0,4.4l-44.2,44.2c-15.2,15.2-39.4,15.8-55.3,1.9-6.1,4.1-14.4,3.4-19.7-1.9l-17.7-17.7c-6.1-6.1-6.1-16,0-22.1ZM1794.2,1736.8l6.6-6.6c3.7-3.7,3.6-9.6,0-13.2l-17.7-17.7c-3.6-3.6-9.6-3.7-13.2,0l-6.6,6.6,30.9,30.9ZM1635.6,1692.2c3.5,1.7,7.8,1.1,10.6-1.8s3.5-7.2,1.8-10.6l-12.5,12.5ZM1661.7,1763.2l57.4-57.4-4.4-4.4-57.4,57.4,4.4,4.4ZM1721.3,1686c8.5-8.5,8.5-22.4,0-30.9l-24.3-24.3-44.4,44.4c4,6.1,3.4,14.3-2,19.6s-13.6,6-19.6,2l-44.4,44.4,24.3,24.3c8.5,8.5,22.4,8.5,30.9,0l79.5-79.5ZM1672.7,1844.9c3.6,3.6,9.6,3.7,13.2,0l6.6-6.6-30.9-30.9-6.6,6.6c-3.7,3.7-3.6,9.6,0,13.2l17.7,17.7Z"/>
          <path class="cls-1" d="M1725.7,1791.9c6.1,6.1,6.1,16,0,22.1s-16,6.1-22.1,0-6.1-16,0-22.1c6.1-6.1,16-6.1,22.1,0ZM1708.1,1796.4c-3.7,3.7-3.6,9.6,0,13.2,3.6,3.6,9.6,3.7,13.2,0,3.7-3.7,3.6-9.6,0-13.2s-9.6-3.7-13.2,0Z"/>
          <path class="cls-1" d="M1769.9,1747.8c6.1,6.1,6.1,16,0,22.1-6.1,6.1-16,6.1-22.1,0-6.1-6.1-6.1-16,0-22.1,6.1-6.1,16-6.1,22.1,0ZM1752.2,1765.5c3.6,3.6,9.6,3.7,13.2,0s3.6-9.6,0-13.2-9.6-3.7-13.2,0-3.6,9.6,0,13.2Z"/>
          <path class="cls-1" d="M1694.8,1765.5l26.5-26.5c1.2-1.2,3.2-1.2,4.4,0s1.2,3.2,0,4.4l-26.5,26.5c-1.2,1.2-3.2,1.2-4.4,0-1.2-1.2-1.2-3.2,0-4.4Z"/>
          <path class="cls-1" d="M1655.1,1699.2c6.1-6.1,16-6.1,22.1,0,6.1,6.1,6.1,16,0,22.1s-16,6.1-22.1,0c-6.1-6.1-6.1-16,0-22.1ZM1672.7,1716.9c3.7-3.7,3.6-9.6,0-13.2-3.6-3.6-9.6-3.7-13.2,0s-3.6,9.6,0,13.2,9.6,3.7,13.2,0Z"/>
        </g>
        <g>
          <path class="cls-1" d="M1243.4,1924.4l-79.5-79.5c-3.7-3.7-3.6-9.6,0-13.2l44.2-44.2c3.6-3.6,9.6-3.7,13.2,0l38.4,38.4,24.7-8.2c2.3-.7,4.1,1.1,4.1,3v34l12.3,12.3c3.7,3.7,3.6,9.6,0,13.2l-44.2,44.2c-3.6,3.6-9.6,3.7-13.2,0ZM1296.4,1875.8c1.2-1.2,1.2-3.2,0-4.4l-13.2-13.2c-.6-.6-.9-1.4-.9-2.2v-31l-22.4,7.5c-1.1.4-2.4,0-3.2-.8l-39.7-39.7c-1.2-1.2-3.2-1.2-4.4,0l-44.2,44.2c-1.2,1.2-1.2,3.2,0,4.4l79.5,79.5c1.2,1.2,3.2,1.2,4.4,0l44.2-44.2Z"/>
          <path class="cls-1" d="M1190.4,1650.7l6.7,6.7c10.2-8.2,24.9-8.2,35.1,0l4.5-4.5-6.6-6.6c-11-11-11-28.8,0-39.7l26.5-26.5c1.2-1.2,3.2-1.2,4.4,0l114.8,114.8c1.2,1.2,1.2,3.2,0,4.4l-26.5,26.5c-11,11-28.8,11-39.7,0l-6.6-6.6-4.5,4.5c8.2,10.2,8.2,24.9,0,35.1l6.7,6.7c6.1,6.1,6.1,16,0,22.1l-17.7,17.7c-5.4,5.4-13.7,6-19.7,1.9-2.9,2.5-6,4.5-9.3,6-1.6.7-3.4,0-4.1-1.6-.7-1.6,0-3.4,1.6-4.1,2.5-1.1,4.9-2.6,7.2-4.5l-4.4-4.4c-3,2.4-6.6,4.2-10.3,5.2-1.7.4-3.4-.6-3.8-2.2-.4-1.7.6-3.4,2.2-3.8,3.6-.9,7.1-3,9.8-5.6l35.3-35.3c8.5-8.5,8.5-22.4,0-30.9l-61.8-61.8c-8.5-8.5-22.4-8.5-30.9,0l-35.3,35.3c-8.5,8.5-8.5,22.4,0,30.9l44.2,44.2c1.2,1.2,1.2,3.2,0,4.4s-3.2,1.2-4.4,0l-44.2-44.2c-10.2-10.2-10.9-26.4-2.1-37.4l-4.4-4.4c-11.2,13.5-10.5,33.6,2.1,46.3l44.2,44.2c1.2,1.2,1.2,3.2,0,4.4s-3.2,1.2-4.4,0l-44.2-44.2c-15.2-15.2-15.8-39.4-1.9-55.3-4.1-6.1-3.4-14.4,1.9-19.7l17.7-17.7c6.1-6.1,16-6.1,22.1,0ZM1263.2,1794.2l6.6,6.6c3.7,3.7,9.6,3.6,13.2,0l17.7-17.7c3.6-3.6,3.7-9.6,0-13.2l-6.6-6.6-30.9,30.9ZM1307.8,1635.6c-1.7,3.5-1.1,7.8,1.8,10.6s7.2,3.5,10.6,1.8l-12.5-12.5ZM1236.8,1661.7l57.4,57.4,4.4-4.4-57.4-57.4-4.4,4.4ZM1314,1721.3c8.5,8.5,22.4,8.5,30.9,0l24.3-24.3-44.4-44.4c-6.1,4-14.3,3.4-19.6-2-5.3-5.3-6-13.6-2-19.6l-44.4-44.4-24.3,24.3c-8.5,8.5-8.5,22.4,0,30.9l79.5,79.5ZM1155.1,1672.7c-3.6,3.6-3.7,9.6,0,13.2l6.6,6.6,30.9-30.9-6.6-6.6c-3.7-3.7-9.6-3.6-13.2,0l-17.7,17.7Z"/>
          <path class="cls-1" d="M1208.1,1725.7c-6.1,6.1-16,6.1-22.1,0-6.1-6.1-6.1-16,0-22.1,6.1-6.1,16-6.1,22.1,0,6.1,6.1,6.1,16,0,22.1ZM1203.6,1708.1c-3.7-3.7-9.6-3.6-13.2,0-3.6,3.6-3.7,9.6,0,13.2,3.7,3.7,9.6,3.6,13.2,0s3.7-9.6,0-13.2Z"/>
          <path class="cls-1" d="M1252.2,1769.9c-6.1,6.1-16,6.1-22.1,0-6.1-6.1-6.1-16,0-22.1,6.1-6.1,16-6.1,22.1,0,6.1,6.1,6.1,16,0,22.1ZM1234.5,1752.2c-3.6,3.6-3.7,9.6,0,13.2s9.6,3.6,13.2,0,3.7-9.6,0-13.2-9.6-3.6-13.2,0Z"/>
          <path class="cls-1" d="M1234.5,1694.8l26.5,26.5c1.2,1.2,1.2,3.2,0,4.4s-3.2,1.2-4.4,0l-26.5-26.5c-1.2-1.2-1.2-3.2,0-4.4,1.2-1.2,3.2-1.2,4.4,0Z"/>
          <path class="cls-1" d="M1300.8,1655.1c6.1,6.1,6.1,16,0,22.1s-16,6.1-22.1,0c-6.1-6.1-6.1-16,0-22.1,6.1-6.1,16-6.1,22.1,0ZM1283.1,1672.7c3.7,3.7,9.6,3.6,13.2,0,3.6-3.6,3.7-9.6,0-13.2s-9.6-3.6-13.2,0-3.7,9.6,0,13.2Z"/>
        </g>
        <g>
          <path class="cls-1" d="M1075.6,1243.4l79.5-79.5c3.7-3.7,9.6-3.6,13.2,0l44.2,44.2c3.6,3.6,3.7,9.6,0,13.2l-38.4,38.4,8.2,24.7c.7,2.3-1.1,4.1-3,4.1h-34l-12.3,12.3c-3.7,3.7-9.6,3.6-13.2,0l-44.2-44.2c-3.6-3.6-3.7-9.6,0-13.2ZM1124.2,1296.4c1.2,1.2,3.2,1.2,4.4,0l13.2-13.2c.6-.6,1.4-.9,2.2-.9h31l-7.5-22.4c-.4-1.1,0-2.4.8-3.2l39.7-39.7c1.2-1.2,1.2-3.2,0-4.4l-44.2-44.2c-1.2-1.2-3.2-1.2-4.4,0l-79.5,79.5c-1.2,1.2-1.2,3.2,0,4.4l44.2,44.2Z"/>
          <path class="cls-1" d="M1349.3,1190.4l-6.7,6.7c8.2,10.2,8.2,24.9,0,35.1l4.5,4.5,6.6-6.6c11-11,28.8-11,39.7,0l26.5,26.5c1.2,1.2,1.2,3.2,0,4.4l-114.8,114.8c-1.2,1.2-3.2,1.2-4.4,0l-26.5-26.5c-11-11-11-28.8,0-39.7l6.6-6.6-4.5-4.5c-10.2,8.2-24.9,8.2-35.1,0l-6.7,6.7c-6.1,6.1-16,6.1-22.1,0l-17.7-17.7c-5.4-5.4-6-13.7-1.9-19.7-2.5-2.9-4.5-6-6-9.3-.7-1.6,0-3.4,1.6-4.1,1.6-.7,3.4,0,4.1,1.6,1.1,2.5,2.6,4.9,4.5,7.2l4.4-4.4c-2.4-3-4.2-6.6-5.2-10.3-.4-1.7.6-3.4,2.2-3.8,1.7-.4,3.4.6,3.8,2.2.9,3.6,3,7.1,5.6,9.8l35.3,35.3c8.5,8.5,22.4,8.5,30.9,0l61.8-61.8c8.5-8.5,8.5-22.4,0-30.9l-35.3-35.3c-8.5-8.5-22.4-8.5-30.9,0l-44.2,44.2c-1.2,1.2-3.2,1.2-4.4,0s-1.2-3.2,0-4.4l44.2-44.2c10.2-10.2,26.4-10.9,37.4-2.1l4.4-4.4c-13.5-11.2-33.6-10.5-46.3,2.1l-44.2,44.2c-1.2,1.2-3.2,1.2-4.4,0s-1.2-3.2,0-4.4l44.2-44.2c15.2-15.2,39.4-15.8,55.3-1.9,6.1-4.1,14.4-3.4,19.7,1.9l17.7,17.7c6.1,6.1,6.1,16,0,22.1ZM1205.8,1263.2l-6.6,6.6c-3.7,3.7-3.6,9.6,0,13.2l17.7,17.7c3.6,3.6,9.6,3.7,13.2,0l6.6-6.6-30.9-30.9ZM1364.4,1307.8c-3.5-1.7-7.8-1.1-10.6,1.8-2.9,2.9-3.5,7.2-1.8,10.6l12.5-12.5ZM1338.3,1236.8l-57.4,57.4,4.4,4.4,57.4-57.4-4.4-4.4ZM1278.7,1314c-8.5,8.5-8.5,22.4,0,30.9l24.3,24.3,44.4-44.4c-4-6.1-3.4-14.3,2-19.6,5.3-5.3,13.6-6,19.6-2l44.4-44.4-24.3-24.3c-8.5-8.5-22.4-8.5-30.9,0l-79.5,79.5ZM1327.3,1155.1c-3.6-3.6-9.6-3.7-13.2,0l-6.6,6.6,30.9,30.9,6.6-6.6c3.7-3.7,3.6-9.6,0-13.2l-17.7-17.7Z"/>
          <path class="cls-1" d="M1274.3,1208.1c-6.1-6.1-6.1-16,0-22.1,6.1-6.1,16-6.1,22.1,0,6.1,6.1,6.1,16,0,22.1-6.1,6.1-16,6.1-22.1,0ZM1291.9,1203.6c3.7-3.7,3.6-9.6,0-13.2-3.6-3.6-9.6-3.7-13.2,0s-3.6,9.6,0,13.2,9.6,3.7,13.2,0Z"/>
          <path class="cls-1" d="M1230.1,1252.2c-6.1-6.1-6.1-16,0-22.1,6.1-6.1,16-6.1,22.1,0,6.1,6.1,6.1,16,0,22.1-6.1,6.1-16,6.1-22.1,0ZM1247.8,1234.5c-3.6-3.6-9.6-3.7-13.2,0s-3.6,9.6,0,13.2,9.6,3.7,13.2,0c3.7-3.7,3.6-9.6,0-13.2Z"/>
          <path class="cls-1" d="M1305.2,1234.5l-26.5,26.5c-1.2,1.2-3.2,1.2-4.4,0-1.2-1.2-1.2-3.2,0-4.4l26.5-26.5c1.2-1.2,3.2-1.2,4.4,0,1.2,1.2,1.2,3.2,0,4.4Z"/>
          <path class="cls-1" d="M1344.9,1300.8c-6.1,6.1-16,6.1-22.1,0s-6.1-16,0-22.1c6.1-6.1,16-6.1,22.1,0,6.1,6.1,6.1,16,0,22.1ZM1327.3,1283.1c-3.7,3.7-3.6,9.6,0,13.2s9.6,3.7,13.2,0c3.7-3.7,3.6-9.6,0-13.2s-9.6-3.7-13.2,0Z"/>
        </g>
        <g>
          <path class="cls-1" d="M1993.8,1872h-112.4c-5.2,0-9.4,4.2-9.4,9.4v62.4c0,5.2,4.2,9.4,9.4,9.4h17.4l24.1,24.1c1.3,1.4,3.9,1.3,5-.8l11.6-23.2h54.3c2.4,0,4.6-.9,6.2-2.4v-76.4c-1.7-1.5-3.8-2.4-6.2-2.4ZM1993.8,1946.9h-56.2c-1.2,0-2.3.7-2.8,1.7l-10.5,21.1-21.9-21.9c-.6-.6-1.4-.9-2.2-.9h-18.7c-1.7,0-3.1-1.4-3.1-3.1v-62.4c0-1.7,1.4-3.1,3.1-3.1h112.4c1.7,0,3.1,1.4,3.1,3.1v62.4c0,1.7-1.4,3.1-3.1,3.1Z"/>
          <path class="cls-1" d="M1940.7,1987.5c0-5.2,4.2-9.4,9.4-9.4h9.4v21.9h6.2v-25c0-3.8,1-7.7,2.9-10.9.9-1.5.4-3.4-1.1-4.3-1.5-.9-3.4-.4-4.3,1.1-1.9,3.3-3.2,7.1-3.6,10.9h-6.3c.3-2.9.9-5.7,1.9-8.2.6-1.6-.2-3.4-1.8-4-1.6-.6-3.4.2-4,1.8-1.3,3.4-2.1,7-2.4,10.8-7.2,1.4-12.6,7.7-12.6,15.3v12.5h6.2v-12.5Z"/>
          <path class="cls-1" d="M2000,1996.9c-5.2,0-9.4-4.2-9.4-9.4s4.2-9.4,9.4-9.4v-6.2c-8.6,0-15.6,7-15.6,15.6s2.5,9.6,6.3,12.5h9.4v-3.1Z"/>
        </g>
        <g>
          <path class="cls-1" d="M1381.4,1872h112.4c5.2,0,9.4,4.2,9.4,9.4v62.4c0,5.2-4.2,9.4-9.4,9.4h-54.3l-11.6,23.2c-1.1,2.1-3.7,2.2-5,.8l-24.1-24.1h-17.4c-5.2,0-9.4-4.2-9.4-9.4v-62.4c0-5.2,4.2-9.4,9.4-9.4ZM1378.2,1943.8c0,1.7,1.4,3.1,3.1,3.1h18.7c.8,0,1.6.3,2.2.9l21.9,21.9,10.5-21.1c.5-1.1,1.6-1.7,2.8-1.7h56.2c1.7,0,3.1-1.4,3.1-3.1v-62.4c0-1.7-1.4-3.1-3.1-3.1h-112.4c-1.7,0-3.1,1.4-3.1,3.1v62.4Z"/>
          <path class="cls-1" d="M1615.4,1972.2c-1.5-21.1-19-37.8-40.5-37.8h-62.4c-1.7,0-3.1,1.4-3.1,3.1s1.4,3.1,3.1,3.1h62.4c17.9,0,32.6,13.7,34.2,31.2h-6.3c-1.6-14-13.5-25-27.9-25h-62.4c-1.7,0-3.1,1.4-3.1,3.1s1.4,3.1,3.1,3.1h62.4c12,0,21.9,9.8,21.9,21.9v25h6.2v-21.9h9.4c5.2,0,9.4,4.2,9.4,9.4v12.5h6.2v-12.5c0-7.6-5.4-13.9-12.6-15.3Z"/>
          <path class="cls-1" d="M1440.7,1987.5c0-5.2,4.2-9.4,9.4-9.4h9.4v21.9h6.2v-25c0-3.8,1-7.7,2.9-10.9.9-1.5.4-3.4-1.1-4.3-1.5-.9-3.4-.4-4.3,1.1-1.9,3.3-3.2,7.1-3.6,10.9h-6.3c.3-2.9.9-5.7,1.9-8.2.6-1.6-.2-3.4-1.8-4-1.6-.6-3.4.2-4,1.8-1.3,3.4-2.1,7-2.4,10.8-7.2,1.4-12.6,7.7-12.6,15.3v12.5h6.2v-12.5Z"/>
          <path class="cls-1" d="M1578,1987.5c0-8.6-7-15.6-15.6-15.6s-15.6,7-15.6,15.6,2.5,9.6,6.3,12.5h18.7c3.8-2.8,6.3-7.4,6.3-12.5ZM1562.4,1996.9c-5.2,0-9.4-4.2-9.4-9.4s4.2-9.4,9.4-9.4,9.4,4.2,9.4,9.4-4.2,9.4-9.4,9.4Z"/>
          <path class="cls-1" d="M1515.6,1987.5c0-8.6-7-15.6-15.6-15.6s-15.6,7-15.6,15.6,2.5,9.6,6.3,12.5h18.7c3.8-2.8,6.3-7.4,6.3-12.5ZM1500,1996.9c-5.2,0-9.4-4.2-9.4-9.4s4.2-9.4,9.4-9.4,9.4,4.2,9.4,9.4-4.2,9.4-9.4,9.4Z"/>
        </g>
        <g>
          <path class="cls-1" d="M1003.1,1943.8v-62.4c0-2.8-1.2-5.2-3.1-7v76.4c1.9-1.7,3.1-4.2,3.1-7Z"/>
          <path class="cls-1" d="M1115.4,1972.2c-1.5-21.1-19-37.8-40.5-37.8h-62.4c-1.7,0-3.1,1.4-3.1,3.1s1.4,3.1,3.1,3.1h62.4c17.9,0,32.6,13.7,34.2,31.2h-6.3c-1.6-14-13.5-25-27.9-25h-62.4c-1.7,0-3.1,1.4-3.1,3.1s1.4,3.1,3.1,3.1h62.4c12,0,21.9,9.8,21.9,21.9v25h6.2v-21.9h9.4c5.2,0,9.4,4.2,9.4,9.4v12.5h6.2v-12.5c0-7.6-5.4-13.9-12.6-15.3Z"/>
          <path class="cls-1" d="M1078,1987.5c0-8.6-7-15.6-15.6-15.6s-15.6,7-15.6,15.6,2.5,9.6,6.3,12.5h18.7c3.8-2.8,6.3-7.4,6.3-12.5ZM1062.4,1996.9c-5.2,0-9.4-4.2-9.4-9.4s4.2-9.4,9.4-9.4,9.4,4.2,9.4,9.4-4.2,9.4-9.4,9.4Z"/>
          <path class="cls-1" d="M1015.6,1987.5c0-8.6-7-15.6-15.6-15.6v6.2c5.2,0,9.4,4.2,9.4,9.4s-4.2,9.4-9.4,9.4v3.1h9.4c3.8-2.8,6.3-7.4,6.3-12.5Z"/>
        </g>
        <g>
          <path class="cls-1" d="M1993.8,1372h-112.4c-5.2,0-9.4,4.2-9.4,9.4v62.4c0,5.2,4.2,9.4,9.4,9.4h17.4l24.1,24.1c1.3,1.4,3.9,1.3,5-.8l11.6-23.2h54.3c2.4,0,4.6-.9,6.2-2.4v-76.4c-1.7-1.5-3.8-2.4-6.2-2.4ZM1993.8,1446.9h-56.2c-1.2,0-2.3.7-2.8,1.7l-10.5,21.1-21.9-21.9c-.6-.6-1.4-.9-2.2-.9h-18.7c-1.7,0-3.1-1.4-3.1-3.1v-62.4c0-1.7,1.4-3.1,3.1-3.1h112.4c1.7,0,3.1,1.4,3.1,3.1v62.4c0,1.7-1.4,3.1-3.1,3.1Z"/>
          <path class="cls-1" d="M1953.2,1621.8v-34.3c0-12,9.8-21.9,21.9-21.9h25v-6.2h-9.4v-6.2h9.4v-6.2h-12.5c-12,0-21.9-9.8-21.9-21.9v-50c0-3.8,1-7.7,2.9-10.9.9-1.5.4-3.4-1.1-4.3-1.5-.9-3.4-.4-4.3,1.1-1.9,3.3-3.2,7.1-3.6,10.9h-6.3c.3-2.9.9-5.7,1.9-8.2.6-1.6-.2-3.4-1.8-4-1.6-.6-3.4.2-4,1.8-1.3,3.4-2.1,7-2.4,10.8-7.2,1.4-12.6,7.7-12.6,15.3v25c0,8.6,7,15.6,15.6,15.6h9.5c1.4,13,11.8,23.4,24.8,24.8v6.4h-9.4c-15.5,0-28.1,12.6-28.1,28.1v37.5c0,1.7,1.4,3.1,3.1,3.1h50v-6.2h-46.8ZM1959.4,1521.9h-9.4c-5.2,0-9.4-4.2-9.4-9.4v-25c0-5.2,4.2-9.4,9.4-9.4h9.4v43.7Z"/>
          <path class="cls-1" d="M1990.6,1487.5c0-5.2,4.2-9.4,9.4-9.4v-6.2c-8.6,0-15.6,7-15.6,15.6s7,15.6,15.6,15.6v-6.2c-5.2,0-9.4-4.2-9.4-9.4Z"/>
        </g>
        <g>
          <path class="cls-1" d="M1381.4,1372h112.4c5.2,0,9.4,4.2,9.4,9.4v62.4c0,5.2-4.2,9.4-9.4,9.4h-54.3l-11.6,23.2c-1.1,2.1-3.7,2.2-5,.8l-24.1-24.1h-17.4c-5.2,0-9.4-4.2-9.4-9.4v-62.4c0-5.2,4.2-9.4,9.4-9.4ZM1378.2,1443.8c0,1.7,1.4,3.1,3.1,3.1h18.7c.8,0,1.6.3,2.2.9l21.9,21.9,10.5-21.1c.5-1.1,1.6-1.7,2.8-1.7h56.2c1.7,0,3.1-1.4,3.1-3.1v-62.4c0-1.7-1.4-3.1-3.1-3.1h-112.4c-1.7,0-3.1,1.4-3.1,3.1v62.4Z"/>
          <path class="cls-1" d="M1612.4,1528.1h-9.5c-1.4,13-11.8,23.4-24.8,24.8v6.4h9.4c15.5,0,28.1,12.6,28.1,28.1v37.5c0,1.7-1.4,3.1-3.1,3.1h-162.3c-1.7,0-3.1-1.4-3.1-3.1v-37.5c0-15.5,12.6-28.1,28.1-28.1h9.4v-6.4c-13-1.4-23.4-11.8-24.8-24.8h-9.5c-8.6,0-15.6-7-15.6-15.6v-25c0-7.6,5.4-13.9,12.6-15.3.3-3.8,1-7.4,2.4-10.8.6-1.6,2.4-2.4,4-1.8,1.6.6,2.4,2.4,1.8,4-1,2.6-1.6,5.3-1.9,8.2h6.3c.4-3.9,1.7-7.6,3.6-10.9.9-1.5,2.8-2,4.3-1.1,1.5.9,2,2.8,1.1,4.3-1.9,3.2-2.9,7.1-2.9,10.9v50c0,12,9.8,21.9,21.9,21.9h87.4c12,0,21.9-9.8,21.9-21.9v-50c0-12-9.8-21.9-21.9-21.9h-62.4c-1.7,0-3.1-1.4-3.1-3.1s1.4-3.1,3.1-3.1h62.4c14.4,0,26.4,11,27.9,25h6.3c-1.6-17.5-16.3-31.2-34.2-31.2h-62.4c-1.7,0-3.1-1.4-3.1-3.1s1.4-3.1,3.1-3.1h62.4c21.4,0,39,16.7,40.5,37.8,7.2,1.4,12.6,7.7,12.6,15.3v25c0,8.6-7,15.6-15.6,15.6ZM1459.4,1478.1h-9.4c-5.2,0-9.4,4.2-9.4,9.4v25c0,5.2,4.2,9.4,9.4,9.4h9.4v-43.7ZM1540,1621.8c-1.3-3.6-4.7-6.2-8.8-6.2s-7.5,2.6-8.8,6.2h17.6ZM1571.8,1553.1h-81.2v6.2h81.2v-6.2ZM1475,1565.6c-12,0-21.9,9.8-21.9,21.9v34.3h62.8c1.5-7.1,7.7-12.5,15.3-12.5s13.8,5.4,15.3,12.5h62.8v-34.3c0-12-9.8-21.9-21.9-21.9h-112.4ZM1621.8,1487.5c0-5.2-4.2-9.4-9.4-9.4h-9.4v43.7h9.4c5.2,0,9.4-4.2,9.4-9.4v-25Z"/>
          <path class="cls-1" d="M1546.8,1487.5c0-8.6,7-15.6,15.6-15.6s15.6,7,15.6,15.6-7,15.6-15.6,15.6-15.6-7-15.6-15.6ZM1562.4,1496.9c5.2,0,9.4-4.2,9.4-9.4s-4.2-9.4-9.4-9.4-9.4,4.2-9.4,9.4,4.2,9.4,9.4,9.4Z"/>
          <path class="cls-1" d="M1484.4,1487.5c0-8.6,7-15.6,15.6-15.6s15.6,7,15.6,15.6-7,15.6-15.6,15.6-15.6-7-15.6-15.6ZM1509.4,1487.5c0-5.2-4.2-9.4-9.4-9.4s-9.4,4.2-9.4,9.4,4.2,9.4,9.4,9.4,9.4-4.2,9.4-9.4Z"/>
          <path class="cls-1" d="M1550,1528.1h-37.5c-1.7,0-3.1-1.4-3.1-3.1s1.4-3.1,3.1-3.1h37.5c1.7,0,3.1,1.4,3.1,3.1s-1.4,3.1-3.1,3.1Z"/>
          <path class="cls-1" d="M1531.2,1603c-8.6,0-15.6-7-15.6-15.6s7-15.6,15.6-15.6,15.6,7,15.6,15.6-7,15.6-15.6,15.6ZM1531.2,1578c-5.2,0-9.4,4.2-9.4,9.4s4.2,9.4,9.4,9.4,9.4-4.2,9.4-9.4-4.2-9.4-9.4-9.4Z"/>
        </g>
        <g>
          <path class="cls-1" d="M1003.1,1443.8v-62.4c0-2.8-1.2-5.2-3.1-7v76.4c1.9-1.7,3.1-4.2,3.1-7Z"/>
          <path class="cls-1" d="M1115.5,1624.9v-37.5c0-15.5-12.6-28.1-28.1-28.1h-9.4v-6.4c13-1.4,23.4-11.8,24.8-24.8h9.5c8.6,0,15.6-7,15.6-15.6v-25c0-7.6-5.4-13.9-12.6-15.3-1.5-21.1-19-37.8-40.5-37.8h-62.4c-1.7,0-3.1,1.4-3.1,3.1s1.4,3.1,3.1,3.1h62.4c17.9,0,32.6,13.7,34.2,31.2h-6.3c-1.6-14-13.5-25-27.9-25h-62.4c-1.7,0-3.1,1.4-3.1,3.1s1.4,3.1,3.1,3.1h62.4c12,0,21.9,9.8,21.9,21.9v50c0,12-9.8,21.9-21.9,21.9h-74.9v6.2h71.8v6.2h-71.8v6.2h87.4c12,0,21.9,9.8,21.9,21.9v34.3h-62.8c-1.5-7.1-7.7-12.5-15.3-12.5s-13.8,5.4-15.3,12.5h-15.9v6.2h112.4c1.7,0,3.1-1.4,3.1-3.1ZM1103,1478.1h9.4c5.2,0,9.4,4.2,9.4,9.4v25c0,5.2-4.2,9.4-9.4,9.4h-9.4v-43.7ZM1022.4,1621.8c1.3-3.6,4.7-6.2,8.8-6.2s7.5,2.6,8.8,6.2h-17.6Z"/>
          <path class="cls-1" d="M1046.8,1487.5c0-8.6,7-15.6,15.6-15.6s15.6,7,15.6,15.6-7,15.6-15.6,15.6-15.6-7-15.6-15.6ZM1062.4,1496.9c5.2,0,9.4-4.2,9.4-9.4s-4.2-9.4-9.4-9.4-9.4,4.2-9.4,9.4,4.2,9.4,9.4,9.4Z"/>
          <path class="cls-1" d="M1015.6,1487.5c0-8.6-7-15.6-15.6-15.6v6.2c5.2,0,9.4,4.2,9.4,9.4s-4.2,9.4-9.4,9.4v6.2c8.6,0,15.6-7,15.6-15.6Z"/>
          <path class="cls-1" d="M1050,1528.1h-37.5c-1.7,0-3.1-1.4-3.1-3.1s1.4-3.1,3.1-3.1h37.5c1.7,0,3.1,1.4,3.1,3.1s-1.4,3.1-3.1,3.1Z"/>
          <path class="cls-1" d="M1031.2,1603c-8.6,0-15.6-7-15.6-15.6s7-15.6,15.6-15.6,15.6,7,15.6,15.6-7,15.6-15.6,15.6ZM1031.2,1578c-5.2,0-9.4,4.2-9.4,9.4s4.2,9.4,9.4,9.4,9.4-4.2,9.4-9.4-4.2-9.4-9.4-9.4Z"/>
        </g>
        <g>
          <path class="cls-1" d="M1953.2,1121.8v-34.3c0-12,9.8-21.9,21.9-21.9h25v-6.2h-9.4v-6.2h9.4v-6.2h-12.5c-12,0-21.9-9.8-21.9-21.9v-25h-6.2v21.9h-9.4c-5.2,0-9.4-4.2-9.4-9.4v-12.5h-6.2v12.5c0,8.6,7,15.6,15.6,15.6h9.5c1.4,13,11.8,23.4,24.8,24.8v6.4h-9.4c-15.5,0-28.1,12.6-28.1,28.1v37.5c0,1.7,1.4,3.1,3.1,3.1h50v-6.2h-46.8Z"/>
          <path class="cls-1" d="M1990.6,1000c2.6,2,5.8,3.1,9.4,3.1v-3.1h-9.4Z"/>
        </g>
        <g>
          <path class="cls-1" d="M1450,1028.1h9.5c1.4,13,11.8,23.4,24.8,24.8v6.4h-9.4c-15.5,0-28.1,12.6-28.1,28.1v37.5c0,1.7,1.4,3.1,3.1,3.1h162.3c1.7,0,3.1-1.4,3.1-3.1v-37.5c0-15.5-12.6-28.1-28.1-28.1h-9.4v-6.4c13-1.4,23.4-11.8,24.8-24.8h9.5c8.6,0,15.6-7,15.6-15.6v-12.5h-6.2v12.5c0,5.2-4.2,9.4-9.4,9.4h-9.4v-21.9h-6.2v25c0,12-9.8,21.9-21.9,21.9h-87.4c-12,0-21.9-9.8-21.9-21.9v-25h-6.2v21.9h-9.4c-5.2,0-9.4-4.2-9.4-9.4v-12.5h-6.2v12.5c0,8.6,7,15.6,15.6,15.6ZM1522.4,1121.8c1.3-3.6,4.7-6.2,8.8-6.2s7.5,2.6,8.8,6.2h-17.6ZM1490.6,1053.1h81.2v6.2h-81.2v-6.2ZM1587.4,1065.6c12,0,21.9,9.8,21.9,21.9v34.3h-62.8c-1.5-7.1-7.7-12.5-15.3-12.5s-13.8,5.4-15.3,12.5h-62.8v-34.3c0-12,9.8-21.9,21.9-21.9h112.4Z"/>
          <path class="cls-1" d="M1571.8,1000h-18.7c2.6,2,5.8,3.1,9.4,3.1s6.7-1.2,9.4-3.1Z"/>
          <path class="cls-1" d="M1509.4,1000h-18.7c2.6,2,5.8,3.1,9.4,3.1s6.7-1.2,9.4-3.1Z"/>
          <path class="cls-1" d="M1550,1028.1h-37.5c-1.7,0-3.1-1.4-3.1-3.1s1.4-3.1,3.1-3.1h37.5c1.7,0,3.1,1.4,3.1,3.1s-1.4,3.1-3.1,3.1Z"/>
          <path class="cls-1" d="M1531.2,1103c-8.6,0-15.6-7-15.6-15.6s7-15.6,15.6-15.6,15.6,7,15.6,15.6-7,15.6-15.6,15.6ZM1531.2,1078c-5.2,0-9.4,4.2-9.4,9.4s4.2,9.4,9.4,9.4,9.4-4.2,9.4-9.4-4.2-9.4-9.4-9.4Z"/>
        </g>
        <g>
          <path class="cls-1" d="M1115.5,1124.9v-37.5c0-15.5-12.6-28.1-28.1-28.1h-9.4v-6.4c13-1.4,23.4-11.8,24.8-24.8h9.5c8.6,0,15.6-7,15.6-15.6v-12.5h-6.2v12.5c0,5.2-4.2,9.4-9.4,9.4h-9.4v-21.9h-6.2v25c0,12-9.8,21.9-21.9,21.9h-74.9v6.2h71.8v6.2h-71.8v6.2h87.4c12,0,21.9,9.8,21.9,21.9v34.3h-62.8c-1.5-7.1-7.7-12.5-15.3-12.5s-13.8,5.4-15.3,12.5h-15.9v6.2h112.4c1.7,0,3.1-1.4,3.1-3.1ZM1022.4,1121.8c1.3-3.6,4.7-6.2,8.8-6.2s7.5,2.6,8.8,6.2h-17.6Z"/>
          <path class="cls-1" d="M1071.8,1000h-18.7c2.6,2,5.8,3.1,9.4,3.1s6.7-1.2,9.4-3.1Z"/>
          <path class="cls-1" d="M1000,1000v3.1c3.5,0,6.7-1.2,9.4-3.1h-9.4Z"/>
          <path class="cls-1" d="M1050,1028.1h-37.5c-1.7,0-3.1-1.4-3.1-3.1s1.4-3.1,3.1-3.1h37.5c1.7,0,3.1,1.4,3.1,3.1s-1.4,3.1-3.1,3.1Z"/>
          <path class="cls-1" d="M1031.2,1103c-8.6,0-15.6-7-15.6-15.6s7-15.6,15.6-15.6,15.6,7,15.6,15.6-7,15.6-15.6,15.6ZM1031.2,1078c-5.2,0-9.4,4.2-9.4,9.4s4.2,9.4,9.4,9.4,9.4-4.2,9.4-9.4-4.2-9.4-9.4-9.4Z"/>
        </g>
      </g>
      <g>
        <g>
          <path class="cls-1" d="M756.6,75.6l79.5,79.5c3.7,3.7,3.6,9.6,0,13.2l-44.2,44.2c-3.6,3.6-9.6,3.7-13.2,0l-38.4-38.4-24.7,8.2c-2.3.7-4.1-1.1-4.1-3v-34l-12.3-12.3c-3.7-3.7-3.6-9.6,0-13.2l44.2-44.2c3.6-3.6,9.6-3.7,13.2,0ZM703.6,124.2c-1.2,1.2-1.2,3.2,0,4.4l13.2,13.2c.6.6.9,1.4.9,2.2v31l22.4-7.5c1.1-.4,2.4,0,3.2.8l39.7,39.7c1.2,1.2,3.2,1.2,4.4,0l44.2-44.2c1.2-1.2,1.2-3.2,0-4.4l-79.5-79.5c-1.2-1.2-3.2-1.2-4.4,0l-44.2,44.2Z"/>
          <path class="cls-1" d="M809.6,349.3l-6.7-6.7c-10.2,8.2-24.9,8.2-35.1,0l-4.5,4.5,6.6,6.6c11,11,11,28.8,0,39.7l-26.5,26.5c-1.2,1.2-3.2,1.2-4.4,0l-114.8-114.8c-1.2-1.2-1.2-3.2,0-4.4l26.5-26.5c11-11,28.8-11,39.7,0l6.6,6.6,4.5-4.5c-8.2-10.2-8.2-24.9,0-35.1l-6.7-6.7c-6.1-6.1-6.1-16,0-22.1l17.7-17.7c5.4-5.4,13.7-6,19.7-1.9,2.9-2.5,6-4.5,9.3-6,1.6-.7,3.4,0,4.1,1.6.7,1.6,0,3.4-1.6,4.1-2.5,1.1-4.9,2.6-7.2,4.5l4.4,4.4c3-2.4,6.6-4.2,10.3-5.2,1.7-.4,3.4.6,3.8,2.2.4,1.7-.6,3.4-2.2,3.8-3.6.9-7.1,3-9.8,5.6l-35.3,35.3c-8.5,8.5-8.5,22.4,0,30.9l61.8,61.8c8.5,8.5,22.4,8.5,30.9,0l35.3-35.3c8.5-8.5,8.5-22.4,0-30.9l-44.2-44.2c-1.2-1.2-1.2-3.2,0-4.4s3.2-1.2,4.4,0l44.2,44.2c10.2,10.2,10.9,26.4,2.1,37.4l4.4,4.4c11.2-13.5,10.5-33.6-2.1-46.3l-44.2-44.2c-1.2-1.2-1.2-3.2,0-4.4,1.2-1.2,3.2-1.2,4.4,0l44.2,44.2c15.2,15.2,15.8,39.4,1.9,55.3,4.1,6.1,3.4,14.4-1.9,19.7l-17.7,17.7c-6.1,6.1-16,6.1-22.1,0ZM736.8,205.8l-6.6-6.6c-3.7-3.7-9.6-3.6-13.2,0l-17.7,17.7c-3.6,3.6-3.7,9.6,0,13.2l6.6,6.6,30.9-30.9ZM692.2,364.4c1.7-3.5,1.1-7.8-1.8-10.6-2.9-2.9-7.2-3.5-10.6-1.8l12.5,12.5ZM763.2,338.3l-57.4-57.4-4.4,4.4,57.4,57.4,4.4-4.4ZM686,278.7c-8.5-8.5-22.4-8.5-30.9,0l-24.3,24.3,44.4,44.4c6.1-4,14.3-3.4,19.6,2s6,13.6,2,19.6l44.4,44.4,24.3-24.3c8.5-8.5,8.5-22.4,0-30.9l-79.5-79.5ZM844.9,327.3c3.6-3.6,3.7-9.6,0-13.2l-6.6-6.6-30.9,30.9,6.6,6.6c3.7,3.7,9.6,3.6,13.2,0l17.7-17.7Z"/>
          <path class="cls-1" d="M791.9,274.3c6.1-6.1,16-6.1,22.1,0,6.1,6.1,6.1,16,0,22.1-6.1,6.1-16,6.1-22.1,0-6.1-6.1-6.1-16,0-22.1ZM796.4,291.9c3.7,3.7,9.6,3.6,13.2,0,3.6-3.6,3.7-9.6,0-13.2-3.7-3.7-9.6-3.6-13.2,0-3.6,3.6-3.7,9.6,0,13.2Z"/>
          <path class="cls-1" d="M747.8,230.1c6.1-6.1,16-6.1,22.1,0,6.1,6.1,6.1,16,0,22.1-6.1,6.1-16,6.1-22.1,0-6.1-6.1-6.1-16,0-22.1ZM765.5,247.8c3.6-3.6,3.7-9.6,0-13.2-3.7-3.7-9.6-3.6-13.2,0s-3.7,9.6,0,13.2,9.6,3.6,13.2,0Z"/>
          <path class="cls-1" d="M765.5,305.2l-26.5-26.5c-1.2-1.2-1.2-3.2,0-4.4s3.2-1.2,4.4,0l26.5,26.5c1.2,1.2,1.2,3.2,0,4.4-1.2,1.2-3.2,1.2-4.4,0Z"/>
          <path class="cls-1" d="M699.2,344.9c-6.1-6.1-6.1-16,0-22.1,6.1-6.1,16-6.1,22.1,0,6.1,6.1,6.1,16,0,22.1-6.1,6.1-16,6.1-22.1,0ZM716.9,327.3c-3.7-3.7-9.6-3.6-13.2,0-3.6,3.6-3.7,9.6,0,13.2s9.6,3.6,13.2,0,3.7-9.6,0-13.2Z"/>
        </g>
        <g>
          <path class="cls-1" d="M924.4,756.6l-79.5,79.5c-3.7,3.7-9.6,3.6-13.2,0l-44.2-44.2c-3.6-3.6-3.7-9.6,0-13.2l38.4-38.4-8.2-24.7c-.7-2.3,1.1-4.1,3-4.1h34l12.3-12.3c3.7-3.7,9.6-3.6,13.2,0l44.2,44.2c3.6,3.6,3.7,9.6,0,13.2ZM875.8,703.6c-1.2-1.2-3.2-1.2-4.4,0l-13.2,13.2c-.6.6-1.4.9-2.2.9h-31l7.5,22.4c.4,1.1,0,2.4-.8,3.2l-39.7,39.7c-1.2,1.2-1.2,3.2,0,4.4l44.2,44.2c1.2,1.2,3.2,1.2,4.4,0l79.5-79.5c1.2-1.2,1.2-3.2,0-4.4l-44.2-44.2Z"/>
          <path class="cls-1" d="M650.7,809.6l6.7-6.7c-8.2-10.2-8.2-24.9,0-35.1l-4.5-4.5-6.6,6.6c-11,11-28.8,11-39.7,0l-26.5-26.5c-1.2-1.2-1.2-3.2,0-4.4l114.8-114.8c1.2-1.2,3.2-1.2,4.4,0l26.5,26.5c11,11,11,28.8,0,39.7l-6.6,6.6,4.5,4.5c10.2-8.2,24.9-8.2,35.1,0l6.7-6.7c6.1-6.1,16-6.1,22.1,0l17.7,17.7c5.4,5.4,6,13.7,1.9,19.7,2.5,2.9,4.5,6,6,9.3.7,1.6,0,3.4-1.6,4.1-1.6.7-3.4,0-4.1-1.6-1.1-2.5-2.6-4.9-4.5-7.2l-4.4,4.4c2.4,3,4.2,6.6,5.2,10.3.4,1.7-.6,3.4-2.2,3.8-1.7.4-3.4-.6-3.8-2.2-.9-3.6-3-7.1-5.6-9.8l-35.3-35.3c-8.5-8.5-22.4-8.5-30.9,0l-61.8,61.8c-8.5,8.5-8.5,22.4,0,30.9l35.3,35.3c8.5,8.5,22.4,8.5,30.9,0l44.2-44.2c1.2-1.2,3.2-1.2,4.4,0,1.2,1.2,1.2,3.2,0,4.4l-44.2,44.2c-10.2,10.2-26.4,10.9-37.4,2.1l-4.4,4.4c13.5,11.2,33.6,10.5,46.3-2.1l44.2-44.2c1.2-1.2,3.2-1.2,4.4,0,1.2,1.2,1.2,3.2,0,4.4l-44.2,44.2c-15.2,15.2-39.4,15.8-55.3,1.9-6.1,4.1-14.4,3.4-19.7-1.9l-17.7-17.7c-6.1-6.1-6.1-16,0-22.1ZM794.2,736.8l6.6-6.6c3.7-3.7,3.6-9.6,0-13.2l-17.7-17.7c-3.6-3.6-9.6-3.7-13.2,0l-6.6,6.6,30.9,30.9ZM635.6,692.2c3.5,1.7,7.8,1.1,10.6-1.8,2.9-2.9,3.5-7.2,1.8-10.6l-12.5,12.5ZM661.7,763.2l57.4-57.4-4.4-4.4-57.4,57.4,4.4,4.4ZM721.3,686c8.5-8.5,8.5-22.4,0-30.9l-24.3-24.3-44.4,44.4c4,6.1,3.4,14.3-2,19.6s-13.6,6-19.6,2l-44.4,44.4,24.3,24.3c8.5,8.5,22.4,8.5,30.9,0l79.5-79.5ZM672.7,844.9c3.6,3.6,9.6,3.7,13.2,0l6.6-6.6-30.9-30.9-6.6,6.6c-3.7,3.7-3.6,9.6,0,13.2l17.7,17.7Z"/>
          <path class="cls-1" d="M725.7,791.9c6.1,6.1,6.1,16,0,22.1-6.1,6.1-16,6.1-22.1,0s-6.1-16,0-22.1c6.1-6.1,16-6.1,22.1,0ZM708.1,796.4c-3.7,3.7-3.6,9.6,0,13.2,3.6,3.6,9.6,3.7,13.2,0s3.6-9.6,0-13.2-9.6-3.7-13.2,0Z"/>
          <path class="cls-1" d="M769.9,747.8c6.1,6.1,6.1,16,0,22.1-6.1,6.1-16,6.1-22.1,0s-6.1-16,0-22.1c6.1-6.1,16-6.1,22.1,0ZM752.2,765.5c3.6,3.6,9.6,3.7,13.2,0,3.7-3.7,3.6-9.6,0-13.2s-9.6-3.7-13.2,0-3.6,9.6,0,13.2Z"/>
          <path class="cls-1" d="M694.8,765.5l26.5-26.5c1.2-1.2,3.2-1.2,4.4,0,1.2,1.2,1.2,3.2,0,4.4l-26.5,26.5c-1.2,1.2-3.2,1.2-4.4,0-1.2-1.2-1.2-3.2,0-4.4Z"/>
          <path class="cls-1" d="M655.1,699.2c6.1-6.1,16-6.1,22.1,0,6.1,6.1,6.1,16,0,22.1-6.1,6.1-16,6.1-22.1,0-6.1-6.1-6.1-16,0-22.1ZM672.7,716.9c3.7-3.7,3.6-9.6,0-13.2-3.6-3.6-9.6-3.7-13.2,0s-3.6,9.6,0,13.2,9.6,3.7,13.2,0Z"/>
        </g>
        <g>
          <path class="cls-1" d="M243.4,924.4l-79.5-79.5c-3.7-3.7-3.6-9.6,0-13.2l44.2-44.2c3.6-3.6,9.6-3.7,13.2,0l38.4,38.4,24.7-8.2c2.3-.7,4.1,1.1,4.1,3v34l12.3,12.3c3.7,3.7,3.6,9.6,0,13.2l-44.2,44.2c-3.6,3.6-9.6,3.7-13.2,0ZM296.4,875.8c1.2-1.2,1.2-3.2,0-4.4l-13.2-13.2c-.6-.6-.9-1.4-.9-2.2v-31l-22.4,7.5c-1.1.4-2.4,0-3.2-.8l-39.7-39.7c-1.2-1.2-3.2-1.2-4.4,0l-44.2,44.2c-1.2,1.2-1.2,3.2,0,4.4l79.5,79.5c1.2,1.2,3.2,1.2,4.4,0l44.2-44.2Z"/>
          <path class="cls-1" d="M190.4,650.7l6.7,6.7c10.2-8.2,24.9-8.2,35.1,0l4.5-4.5-6.6-6.6c-11-11-11-28.8,0-39.7l26.5-26.5c1.2-1.2,3.2-1.2,4.4,0l114.8,114.8c1.2,1.2,1.2,3.2,0,4.4l-26.5,26.5c-11,11-28.8,11-39.7,0l-6.6-6.6-4.5,4.5c8.2,10.2,8.2,24.9,0,35.1l6.7,6.7c6.1,6.1,6.1,16,0,22.1l-17.7,17.7c-5.4,5.4-13.7,6-19.7,1.9-2.9,2.5-6,4.5-9.3,6-1.6.7-3.4,0-4.1-1.6-.7-1.6,0-3.4,1.6-4.1,2.5-1.1,4.9-2.6,7.2-4.5l-4.4-4.4c-3,2.4-6.6,4.2-10.3,5.2-1.7.4-3.4-.6-3.8-2.2-.4-1.7.6-3.4,2.2-3.8,3.6-.9,7.1-3,9.8-5.6l35.3-35.3c8.5-8.5,8.5-22.4,0-30.9l-61.8-61.8c-8.5-8.5-22.4-8.5-30.9,0l-35.3,35.3c-8.5,8.5-8.5,22.4,0,30.9l44.2,44.2c1.2,1.2,1.2,3.2,0,4.4s-3.2,1.2-4.4,0l-44.2-44.2c-10.2-10.2-10.9-26.4-2.1-37.4l-4.4-4.4c-11.2,13.5-10.5,33.6,2.1,46.3l44.2,44.2c1.2,1.2,1.2,3.2,0,4.4s-3.2,1.2-4.4,0l-44.2-44.2c-15.2-15.2-15.8-39.4-1.9-55.3-4.1-6.1-3.4-14.4,1.9-19.7l17.7-17.7c6.1-6.1,16-6.1,22.1,0ZM263.2,794.2l6.6,6.6c3.7,3.7,9.6,3.6,13.2,0l17.7-17.7c3.6-3.6,3.7-9.6,0-13.2l-6.6-6.6-30.9,30.9ZM307.8,635.6c-1.7,3.5-1.1,7.8,1.8,10.6,2.9,2.9,7.2,3.5,10.6,1.8l-12.5-12.5ZM236.8,661.7l57.4,57.4,4.4-4.4-57.4-57.4-4.4,4.4ZM314,721.3c8.5,8.5,22.4,8.5,30.9,0l24.3-24.3-44.4-44.4c-6.1,4-14.3,3.4-19.6-2-5.3-5.3-6-13.6-2-19.6l-44.4-44.4-24.3,24.3c-8.5,8.5-8.5,22.4,0,30.9l79.5,79.5ZM155.1,672.7c-3.6,3.6-3.7,9.6,0,13.2l6.6,6.6,30.9-30.9-6.6-6.6c-3.7-3.7-9.6-3.6-13.2,0l-17.7,17.7Z"/>
          <path class="cls-1" d="M208.1,725.7c-6.1,6.1-16,6.1-22.1,0-6.1-6.1-6.1-16,0-22.1,6.1-6.1,16-6.1,22.1,0,6.1,6.1,6.1,16,0,22.1ZM203.6,708.1c-3.7-3.7-9.6-3.6-13.2,0-3.6,3.6-3.7,9.6,0,13.2,3.7,3.7,9.6,3.6,13.2,0,3.6-3.6,3.7-9.6,0-13.2Z"/>
          <path class="cls-1" d="M252.2,769.9c-6.1,6.1-16,6.1-22.1,0-6.1-6.1-6.1-16,0-22.1,6.1-6.1,16-6.1,22.1,0,6.1,6.1,6.1,16,0,22.1ZM234.5,752.2c-3.6,3.6-3.7,9.6,0,13.2,3.7,3.7,9.6,3.6,13.2,0s3.7-9.6,0-13.2-9.6-3.6-13.2,0Z"/>
          <path class="cls-1" d="M234.5,694.8l26.5,26.5c1.2,1.2,1.2,3.2,0,4.4s-3.2,1.2-4.4,0l-26.5-26.5c-1.2-1.2-1.2-3.2,0-4.4,1.2-1.2,3.2-1.2,4.4,0Z"/>
          <path class="cls-1" d="M300.8,655.1c6.1,6.1,6.1,16,0,22.1s-16,6.1-22.1,0-6.1-16,0-22.1c6.1-6.1,16-6.1,22.1,0ZM283.1,672.7c3.7,3.7,9.6,3.6,13.2,0,3.6-3.6,3.7-9.6,0-13.2s-9.6-3.6-13.2,0c-3.6,3.6-3.7,9.6,0,13.2Z"/>
        </g>
        <g>
          <path class="cls-1" d="M75.6,243.4l79.5-79.5c3.7-3.7,9.6-3.6,13.2,0l44.2,44.2c3.6,3.6,3.7,9.6,0,13.2l-38.4,38.4,8.2,24.7c.7,2.3-1.1,4.1-3,4.1h-34l-12.3,12.3c-3.7,3.7-9.6,3.6-13.2,0l-44.2-44.2c-3.6-3.6-3.7-9.6,0-13.2ZM124.2,296.4c1.2,1.2,3.2,1.2,4.4,0l13.2-13.2c.6-.6,1.4-.9,2.2-.9h31l-7.5-22.4c-.4-1.1,0-2.4.8-3.2l39.7-39.7c1.2-1.2,1.2-3.2,0-4.4l-44.2-44.2c-1.2-1.2-3.2-1.2-4.4,0l-79.5,79.5c-1.2,1.2-1.2,3.2,0,4.4l44.2,44.2Z"/>
          <path class="cls-1" d="M349.3,190.4l-6.7,6.7c8.2,10.2,8.2,24.9,0,35.1l4.5,4.5,6.6-6.6c11-11,28.8-11,39.7,0l26.5,26.5c1.2,1.2,1.2,3.2,0,4.4l-114.8,114.8c-1.2,1.2-3.2,1.2-4.4,0l-26.5-26.5c-11-11-11-28.8,0-39.7l6.6-6.6-4.5-4.5c-10.2,8.2-24.9,8.2-35.1,0l-6.7,6.7c-6.1,6.1-16,6.1-22.1,0l-17.7-17.7c-5.4-5.4-6-13.7-1.9-19.7-2.5-2.9-4.5-6-6-9.3-.7-1.6,0-3.4,1.6-4.1,1.6-.7,3.4,0,4.1,1.6,1.1,2.5,2.6,4.9,4.5,7.2l4.4-4.4c-2.4-3-4.2-6.6-5.2-10.3-.4-1.7.6-3.4,2.2-3.8,1.7-.4,3.4.6,3.8,2.2.9,3.6,3,7.1,5.6,9.8l35.3,35.3c8.5,8.5,22.4,8.5,30.9,0l61.8-61.8c8.5-8.5,8.5-22.4,0-30.9l-35.3-35.3c-8.5-8.5-22.4-8.5-30.9,0l-44.2,44.2c-1.2,1.2-3.2,1.2-4.4,0-1.2-1.2-1.2-3.2,0-4.4l44.2-44.2c10.2-10.2,26.4-10.9,37.4-2.1l4.4-4.4c-13.5-11.2-33.6-10.5-46.3,2.1l-44.2,44.2c-1.2,1.2-3.2,1.2-4.4,0s-1.2-3.2,0-4.4l44.2-44.2c15.2-15.2,39.4-15.8,55.3-1.9,6.1-4.1,14.4-3.4,19.7,1.9l17.7,17.7c6.1,6.1,6.1,16,0,22.1ZM205.8,263.2l-6.6,6.6c-3.7,3.7-3.6,9.6,0,13.2l17.7,17.7c3.6,3.6,9.6,3.7,13.2,0l6.6-6.6-30.9-30.9ZM364.4,307.8c-3.5-1.7-7.8-1.1-10.6,1.8-2.9,2.9-3.5,7.2-1.8,10.6l12.5-12.5ZM338.3,236.8l-57.4,57.4,4.4,4.4,57.4-57.4-4.4-4.4ZM278.7,314c-8.5,8.5-8.5,22.4,0,30.9l24.3,24.3,44.4-44.4c-4-6.1-3.4-14.3,2-19.6s13.6-6,19.6-2l44.4-44.4-24.3-24.3c-8.5-8.5-22.4-8.5-30.9,0l-79.5,79.5ZM327.3,155.1c-3.6-3.6-9.6-3.7-13.2,0l-6.6,6.6,30.9,30.9,6.6-6.6c3.7-3.7,3.6-9.6,0-13.2l-17.7-17.7Z"/>
          <path class="cls-1" d="M274.3,208.1c-6.1-6.1-6.1-16,0-22.1,6.1-6.1,16-6.1,22.1,0,6.1,6.1,6.1,16,0,22.1-6.1,6.1-16,6.1-22.1,0ZM291.9,203.6c3.7-3.7,3.6-9.6,0-13.2-3.6-3.6-9.6-3.7-13.2,0s-3.6,9.6,0,13.2,9.6,3.7,13.2,0Z"/>
          <path class="cls-1" d="M230.1,252.2c-6.1-6.1-6.1-16,0-22.1,6.1-6.1,16-6.1,22.1,0,6.1,6.1,6.1,16,0,22.1-6.1,6.1-16,6.1-22.1,0ZM247.8,234.5c-3.6-3.6-9.6-3.7-13.2,0-3.7,3.7-3.6,9.6,0,13.2s9.6,3.7,13.2,0,3.6-9.6,0-13.2Z"/>
          <path class="cls-1" d="M305.2,234.5l-26.5,26.5c-1.2,1.2-3.2,1.2-4.4,0-1.2-1.2-1.2-3.2,0-4.4l26.5-26.5c1.2-1.2,3.2-1.2,4.4,0,1.2,1.2,1.2,3.2,0,4.4Z"/>
          <path class="cls-1" d="M344.9,300.8c-6.1,6.1-16,6.1-22.1,0-6.1-6.1-6.1-16,0-22.1s16-6.1,22.1,0c6.1,6.1,6.1,16,0,22.1ZM327.3,283.1c-3.7,3.7-3.6,9.6,0,13.2,3.6,3.6,9.6,3.7,13.2,0,3.7-3.7,3.6-9.6,0-13.2s-9.6-3.7-13.2,0Z"/>
        </g>
        <g>
          <path class="cls-1" d="M993.8,872h-112.4c-5.2,0-9.4,4.2-9.4,9.4v62.4c0,5.2,4.2,9.4,9.4,9.4h17.4l24.1,24.1c1.3,1.4,3.9,1.3,5-.8l11.6-23.2h54.3c2.4,0,4.6-.9,6.2-2.4v-76.4c-1.7-1.5-3.8-2.4-6.2-2.4ZM993.8,946.9h-56.2c-1.2,0-2.3.7-2.8,1.7l-10.5,21.1-21.9-21.9c-.6-.6-1.4-.9-2.2-.9h-18.7c-1.7,0-3.1-1.4-3.1-3.1v-62.4c0-1.7,1.4-3.1,3.1-3.1h112.4c1.7,0,3.1,1.4,3.1,3.1v62.4c0,1.7-1.4,3.1-3.1,3.1Z"/>
          <path class="cls-1" d="M940.7,987.5c0-5.2,4.2-9.4,9.4-9.4h9.4v21.9h6.2v-25c0-3.8,1-7.7,2.9-10.9.9-1.5.4-3.4-1.1-4.3-1.5-.9-3.4-.4-4.3,1.1-1.9,3.3-3.2,7.1-3.6,10.9h-6.3c.3-2.9.9-5.7,1.9-8.2.6-1.6-.2-3.4-1.8-4-1.6-.6-3.4.2-4,1.8-1.3,3.4-2.1,7-2.4,10.8-7.2,1.4-12.6,7.7-12.6,15.3v12.5h6.2v-12.5Z"/>
          <path class="cls-1" d="M1000,996.9c-5.2,0-9.4-4.2-9.4-9.4s4.2-9.4,9.4-9.4v-6.2c-8.6,0-15.6,7-15.6,15.6s2.5,9.6,6.3,12.5h9.4v-3.1Z"/>
        </g>
        <g>
          <path class="cls-1" d="M381.4,872h112.4c5.2,0,9.4,4.2,9.4,9.4v62.4c0,5.2-4.2,9.4-9.4,9.4h-54.3l-11.6,23.2c-1.1,2.1-3.7,2.2-5,.8l-24.1-24.1h-17.4c-5.2,0-9.4-4.2-9.4-9.4v-62.4c0-5.2,4.2-9.4,9.4-9.4ZM378.2,943.8c0,1.7,1.4,3.1,3.1,3.1h18.7c.8,0,1.6.3,2.2.9l21.9,21.9,10.5-21.1c.5-1.1,1.6-1.7,2.8-1.7h56.2c1.7,0,3.1-1.4,3.1-3.1v-62.4c0-1.7-1.4-3.1-3.1-3.1h-112.4c-1.7,0-3.1,1.4-3.1,3.1v62.4Z"/>
          <path class="cls-1" d="M615.4,972.2c-1.5-21.1-19-37.8-40.5-37.8h-62.4c-1.7,0-3.1,1.4-3.1,3.1s1.4,3.1,3.1,3.1h62.4c17.9,0,32.6,13.7,34.2,31.2h-6.3c-1.6-14-13.5-25-27.9-25h-62.4c-1.7,0-3.1,1.4-3.1,3.1s1.4,3.1,3.1,3.1h62.4c12,0,21.9,9.8,21.9,21.9v25h6.2v-21.9h9.4c5.2,0,9.4,4.2,9.4,9.4v12.5h6.2v-12.5c0-7.6-5.4-13.9-12.6-15.3Z"/>
          <path class="cls-1" d="M440.7,987.5c0-5.2,4.2-9.4,9.4-9.4h9.4v21.9h6.2v-25c0-3.8,1-7.7,2.9-10.9.9-1.5.4-3.4-1.1-4.3-1.5-.9-3.4-.4-4.3,1.1-1.9,3.3-3.2,7.1-3.6,10.9h-6.3c.3-2.9.9-5.7,1.9-8.2.6-1.6-.2-3.4-1.8-4-1.6-.6-3.4.2-4,1.8-1.3,3.4-2.1,7-2.4,10.8-7.2,1.4-12.6,7.7-12.6,15.3v12.5h6.2v-12.5Z"/>
          <path class="cls-1" d="M578,987.5c0-8.6-7-15.6-15.6-15.6s-15.6,7-15.6,15.6,2.5,9.6,6.3,12.5h18.7c3.8-2.8,6.3-7.4,6.3-12.5ZM562.4,996.9c-5.2,0-9.4-4.2-9.4-9.4s4.2-9.4,9.4-9.4,9.4,4.2,9.4,9.4-4.2,9.4-9.4,9.4Z"/>
          <path class="cls-1" d="M515.6,987.5c0-8.6-7-15.6-15.6-15.6s-15.6,7-15.6,15.6,2.5,9.6,6.3,12.5h18.7c3.8-2.8,6.3-7.4,6.3-12.5ZM500,996.9c-5.2,0-9.4-4.2-9.4-9.4s4.2-9.4,9.4-9.4,9.4,4.2,9.4,9.4-4.2,9.4-9.4,9.4Z"/>
        </g>
        <g>
          <path class="cls-1" d="M3.1,943.8v-62.4c0-2.8-1.2-5.2-3.1-7v76.4c1.9-1.7,3.1-4.2,3.1-7Z"/>
          <path class="cls-1" d="M115.4,972.2c-1.5-21.1-19-37.8-40.5-37.8H12.5c-1.7,0-3.1,1.4-3.1,3.1s1.4,3.1,3.1,3.1h62.4c17.9,0,32.6,13.7,34.2,31.2h-6.3c-1.6-14-13.5-25-27.9-25H12.5c-1.7,0-3.1,1.4-3.1,3.1s1.4,3.1,3.1,3.1h62.4c12,0,21.9,9.8,21.9,21.9v25h6.2v-21.9h9.4c5.2,0,9.4,4.2,9.4,9.4v12.5h6.2v-12.5c0-7.6-5.4-13.9-12.6-15.3Z"/>
          <path class="cls-1" d="M78,987.5c0-8.6-7-15.6-15.6-15.6s-15.6,7-15.6,15.6,2.5,9.6,6.3,12.5h18.7c3.8-2.8,6.3-7.4,6.3-12.5ZM62.4,996.9c-5.2,0-9.4-4.2-9.4-9.4s4.2-9.4,9.4-9.4,9.4,4.2,9.4,9.4-4.2,9.4-9.4,9.4Z"/>
          <path class="cls-1" d="M15.6,987.5c0-8.6-7-15.6-15.6-15.6v6.2c5.2,0,9.4,4.2,9.4,9.4s-4.2,9.4-9.4,9.4v3.1h9.4c3.8-2.8,6.3-7.4,6.3-12.5Z"/>
        </g>
        <g>
          <path class="cls-1" d="M993.8,372h-112.4c-5.2,0-9.4,4.2-9.4,9.4v62.4c0,5.2,4.2,9.4,9.4,9.4h17.4l24.1,24.1c1.3,1.4,3.9,1.3,5-.8l11.6-23.2h54.3c2.4,0,4.6-.9,6.2-2.4v-76.4c-1.7-1.5-3.8-2.4-6.2-2.4ZM993.8,446.9h-56.2c-1.2,0-2.3.7-2.8,1.7l-10.5,21.1-21.9-21.9c-.6-.6-1.4-.9-2.2-.9h-18.7c-1.7,0-3.1-1.4-3.1-3.1v-62.4c0-1.7,1.4-3.1,3.1-3.1h112.4c1.7,0,3.1,1.4,3.1,3.1v62.4c0,1.7-1.4,3.1-3.1,3.1Z"/>
          <path class="cls-1" d="M953.2,621.8v-34.3c0-12,9.8-21.9,21.9-21.9h25v-6.2h-9.4v-6.2h9.4v-6.2h-12.5c-12,0-21.9-9.8-21.9-21.9v-50c0-3.8,1-7.7,2.9-10.9.9-1.5.4-3.4-1.1-4.3-1.5-.9-3.4-.4-4.3,1.1-1.9,3.3-3.2,7.1-3.6,10.9h-6.3c.3-2.9.9-5.7,1.9-8.2.6-1.6-.2-3.4-1.8-4-1.6-.6-3.4.2-4,1.8-1.3,3.4-2.1,7-2.4,10.8-7.2,1.4-12.6,7.7-12.6,15.3v25c0,8.6,7,15.6,15.6,15.6h9.5c1.4,13,11.8,23.4,24.8,24.8v6.4h-9.4c-15.5,0-28.1,12.6-28.1,28.1v37.5c0,1.7,1.4,3.1,3.1,3.1h50v-6.2h-46.8ZM959.4,521.9h-9.4c-5.2,0-9.4-4.2-9.4-9.4v-25c0-5.2,4.2-9.4,9.4-9.4h9.4v43.7Z"/>
          <path class="cls-1" d="M990.6,487.5c0-5.2,4.2-9.4,9.4-9.4v-6.2c-8.6,0-15.6,7-15.6,15.6s7,15.6,15.6,15.6v-6.2c-5.2,0-9.4-4.2-9.4-9.4Z"/>
        </g>
        <g>
          <path class="cls-1" d="M381.4,372h112.4c5.2,0,9.4,4.2,9.4,9.4v62.4c0,5.2-4.2,9.4-9.4,9.4h-54.3l-11.6,23.2c-1.1,2.1-3.7,2.2-5,.8l-24.1-24.1h-17.4c-5.2,0-9.4-4.2-9.4-9.4v-62.4c0-5.2,4.2-9.4,9.4-9.4ZM378.2,443.8c0,1.7,1.4,3.1,3.1,3.1h18.7c.8,0,1.6.3,2.2.9l21.9,21.9,10.5-21.1c.5-1.1,1.6-1.7,2.8-1.7h56.2c1.7,0,3.1-1.4,3.1-3.1v-62.4c0-1.7-1.4-3.1-3.1-3.1h-112.4c-1.7,0-3.1,1.4-3.1,3.1v62.4Z"/>
          <path class="cls-1" d="M612.4,528.1h-9.5c-1.4,13-11.8,23.4-24.8,24.8v6.4h9.4c15.5,0,28.1,12.6,28.1,28.1v37.5c0,1.7-1.4,3.1-3.1,3.1h-162.3c-1.7,0-3.1-1.4-3.1-3.1v-37.5c0-15.5,12.6-28.1,28.1-28.1h9.4v-6.4c-13-1.4-23.4-11.8-24.8-24.8h-9.5c-8.6,0-15.6-7-15.6-15.6v-25c0-7.6,5.4-13.9,12.6-15.3.3-3.8,1-7.4,2.4-10.8.6-1.6,2.4-2.4,4-1.8,1.6.6,2.4,2.4,1.8,4-1,2.6-1.6,5.3-1.9,8.2h6.3c.4-3.9,1.7-7.6,3.6-10.9.9-1.5,2.8-2,4.3-1.1,1.5.9,2,2.8,1.1,4.3-1.9,3.2-2.9,7.1-2.9,10.9v50c0,12,9.8,21.9,21.9,21.9h87.4c12,0,21.9-9.8,21.9-21.9v-50c0-12-9.8-21.9-21.9-21.9h-62.4c-1.7,0-3.1-1.4-3.1-3.1s1.4-3.1,3.1-3.1h62.4c14.4,0,26.4,11,27.9,25h6.3c-1.6-17.5-16.3-31.2-34.2-31.2h-62.4c-1.7,0-3.1-1.4-3.1-3.1s1.4-3.1,3.1-3.1h62.4c21.4,0,39,16.7,40.5,37.8,7.2,1.4,12.6,7.7,12.6,15.3v25c0,8.6-7,15.6-15.6,15.6ZM459.4,478.1h-9.4c-5.2,0-9.4,4.2-9.4,9.4v25c0,5.2,4.2,9.4,9.4,9.4h9.4v-43.7ZM540,621.8c-1.3-3.6-4.7-6.2-8.8-6.2s-7.5,2.6-8.8,6.2h17.6ZM571.8,553.1h-81.2v6.2h81.2v-6.2ZM475,565.6c-12,0-21.9,9.8-21.9,21.9v34.3h62.8c1.5-7.1,7.7-12.5,15.3-12.5s13.8,5.4,15.3,12.5h62.8v-34.3c0-12-9.8-21.9-21.9-21.9h-112.4ZM621.8,487.5c0-5.2-4.2-9.4-9.4-9.4h-9.4v43.7h9.4c5.2,0,9.4-4.2,9.4-9.4v-25Z"/>
          <path class="cls-1" d="M546.8,487.5c0-8.6,7-15.6,15.6-15.6s15.6,7,15.6,15.6-7,15.6-15.6,15.6-15.6-7-15.6-15.6ZM562.4,496.9c5.2,0,9.4-4.2,9.4-9.4s-4.2-9.4-9.4-9.4-9.4,4.2-9.4,9.4,4.2,9.4,9.4,9.4Z"/>
          <path class="cls-1" d="M484.4,487.5c0-8.6,7-15.6,15.6-15.6s15.6,7,15.6,15.6-7,15.6-15.6,15.6-15.6-7-15.6-15.6ZM509.4,487.5c0-5.2-4.2-9.4-9.4-9.4s-9.4,4.2-9.4,9.4,4.2,9.4,9.4,9.4,9.4-4.2,9.4-9.4Z"/>
          <path class="cls-1" d="M550,528.1h-37.5c-1.7,0-3.1-1.4-3.1-3.1s1.4-3.1,3.1-3.1h37.5c1.7,0,3.1,1.4,3.1,3.1s-1.4,3.1-3.1,3.1Z"/>
          <path class="cls-1" d="M531.2,603c-8.6,0-15.6-7-15.6-15.6s7-15.6,15.6-15.6,15.6,7,15.6,15.6-7,15.6-15.6,15.6ZM531.2,578c-5.2,0-9.4,4.2-9.4,9.4s4.2,9.4,9.4,9.4,9.4-4.2,9.4-9.4-4.2-9.4-9.4-9.4Z"/>
        </g>
        <g>
          <path class="cls-1" d="M3.1,443.8v-62.4c0-2.8-1.2-5.2-3.1-7v76.4c1.9-1.7,3.1-4.2,3.1-7Z"/>
          <path class="cls-1" d="M115.5,624.9v-37.5c0-15.5-12.6-28.1-28.1-28.1h-9.4v-6.4c13-1.4,23.4-11.8,24.8-24.8h9.5c8.6,0,15.6-7,15.6-15.6v-25c0-7.6-5.4-13.9-12.6-15.3-1.5-21.1-19-37.8-40.5-37.8H12.5c-1.7,0-3.1,1.4-3.1,3.1s1.4,3.1,3.1,3.1h62.4c17.9,0,32.6,13.7,34.2,31.2h-6.3c-1.6-14-13.5-25-27.9-25H12.5c-1.7,0-3.1,1.4-3.1,3.1s1.4,3.1,3.1,3.1h62.4c12,0,21.9,9.8,21.9,21.9v50c0,12-9.8,21.9-21.9,21.9H0v6.2h71.8v6.2H0v6.2h87.4c12,0,21.9,9.8,21.9,21.9v34.3h-62.8c-1.5-7.1-7.7-12.5-15.3-12.5s-13.8,5.4-15.3,12.5H0v6.2h112.4c1.7,0,3.1-1.4,3.1-3.1ZM103,478.1h9.4c5.2,0,9.4,4.2,9.4,9.4v25c0,5.2-4.2,9.4-9.4,9.4h-9.4v-43.7ZM22.4,621.8c1.3-3.6,4.7-6.2,8.8-6.2s7.5,2.6,8.8,6.2h-17.6Z"/>
          <path class="cls-1" d="M46.8,487.5c0-8.6,7-15.6,15.6-15.6s15.6,7,15.6,15.6-7,15.6-15.6,15.6-15.6-7-15.6-15.6ZM62.4,496.9c5.2,0,9.4-4.2,9.4-9.4s-4.2-9.4-9.4-9.4-9.4,4.2-9.4,9.4,4.2,9.4,9.4,9.4Z"/>
          <path class="cls-1" d="M15.6,487.5c0-8.6-7-15.6-15.6-15.6v6.2c5.2,0,9.4,4.2,9.4,9.4s-4.2,9.4-9.4,9.4v6.2c8.6,0,15.6-7,15.6-15.6Z"/>
          <path class="cls-1" d="M50,528.1H12.5c-1.7,0-3.1-1.4-3.1-3.1s1.4-3.1,3.1-3.1h37.5c1.7,0,3.1,1.4,3.1,3.1s-1.4,3.1-3.1,3.1Z"/>
          <path class="cls-1" d="M31.2,603c-8.6,0-15.6-7-15.6-15.6s7-15.6,15.6-15.6,15.6,7,15.6,15.6-7,15.6-15.6,15.6ZM31.2,578c-5.2,0-9.4,4.2-9.4,9.4s4.2,9.4,9.4,9.4,9.4-4.2,9.4-9.4-4.2-9.4-9.4-9.4Z"/>
        </g>
        <g>
          <path class="cls-1" d="M953.2,121.8v-34.3c0-12,9.8-21.9,21.9-21.9h25v-6.2h-9.4v-6.2h9.4v-6.2h-12.5c-12,0-21.9-9.8-21.9-21.9V0h-6.2v21.9h-9.4c-5.2,0-9.4-4.2-9.4-9.4V0h-6.2v12.5c0,8.6,7,15.6,15.6,15.6h9.5c1.4,13,11.8,23.4,24.8,24.8v6.4h-9.4c-15.5,0-28.1,12.6-28.1,28.1v37.5c0,1.7,1.4,3.1,3.1,3.1h50v-6.2h-46.8Z"/>
          <path class="cls-1" d="M990.6,0c2.6,2,5.8,3.1,9.4,3.1V0h-9.4Z"/>
        </g>
        <g>
          <path class="cls-1" d="M450,28.1h9.5c1.4,13,11.8,23.4,24.8,24.8v6.4h-9.4c-15.5,0-28.1,12.6-28.1,28.1v37.5c0,1.7,1.4,3.1,3.1,3.1h162.3c1.7,0,3.1-1.4,3.1-3.1v-37.5c0-15.5-12.6-28.1-28.1-28.1h-9.4v-6.4c13-1.4,23.4-11.8,24.8-24.8h9.5c8.6,0,15.6-7,15.6-15.6V0h-6.2v12.5c0,5.2-4.2,9.4-9.4,9.4h-9.4V0h-6.2v25c0,12-9.8,21.9-21.9,21.9h-87.4c-12,0-21.9-9.8-21.9-21.9V0h-6.2v21.9h-9.4c-5.2,0-9.4-4.2-9.4-9.4V0h-6.2v12.5c0,8.6,7,15.6,15.6,15.6ZM522.4,121.8c1.3-3.6,4.7-6.2,8.8-6.2s7.5,2.6,8.8,6.2h-17.6ZM490.6,53.1h81.2v6.2h-81.2v-6.2ZM587.4,65.6c12,0,21.9,9.8,21.9,21.9v34.3h-62.8c-1.5-7.1-7.7-12.5-15.3-12.5s-13.8,5.4-15.3,12.5h-62.8v-34.3c0-12,9.8-21.9,21.9-21.9h112.4Z"/>
          <path class="cls-1" d="M571.8,0h-18.7c2.6,2,5.8,3.1,9.4,3.1s6.7-1.2,9.4-3.1Z"/>
          <path class="cls-1" d="M509.4,0h-18.7c2.6,2,5.8,3.1,9.4,3.1s6.7-1.2,9.4-3.1Z"/>
          <path class="cls-1" d="M550,28.1h-37.5c-1.7,0-3.1-1.4-3.1-3.1s1.4-3.1,3.1-3.1h37.5c1.7,0,3.1,1.4,3.1,3.1s-1.4,3.1-3.1,3.1Z"/>
          <path class="cls-1" d="M531.2,103c-8.6,0-15.6-7-15.6-15.6s7-15.6,15.6-15.6,15.6,7,15.6,15.6-7,15.6-15.6,15.6ZM531.2,78c-5.2,0-9.4,4.2-9.4,9.4s4.2,9.4,9.4,9.4,9.4-4.2,9.4-9.4-4.2-9.4-9.4-9.4Z"/>
        </g>
        <g>
          <path class="cls-1" d="M115.5,124.9v-37.5c0-15.5-12.6-28.1-28.1-28.1h-9.4v-6.4c13-1.4,23.4-11.8,24.8-24.8h9.5c8.6,0,15.6-7,15.6-15.6V0h-6.2v12.5c0,5.2-4.2,9.4-9.4,9.4h-9.4V0h-6.2v25c0,12-9.8,21.9-21.9,21.9H0v6.2h71.8v6.2H0v6.2h87.4c12,0,21.9,9.8,21.9,21.9v34.3h-62.8c-1.5-7.1-7.7-12.5-15.3-12.5s-13.8,5.4-15.3,12.5H0v6.2h112.4c1.7,0,3.1-1.4,3.1-3.1ZM22.4,121.8c1.3-3.6,4.7-6.2,8.8-6.2s7.5,2.6,8.8,6.2h-17.6Z"/>
          <path class="cls-1" d="M71.8,0h-18.7c2.6,2,5.8,3.1,9.4,3.1s6.7-1.2,9.4-3.1Z"/>
          <path class="cls-1" d="M0,0v3.1c3.5,0,6.7-1.2,9.4-3.1H0Z"/>
          <path class="cls-1" d="M50,28.1H12.5c-1.7,0-3.1-1.4-3.1-3.1s1.4-3.1,3.1-3.1h37.5c1.7,0,3.1,1.4,3.1,3.1s-1.4,3.1-3.1,3.1Z"/>
          <path class="cls-1" d="M31.2,103c-8.6,0-15.6-7-15.6-15.6s7-15.6,15.6-15.6,15.6,7,15.6,15.6-7,15.6-15.6,15.6ZM31.2,78c-5.2,0-9.4,4.2-9.4,9.4s4.2,9.4,9.4,9.4,9.4-4.2,9.4-9.4-4.2-9.4-9.4-9.4Z"/>
        </g>
      </g>
      <g>
        <g>
          <path class="cls-1" d="M756.6,1075.6l79.5,79.5c3.7,3.7,3.6,9.6,0,13.2l-44.2,44.2c-3.6,3.6-9.6,3.7-13.2,0l-38.4-38.4-24.7,8.2c-2.3.7-4.1-1.1-4.1-3v-34l-12.3-12.3c-3.7-3.7-3.6-9.6,0-13.2l44.2-44.2c3.6-3.6,9.6-3.7,13.2,0ZM703.6,1124.2c-1.2,1.2-1.2,3.2,0,4.4l13.2,13.2c.6.6.9,1.4.9,2.2v31l22.4-7.5c1.1-.4,2.4,0,3.2.8l39.7,39.7c1.2,1.2,3.2,1.2,4.4,0l44.2-44.2c1.2-1.2,1.2-3.2,0-4.4l-79.5-79.5c-1.2-1.2-3.2-1.2-4.4,0l-44.2,44.2Z"/>
          <path class="cls-1" d="M809.6,1349.3l-6.7-6.7c-10.2,8.2-24.9,8.2-35.1,0l-4.5,4.5,6.6,6.6c11,11,11,28.8,0,39.7l-26.5,26.5c-1.2,1.2-3.2,1.2-4.4,0l-114.8-114.8c-1.2-1.2-1.2-3.2,0-4.4l26.5-26.5c11-11,28.8-11,39.7,0l6.6,6.6,4.5-4.5c-8.2-10.2-8.2-24.9,0-35.1l-6.7-6.7c-6.1-6.1-6.1-16,0-22.1l17.7-17.7c5.4-5.4,13.7-6,19.7-1.9,2.9-2.5,6-4.5,9.3-6,1.6-.7,3.4,0,4.1,1.6.7,1.6,0,3.4-1.6,4.1-2.5,1.1-4.9,2.6-7.2,4.5l4.4,4.4c3-2.4,6.6-4.2,10.3-5.2,1.7-.4,3.4.6,3.8,2.2.4,1.7-.6,3.4-2.2,3.8-3.6.9-7.1,3-9.8,5.6l-35.3,35.3c-8.5,8.5-8.5,22.4,0,30.9l61.8,61.8c8.5,8.5,22.4,8.5,30.9,0l35.3-35.3c8.5-8.5,8.5-22.4,0-30.9l-44.2-44.2c-1.2-1.2-1.2-3.2,0-4.4s3.2-1.2,4.4,0l44.2,44.2c10.2,10.2,10.9,26.4,2.1,37.4l4.4,4.4c11.2-13.5,10.5-33.6-2.1-46.3l-44.2-44.2c-1.2-1.2-1.2-3.2,0-4.4,1.2-1.2,3.2-1.2,4.4,0l44.2,44.2c15.2,15.2,15.8,39.4,1.9,55.3,4.1,6.1,3.4,14.4-1.9,19.7l-17.7,17.7c-6.1,6.1-16,6.1-22.1,0ZM736.8,1205.8l-6.6-6.6c-3.7-3.7-9.6-3.6-13.2,0l-17.7,17.7c-3.6,3.6-3.7,9.6,0,13.2l6.6,6.6,30.9-30.9ZM692.2,1364.4c1.7-3.5,1.1-7.8-1.8-10.6-2.9-2.9-7.2-3.5-10.6-1.8l12.5,12.5ZM763.2,1338.3l-57.4-57.4-4.4,4.4,57.4,57.4,4.4-4.4ZM686,1278.7c-8.5-8.5-22.4-8.5-30.9,0l-24.3,24.3,44.4,44.4c6.1-4,14.3-3.4,19.6,2,5.3,5.3,6,13.6,2,19.6l44.4,44.4,24.3-24.3c8.5-8.5,8.5-22.4,0-30.9l-79.5-79.5ZM844.9,1327.3c3.6-3.6,3.7-9.6,0-13.2l-6.6-6.6-30.9,30.9,6.6,6.6c3.7,3.7,9.6,3.6,13.2,0l17.7-17.7Z"/>
          <path class="cls-1" d="M791.9,1274.3c6.1-6.1,16-6.1,22.1,0,6.1,6.1,6.1,16,0,22.1-6.1,6.1-16,6.1-22.1,0-6.1-6.1-6.1-16,0-22.1ZM796.4,1291.9c3.7,3.7,9.6,3.6,13.2,0,3.6-3.6,3.7-9.6,0-13.2-3.7-3.7-9.6-3.6-13.2,0-3.6,3.6-3.7,9.6,0,13.2Z"/>
          <path class="cls-1" d="M747.8,1230.1c6.1-6.1,16-6.1,22.1,0,6.1,6.1,6.1,16,0,22.1-6.1,6.1-16,6.1-22.1,0-6.1-6.1-6.1-16,0-22.1ZM765.5,1247.8c3.6-3.6,3.7-9.6,0-13.2-3.7-3.7-9.6-3.6-13.2,0s-3.7,9.6,0,13.2c3.7,3.7,9.6,3.6,13.2,0Z"/>
          <path class="cls-1" d="M765.5,1305.2l-26.5-26.5c-1.2-1.2-1.2-3.2,0-4.4s3.2-1.2,4.4,0l26.5,26.5c1.2,1.2,1.2,3.2,0,4.4-1.2,1.2-3.2,1.2-4.4,0Z"/>
          <path class="cls-1" d="M699.2,1344.9c-6.1-6.1-6.1-16,0-22.1,6.1-6.1,16-6.1,22.1,0,6.1,6.1,6.1,16,0,22.1-6.1,6.1-16,6.1-22.1,0ZM716.9,1327.3c-3.7-3.7-9.6-3.6-13.2,0-3.6,3.6-3.7,9.6,0,13.2,3.7,3.7,9.6,3.6,13.2,0s3.7-9.6,0-13.2Z"/>
        </g>
        <g>
          <path class="cls-1" d="M924.4,1756.6l-79.5,79.5c-3.7,3.7-9.6,3.6-13.2,0l-44.2-44.2c-3.6-3.6-3.7-9.6,0-13.2l38.4-38.4-8.2-24.7c-.7-2.3,1.1-4.1,3-4.1h34l12.3-12.3c3.7-3.7,9.6-3.6,13.2,0l44.2,44.2c3.6,3.6,3.7,9.6,0,13.2ZM875.8,1703.6c-1.2-1.2-3.2-1.2-4.4,0l-13.2,13.2c-.6.6-1.4.9-2.2.9h-31l7.5,22.4c.4,1.1,0,2.4-.8,3.2l-39.7,39.7c-1.2,1.2-1.2,3.2,0,4.4l44.2,44.2c1.2,1.2,3.2,1.2,4.4,0l79.5-79.5c1.2-1.2,1.2-3.2,0-4.4l-44.2-44.2Z"/>
          <path class="cls-1" d="M650.7,1809.6l6.7-6.7c-8.2-10.2-8.2-24.9,0-35.1l-4.5-4.5-6.6,6.6c-11,11-28.8,11-39.7,0l-26.5-26.5c-1.2-1.2-1.2-3.2,0-4.4l114.8-114.8c1.2-1.2,3.2-1.2,4.4,0l26.5,26.5c11,11,11,28.8,0,39.7l-6.6,6.6,4.5,4.5c10.2-8.2,24.9-8.2,35.1,0l6.7-6.7c6.1-6.1,16-6.1,22.1,0l17.7,17.7c5.4,5.4,6,13.7,1.9,19.7,2.5,2.9,4.5,6,6,9.3.7,1.6,0,3.4-1.6,4.1-1.6.7-3.4,0-4.1-1.6-1.1-2.5-2.6-4.9-4.5-7.2l-4.4,4.4c2.4,3,4.2,6.6,5.2,10.3.4,1.7-.6,3.4-2.2,3.8-1.7.4-3.4-.6-3.8-2.2-.9-3.6-3-7.1-5.6-9.8l-35.3-35.3c-8.5-8.5-22.4-8.5-30.9,0l-61.8,61.8c-8.5,8.5-8.5,22.4,0,30.9l35.3,35.3c8.5,8.5,22.4,8.5,30.9,0l44.2-44.2c1.2-1.2,3.2-1.2,4.4,0,1.2,1.2,1.2,3.2,0,4.4l-44.2,44.2c-10.2,10.2-26.4,10.9-37.4,2.1l-4.4,4.4c13.5,11.2,33.6,10.5,46.3-2.1l44.2-44.2c1.2-1.2,3.2-1.2,4.4,0,1.2,1.2,1.2,3.2,0,4.4l-44.2,44.2c-15.2,15.2-39.4,15.8-55.3,1.9-6.1,4.1-14.4,3.4-19.7-1.9l-17.7-17.7c-6.1-6.1-6.1-16,0-22.1ZM794.2,1736.8l6.6-6.6c3.7-3.7,3.6-9.6,0-13.2l-17.7-17.7c-3.6-3.6-9.6-3.7-13.2,0l-6.6,6.6,30.9,30.9ZM635.6,1692.2c3.5,1.7,7.8,1.1,10.6-1.8,2.9-2.9,3.5-7.2,1.8-10.6l-12.5,12.5ZM661.7,1763.2l57.4-57.4-4.4-4.4-57.4,57.4,4.4,4.4ZM721.3,1686c8.5-8.5,8.5-22.4,0-30.9l-24.3-24.3-44.4,44.4c4,6.1,3.4,14.3-2,19.6-5.3,5.3-13.6,6-19.6,2l-44.4,44.4,24.3,24.3c8.5,8.5,22.4,8.5,30.9,0l79.5-79.5ZM672.7,1844.9c3.6,3.6,9.6,3.7,13.2,0l6.6-6.6-30.9-30.9-6.6,6.6c-3.7,3.7-3.6,9.6,0,13.2l17.7,17.7Z"/>
          <path class="cls-1" d="M725.7,1791.9c6.1,6.1,6.1,16,0,22.1-6.1,6.1-16,6.1-22.1,0s-6.1-16,0-22.1c6.1-6.1,16-6.1,22.1,0ZM708.1,1796.4c-3.7,3.7-3.6,9.6,0,13.2,3.6,3.6,9.6,3.7,13.2,0s3.6-9.6,0-13.2-9.6-3.7-13.2,0Z"/>
          <path class="cls-1" d="M769.9,1747.8c6.1,6.1,6.1,16,0,22.1-6.1,6.1-16,6.1-22.1,0-6.1-6.1-6.1-16,0-22.1,6.1-6.1,16-6.1,22.1,0ZM752.2,1765.5c3.6,3.6,9.6,3.7,13.2,0,3.7-3.7,3.6-9.6,0-13.2s-9.6-3.7-13.2,0-3.6,9.6,0,13.2Z"/>
          <path class="cls-1" d="M694.8,1765.5l26.5-26.5c1.2-1.2,3.2-1.2,4.4,0,1.2,1.2,1.2,3.2,0,4.4l-26.5,26.5c-1.2,1.2-3.2,1.2-4.4,0-1.2-1.2-1.2-3.2,0-4.4Z"/>
          <path class="cls-1" d="M655.1,1699.2c6.1-6.1,16-6.1,22.1,0,6.1,6.1,6.1,16,0,22.1s-16,6.1-22.1,0c-6.1-6.1-6.1-16,0-22.1ZM672.7,1716.9c3.7-3.7,3.6-9.6,0-13.2-3.6-3.6-9.6-3.7-13.2,0s-3.6,9.6,0,13.2,9.6,3.7,13.2,0Z"/>
        </g>
        <g>
          <path class="cls-1" d="M243.4,1924.4l-79.5-79.5c-3.7-3.7-3.6-9.6,0-13.2l44.2-44.2c3.6-3.6,9.6-3.7,13.2,0l38.4,38.4,24.7-8.2c2.3-.7,4.1,1.1,4.1,3v34l12.3,12.3c3.7,3.7,3.6,9.6,0,13.2l-44.2,44.2c-3.6,3.6-9.6,3.7-13.2,0ZM296.4,1875.8c1.2-1.2,1.2-3.2,0-4.4l-13.2-13.2c-.6-.6-.9-1.4-.9-2.2v-31l-22.4,7.5c-1.1.4-2.4,0-3.2-.8l-39.7-39.7c-1.2-1.2-3.2-1.2-4.4,0l-44.2,44.2c-1.2,1.2-1.2,3.2,0,4.4l79.5,79.5c1.2,1.2,3.2,1.2,4.4,0l44.2-44.2Z"/>
          <path class="cls-1" d="M190.4,1650.7l6.7,6.7c10.2-8.2,24.9-8.2,35.1,0l4.5-4.5-6.6-6.6c-11-11-11-28.8,0-39.7l26.5-26.5c1.2-1.2,3.2-1.2,4.4,0l114.8,114.8c1.2,1.2,1.2,3.2,0,4.4l-26.5,26.5c-11,11-28.8,11-39.7,0l-6.6-6.6-4.5,4.5c8.2,10.2,8.2,24.9,0,35.1l6.7,6.7c6.1,6.1,6.1,16,0,22.1l-17.7,17.7c-5.4,5.4-13.7,6-19.7,1.9-2.9,2.5-6,4.5-9.3,6-1.6.7-3.4,0-4.1-1.6-.7-1.6,0-3.4,1.6-4.1,2.5-1.1,4.9-2.6,7.2-4.5l-4.4-4.4c-3,2.4-6.6,4.2-10.3,5.2-1.7.4-3.4-.6-3.8-2.2-.4-1.7.6-3.4,2.2-3.8,3.6-.9,7.1-3,9.8-5.6l35.3-35.3c8.5-8.5,8.5-22.4,0-30.9l-61.8-61.8c-8.5-8.5-22.4-8.5-30.9,0l-35.3,35.3c-8.5,8.5-8.5,22.4,0,30.9l44.2,44.2c1.2,1.2,1.2,3.2,0,4.4s-3.2,1.2-4.4,0l-44.2-44.2c-10.2-10.2-10.9-26.4-2.1-37.4l-4.4-4.4c-11.2,13.5-10.5,33.6,2.1,46.3l44.2,44.2c1.2,1.2,1.2,3.2,0,4.4s-3.2,1.2-4.4,0l-44.2-44.2c-15.2-15.2-15.8-39.4-1.9-55.3-4.1-6.1-3.4-14.4,1.9-19.7l17.7-17.7c6.1-6.1,16-6.1,22.1,0ZM263.2,1794.2l6.6,6.6c3.7,3.7,9.6,3.6,13.2,0l17.7-17.7c3.6-3.6,3.7-9.6,0-13.2l-6.6-6.6-30.9,30.9ZM307.8,1635.6c-1.7,3.5-1.1,7.8,1.8,10.6,2.9,2.9,7.2,3.5,10.6,1.8l-12.5-12.5ZM236.8,1661.7l57.4,57.4,4.4-4.4-57.4-57.4-4.4,4.4ZM314,1721.3c8.5,8.5,22.4,8.5,30.9,0l24.3-24.3-44.4-44.4c-6.1,4-14.3,3.4-19.6-2-5.3-5.3-6-13.6-2-19.6l-44.4-44.4-24.3,24.3c-8.5,8.5-8.5,22.4,0,30.9l79.5,79.5ZM155.1,1672.7c-3.6,3.6-3.7,9.6,0,13.2l6.6,6.6,30.9-30.9-6.6-6.6c-3.7-3.7-9.6-3.6-13.2,0l-17.7,17.7Z"/>
          <path class="cls-1" d="M208.1,1725.7c-6.1,6.1-16,6.1-22.1,0-6.1-6.1-6.1-16,0-22.1,6.1-6.1,16-6.1,22.1,0,6.1,6.1,6.1,16,0,22.1ZM203.6,1708.1c-3.7-3.7-9.6-3.6-13.2,0-3.6,3.6-3.7,9.6,0,13.2,3.7,3.7,9.6,3.6,13.2,0,3.6-3.6,3.7-9.6,0-13.2Z"/>
          <path class="cls-1" d="M252.2,1769.9c-6.1,6.1-16,6.1-22.1,0-6.1-6.1-6.1-16,0-22.1,6.1-6.1,16-6.1,22.1,0,6.1,6.1,6.1,16,0,22.1ZM234.5,1752.2c-3.6,3.6-3.7,9.6,0,13.2,3.7,3.7,9.6,3.6,13.2,0s3.7-9.6,0-13.2-9.6-3.6-13.2,0Z"/>
          <path class="cls-1" d="M234.5,1694.8l26.5,26.5c1.2,1.2,1.2,3.2,0,4.4s-3.2,1.2-4.4,0l-26.5-26.5c-1.2-1.2-1.2-3.2,0-4.4,1.2-1.2,3.2-1.2,4.4,0Z"/>
          <path class="cls-1" d="M300.8,1655.1c6.1,6.1,6.1,16,0,22.1s-16,6.1-22.1,0-6.1-16,0-22.1c6.1-6.1,16-6.1,22.1,0ZM283.1,1672.7c3.7,3.7,9.6,3.6,13.2,0,3.6-3.6,3.7-9.6,0-13.2s-9.6-3.6-13.2,0-3.7,9.6,0,13.2Z"/>
        </g>
        <g>
          <path class="cls-1" d="M75.6,1243.4l79.5-79.5c3.7-3.7,9.6-3.6,13.2,0l44.2,44.2c3.6,3.6,3.7,9.6,0,13.2l-38.4,38.4,8.2,24.7c.7,2.3-1.1,4.1-3,4.1h-34l-12.3,12.3c-3.7,3.7-9.6,3.6-13.2,0l-44.2-44.2c-3.6-3.6-3.7-9.6,0-13.2ZM124.2,1296.4c1.2,1.2,3.2,1.2,4.4,0l13.2-13.2c.6-.6,1.4-.9,2.2-.9h31l-7.5-22.4c-.4-1.1,0-2.4.8-3.2l39.7-39.7c1.2-1.2,1.2-3.2,0-4.4l-44.2-44.2c-1.2-1.2-3.2-1.2-4.4,0l-79.5,79.5c-1.2,1.2-1.2,3.2,0,4.4l44.2,44.2Z"/>
          <path class="cls-1" d="M349.3,1190.4l-6.7,6.7c8.2,10.2,8.2,24.9,0,35.1l4.5,4.5,6.6-6.6c11-11,28.8-11,39.7,0l26.5,26.5c1.2,1.2,1.2,3.2,0,4.4l-114.8,114.8c-1.2,1.2-3.2,1.2-4.4,0l-26.5-26.5c-11-11-11-28.8,0-39.7l6.6-6.6-4.5-4.5c-10.2,8.2-24.9,8.2-35.1,0l-6.7,6.7c-6.1,6.1-16,6.1-22.1,0l-17.7-17.7c-5.4-5.4-6-13.7-1.9-19.7-2.5-2.9-4.5-6-6-9.3-.7-1.6,0-3.4,1.6-4.1,1.6-.7,3.4,0,4.1,1.6,1.1,2.5,2.6,4.9,4.5,7.2l4.4-4.4c-2.4-3-4.2-6.6-5.2-10.3-.4-1.7.6-3.4,2.2-3.8,1.7-.4,3.4.6,3.8,2.2.9,3.6,3,7.1,5.6,9.8l35.3,35.3c8.5,8.5,22.4,8.5,30.9,0l61.8-61.8c8.5-8.5,8.5-22.4,0-30.9l-35.3-35.3c-8.5-8.5-22.4-8.5-30.9,0l-44.2,44.2c-1.2,1.2-3.2,1.2-4.4,0-1.2-1.2-1.2-3.2,0-4.4l44.2-44.2c10.2-10.2,26.4-10.9,37.4-2.1l4.4-4.4c-13.5-11.2-33.6-10.5-46.3,2.1l-44.2,44.2c-1.2,1.2-3.2,1.2-4.4,0s-1.2-3.2,0-4.4l44.2-44.2c15.2-15.2,39.4-15.8,55.3-1.9,6.1-4.1,14.4-3.4,19.7,1.9l17.7,17.7c6.1,6.1,6.1,16,0,22.1ZM205.8,1263.2l-6.6,6.6c-3.7,3.7-3.6,9.6,0,13.2l17.7,17.7c3.6,3.6,9.6,3.7,13.2,0l6.6-6.6-30.9-30.9ZM364.4,1307.8c-3.5-1.7-7.8-1.1-10.6,1.8-2.9,2.9-3.5,7.2-1.8,10.6l12.5-12.5ZM338.3,1236.8l-57.4,57.4,4.4,4.4,57.4-57.4-4.4-4.4ZM278.7,1314c-8.5,8.5-8.5,22.4,0,30.9l24.3,24.3,44.4-44.4c-4-6.1-3.4-14.3,2-19.6,5.3-5.3,13.6-6,19.6-2l44.4-44.4-24.3-24.3c-8.5-8.5-22.4-8.5-30.9,0l-79.5,79.5ZM327.3,1155.1c-3.6-3.6-9.6-3.7-13.2,0l-6.6,6.6,30.9,30.9,6.6-6.6c3.7-3.7,3.6-9.6,0-13.2l-17.7-17.7Z"/>
          <path class="cls-1" d="M274.3,1208.1c-6.1-6.1-6.1-16,0-22.1,6.1-6.1,16-6.1,22.1,0,6.1,6.1,6.1,16,0,22.1-6.1,6.1-16,6.1-22.1,0ZM291.9,1203.6c3.7-3.7,3.6-9.6,0-13.2-3.6-3.6-9.6-3.7-13.2,0s-3.6,9.6,0,13.2,9.6,3.7,13.2,0Z"/>
          <path class="cls-1" d="M230.1,1252.2c-6.1-6.1-6.1-16,0-22.1,6.1-6.1,16-6.1,22.1,0s6.1,16,0,22.1c-6.1,6.1-16,6.1-22.1,0ZM247.8,1234.5c-3.6-3.6-9.6-3.7-13.2,0-3.7,3.7-3.6,9.6,0,13.2s9.6,3.7,13.2,0c3.7-3.7,3.6-9.6,0-13.2Z"/>
          <path class="cls-1" d="M305.2,1234.5l-26.5,26.5c-1.2,1.2-3.2,1.2-4.4,0-1.2-1.2-1.2-3.2,0-4.4l26.5-26.5c1.2-1.2,3.2-1.2,4.4,0,1.2,1.2,1.2,3.2,0,4.4Z"/>
          <path class="cls-1" d="M344.9,1300.8c-6.1,6.1-16,6.1-22.1,0s-6.1-16,0-22.1c6.1-6.1,16-6.1,22.1,0,6.1,6.1,6.1,16,0,22.1ZM327.3,1283.1c-3.7,3.7-3.6,9.6,0,13.2,3.6,3.6,9.6,3.7,13.2,0,3.7-3.7,3.6-9.6,0-13.2s-9.6-3.7-13.2,0Z"/>
        </g>
        <g>
          <path class="cls-1" d="M993.8,1872h-112.4c-5.2,0-9.4,4.2-9.4,9.4v62.4c0,5.2,4.2,9.4,9.4,9.4h17.4l24.1,24.1c1.3,1.4,3.9,1.3,5-.8l11.6-23.2h54.3c2.4,0,4.6-.9,6.2-2.4v-76.4c-1.7-1.5-3.8-2.4-6.2-2.4ZM993.8,1946.9h-56.2c-1.2,0-2.3.7-2.8,1.7l-10.5,21.1-21.9-21.9c-.6-.6-1.4-.9-2.2-.9h-18.7c-1.7,0-3.1-1.4-3.1-3.1v-62.4c0-1.7,1.4-3.1,3.1-3.1h112.4c1.7,0,3.1,1.4,3.1,3.1v62.4c0,1.7-1.4,3.1-3.1,3.1Z"/>
          <path class="cls-1" d="M940.7,1987.5c0-5.2,4.2-9.4,9.4-9.4h9.4v21.9h6.2v-25c0-3.8,1-7.7,2.9-10.9.9-1.5.4-3.4-1.1-4.3-1.5-.9-3.4-.4-4.3,1.1-1.9,3.3-3.2,7.1-3.6,10.9h-6.3c.3-2.9.9-5.7,1.9-8.2.6-1.6-.2-3.4-1.8-4-1.6-.6-3.4.2-4,1.8-1.3,3.4-2.1,7-2.4,10.8-7.2,1.4-12.6,7.7-12.6,15.3v12.5h6.2v-12.5Z"/>
          <path class="cls-1" d="M1000,1996.9c-5.2,0-9.4-4.2-9.4-9.4s4.2-9.4,9.4-9.4v-6.2c-8.6,0-15.6,7-15.6,15.6s2.5,9.6,6.3,12.5h9.4v-3.1Z"/>
        </g>
        <g>
          <path class="cls-1" d="M381.4,1872h112.4c5.2,0,9.4,4.2,9.4,9.4v62.4c0,5.2-4.2,9.4-9.4,9.4h-54.3l-11.6,23.2c-1.1,2.1-3.7,2.2-5,.8l-24.1-24.1h-17.4c-5.2,0-9.4-4.2-9.4-9.4v-62.4c0-5.2,4.2-9.4,9.4-9.4ZM378.2,1943.8c0,1.7,1.4,3.1,3.1,3.1h18.7c.8,0,1.6.3,2.2.9l21.9,21.9,10.5-21.1c.5-1.1,1.6-1.7,2.8-1.7h56.2c1.7,0,3.1-1.4,3.1-3.1v-62.4c0-1.7-1.4-3.1-3.1-3.1h-112.4c-1.7,0-3.1,1.4-3.1,3.1v62.4Z"/>
          <path class="cls-1" d="M615.4,1972.2c-1.5-21.1-19-37.8-40.5-37.8h-62.4c-1.7,0-3.1,1.4-3.1,3.1s1.4,3.1,3.1,3.1h62.4c17.9,0,32.6,13.7,34.2,31.2h-6.3c-1.6-14-13.5-25-27.9-25h-62.4c-1.7,0-3.1,1.4-3.1,3.1s1.4,3.1,3.1,3.1h62.4c12,0,21.9,9.8,21.9,21.9v25h6.2v-21.9h9.4c5.2,0,9.4,4.2,9.4,9.4v12.5h6.2v-12.5c0-7.6-5.4-13.9-12.6-15.3Z"/>
          <path class="cls-1" d="M440.7,1987.5c0-5.2,4.2-9.4,9.4-9.4h9.4v21.9h6.2v-25c0-3.8,1-7.7,2.9-10.9.9-1.5.4-3.4-1.1-4.3-1.5-.9-3.4-.4-4.3,1.1-1.9,3.3-3.2,7.1-3.6,10.9h-6.3c.3-2.9.9-5.7,1.9-8.2.6-1.6-.2-3.4-1.8-4-1.6-.6-3.4.2-4,1.8-1.3,3.4-2.1,7-2.4,10.8-7.2,1.4-12.6,7.7-12.6,15.3v12.5h6.2v-12.5Z"/>
          <path class="cls-1" d="M578,1987.5c0-8.6-7-15.6-15.6-15.6s-15.6,7-15.6,15.6,2.5,9.6,6.3,12.5h18.7c3.8-2.8,6.3-7.4,6.3-12.5ZM562.4,1996.9c-5.2,0-9.4-4.2-9.4-9.4s4.2-9.4,9.4-9.4,9.4,4.2,9.4,9.4-4.2,9.4-9.4,9.4Z"/>
          <path class="cls-1" d="M515.6,1987.5c0-8.6-7-15.6-15.6-15.6s-15.6,7-15.6,15.6,2.5,9.6,6.3,12.5h18.7c3.8-2.8,6.3-7.4,6.3-12.5ZM500,1996.9c-5.2,0-9.4-4.2-9.4-9.4s4.2-9.4,9.4-9.4,9.4,4.2,9.4,9.4-4.2,9.4-9.4,9.4Z"/>
        </g>
        <g>
          <path class="cls-1" d="M3.1,1943.8v-62.4c0-2.8-1.2-5.2-3.1-7v76.4c1.9-1.7,3.1-4.2,3.1-7Z"/>
          <path class="cls-1" d="M115.4,1972.2c-1.5-21.1-19-37.8-40.5-37.8H12.5c-1.7,0-3.1,1.4-3.1,3.1s1.4,3.1,3.1,3.1h62.4c17.9,0,32.6,13.7,34.2,31.2h-6.3c-1.6-14-13.5-25-27.9-25H12.5c-1.7,0-3.1,1.4-3.1,3.1s1.4,3.1,3.1,3.1h62.4c12,0,21.9,9.8,21.9,21.9v25h6.2v-21.9h9.4c5.2,0,9.4,4.2,9.4,9.4v12.5h6.2v-12.5c0-7.6-5.4-13.9-12.6-15.3Z"/>
          <path class="cls-1" d="M78,1987.5c0-8.6-7-15.6-15.6-15.6s-15.6,7-15.6,15.6,2.5,9.6,6.3,12.5h18.7c3.8-2.8,6.3-7.4,6.3-12.5ZM62.4,1996.9c-5.2,0-9.4-4.2-9.4-9.4s4.2-9.4,9.4-9.4,9.4,4.2,9.4,9.4-4.2,9.4-9.4,9.4Z"/>
          <path class="cls-1" d="M15.6,1987.5c0-8.6-7-15.6-15.6-15.6v6.2c5.2,0,9.4,4.2,9.4,9.4s-4.2,9.4-9.4,9.4v3.1h9.4c3.8-2.8,6.3-7.4,6.3-12.5Z"/>
        </g>
        <g>
          <path class="cls-1" d="M993.8,1372h-112.4c-5.2,0-9.4,4.2-9.4,9.4v62.4c0,5.2,4.2,9.4,9.4,9.4h17.4l24.1,24.1c1.3,1.4,3.9,1.3,5-.8l11.6-23.2h54.3c2.4,0,4.6-.9,6.2-2.4v-76.4c-1.7-1.5-3.8-2.4-6.2-2.4ZM993.8,1446.9h-56.2c-1.2,0-2.3.7-2.8,1.7l-10.5,21.1-21.9-21.9c-.6-.6-1.4-.9-2.2-.9h-18.7c-1.7,0-3.1-1.4-3.1-3.1v-62.4c0-1.7,1.4-3.1,3.1-3.1h112.4c1.7,0,3.1,1.4,3.1,3.1v62.4c0,1.7-1.4,3.1-3.1,3.1Z"/>
          <path class="cls-1" d="M953.2,1621.8v-34.3c0-12,9.8-21.9,21.9-21.9h25v-6.2h-9.4v-6.2h9.4v-6.2h-12.5c-12,0-21.9-9.8-21.9-21.9v-50c0-3.8,1-7.7,2.9-10.9.9-1.5.4-3.4-1.1-4.3-1.5-.9-3.4-.4-4.3,1.1-1.9,3.3-3.2,7.1-3.6,10.9h-6.3c.3-2.9.9-5.7,1.9-8.2.6-1.6-.2-3.4-1.8-4-1.6-.6-3.4.2-4,1.8-1.3,3.4-2.1,7-2.4,10.8-7.2,1.4-12.6,7.7-12.6,15.3v25c0,8.6,7,15.6,15.6,15.6h9.5c1.4,13,11.8,23.4,24.8,24.8v6.4h-9.4c-15.5,0-28.1,12.6-28.1,28.1v37.5c0,1.7,1.4,3.1,3.1,3.1h50v-6.2h-46.8ZM959.4,1521.9h-9.4c-5.2,0-9.4-4.2-9.4-9.4v-25c0-5.2,4.2-9.4,9.4-9.4h9.4v43.7Z"/>
          <path class="cls-1" d="M990.6,1487.5c0-5.2,4.2-9.4,9.4-9.4v-6.2c-8.6,0-15.6,7-15.6,15.6s7,15.6,15.6,15.6v-6.2c-5.2,0-9.4-4.2-9.4-9.4Z"/>
        </g>
        <g>
          <path class="cls-1" d="M381.4,1372h112.4c5.2,0,9.4,4.2,9.4,9.4v62.4c0,5.2-4.2,9.4-9.4,9.4h-54.3l-11.6,23.2c-1.1,2.1-3.7,2.2-5,.8l-24.1-24.1h-17.4c-5.2,0-9.4-4.2-9.4-9.4v-62.4c0-5.2,4.2-9.4,9.4-9.4ZM378.2,1443.8c0,1.7,1.4,3.1,3.1,3.1h18.7c.8,0,1.6.3,2.2.9l21.9,21.9,10.5-21.1c.5-1.1,1.6-1.7,2.8-1.7h56.2c1.7,0,3.1-1.4,3.1-3.1v-62.4c0-1.7-1.4-3.1-3.1-3.1h-112.4c-1.7,0-3.1,1.4-3.1,3.1v62.4Z"/>
          <path class="cls-1" d="M612.4,1528.1h-9.5c-1.4,13-11.8,23.4-24.8,24.8v6.4h9.4c15.5,0,28.1,12.6,28.1,28.1v37.5c0,1.7-1.4,3.1-3.1,3.1h-162.3c-1.7,0-3.1-1.4-3.1-3.1v-37.5c0-15.5,12.6-28.1,28.1-28.1h9.4v-6.4c-13-1.4-23.4-11.8-24.8-24.8h-9.5c-8.6,0-15.6-7-15.6-15.6v-25c0-7.6,5.4-13.9,12.6-15.3.3-3.8,1-7.4,2.4-10.8.6-1.6,2.4-2.4,4-1.8,1.6.6,2.4,2.4,1.8,4-1,2.6-1.6,5.3-1.9,8.2h6.3c.4-3.9,1.7-7.6,3.6-10.9.9-1.5,2.8-2,4.3-1.1,1.5.9,2,2.8,1.1,4.3-1.9,3.2-2.9,7.1-2.9,10.9v50c0,12,9.8,21.9,21.9,21.9h87.4c12,0,21.9-9.8,21.9-21.9v-50c0-12-9.8-21.9-21.9-21.9h-62.4c-1.7,0-3.1-1.4-3.1-3.1s1.4-3.1,3.1-3.1h62.4c14.4,0,26.4,11,27.9,25h6.3c-1.6-17.5-16.3-31.2-34.2-31.2h-62.4c-1.7,0-3.1-1.4-3.1-3.1s1.4-3.1,3.1-3.1h62.4c21.4,0,39,16.7,40.5,37.8,7.2,1.4,12.6,7.7,12.6,15.3v25c0,8.6-7,15.6-15.6,15.6ZM459.4,1478.1h-9.4c-5.2,0-9.4,4.2-9.4,9.4v25c0,5.2,4.2,9.4,9.4,9.4h9.4v-43.7ZM540,1621.8c-1.3-3.6-4.7-6.2-8.8-6.2s-7.5,2.6-8.8,6.2h17.6ZM571.8,1553.1h-81.2v6.2h81.2v-6.2ZM475,1565.6c-12,0-21.9,9.8-21.9,21.9v34.3h62.8c1.5-7.1,7.7-12.5,15.3-12.5s13.8,5.4,15.3,12.5h62.8v-34.3c0-12-9.8-21.9-21.9-21.9h-112.4ZM621.8,1487.5c0-5.2-4.2-9.4-9.4-9.4h-9.4v43.7h9.4c5.2,0,9.4-4.2,9.4-9.4v-25Z"/>
          <path class="cls-1" d="M546.8,1487.5c0-8.6,7-15.6,15.6-15.6s15.6,7,15.6,15.6-7,15.6-15.6,15.6-15.6-7-15.6-15.6ZM562.4,1496.9c5.2,0,9.4-4.2,9.4-9.4s-4.2-9.4-9.4-9.4-9.4,4.2-9.4,9.4,4.2,9.4,9.4,9.4Z"/>
          <path class="cls-1" d="M484.4,1487.5c0-8.6,7-15.6,15.6-15.6s15.6,7,15.6,15.6-7,15.6-15.6,15.6-15.6-7-15.6-15.6ZM509.4,1487.5c0-5.2-4.2-9.4-9.4-9.4s-9.4,4.2-9.4,9.4,4.2,9.4,9.4,9.4,9.4-4.2,9.4-9.4Z"/>
          <path class="cls-1" d="M550,1528.1h-37.5c-1.7,0-3.1-1.4-3.1-3.1s1.4-3.1,3.1-3.1h37.5c1.7,0,3.1,1.4,3.1,3.1s-1.4,3.1-3.1,3.1Z"/>
          <path class="cls-1" d="M531.2,1603c-8.6,0-15.6-7-15.6-15.6s7-15.6,15.6-15.6,15.6,7,15.6,15.6-7,15.6-15.6,15.6ZM531.2,1578c-5.2,0-9.4,4.2-9.4,9.4s4.2,9.4,9.4,9.4,9.4-4.2,9.4-9.4-4.2-9.4-9.4-9.4Z"/>
        </g>
        <g>
          <path class="cls-1" d="M3.1,1443.8v-62.4c0-2.8-1.2-5.2-3.1-7v76.4c1.9-1.7,3.1-4.2,3.1-7Z"/>
          <path class="cls-1" d="M115.5,1624.9v-37.5c0-15.5-12.6-28.1-28.1-28.1h-9.4v-6.4c13-1.4,23.4-11.8,24.8-24.8h9.5c8.6,0,15.6-7,15.6-15.6v-25c0-7.6-5.4-13.9-12.6-15.3-1.5-21.1-19-37.8-40.5-37.8H12.5c-1.7,0-3.1,1.4-3.1,3.1s1.4,3.1,3.1,3.1h62.4c17.9,0,32.6,13.7,34.2,31.2h-6.3c-1.6-14-13.5-25-27.9-25H12.5c-1.7,0-3.1,1.4-3.1,3.1s1.4,3.1,3.1,3.1h62.4c12,0,21.9,9.8,21.9,21.9v50c0,12-9.8,21.9-21.9,21.9H0v6.2h71.8v6.2H0v6.2h87.4c12,0,21.9,9.8,21.9,21.9v34.3h-62.8c-1.5-7.1-7.7-12.5-15.3-12.5s-13.8,5.4-15.3,12.5H0v6.2h112.4c1.7,0,3.1-1.4,3.1-3.1ZM103,1478.1h9.4c5.2,0,9.4,4.2,9.4,9.4v25c0,5.2-4.2,9.4-9.4,9.4h-9.4v-43.7ZM22.4,1621.8c1.3-3.6,4.7-6.2,8.8-6.2s7.5,2.6,8.8,6.2h-17.6Z"/>
          <path class="cls-1" d="M46.8,1487.5c0-8.6,7-15.6,15.6-15.6s15.6,7,15.6,15.6-7,15.6-15.6,15.6-15.6-7-15.6-15.6ZM62.4,1496.9c5.2,0,9.4-4.2,9.4-9.4s-4.2-9.4-9.4-9.4-9.4,4.2-9.4,9.4,4.2,9.4,9.4,9.4Z"/>
          <path class="cls-1" d="M15.6,1487.5c0-8.6-7-15.6-15.6-15.6v6.2c5.2,0,9.4,4.2,9.4,9.4s-4.2,9.4-9.4,9.4v6.2c8.6,0,15.6-7,15.6-15.6Z"/>
          <path class="cls-1" d="M50,1528.1H12.5c-1.7,0-3.1-1.4-3.1-3.1s1.4-3.1,3.1-3.1h37.5c1.7,0,3.1,1.4,3.1,3.1s-1.4,3.1-3.1,3.1Z"/>
          <path class="cls-1" d="M31.2,1603c-8.6,0-15.6-7-15.6-15.6s7-15.6,15.6-15.6,15.6,7,15.6,15.6-7,15.6-15.6,15.6ZM31.2,1578c-5.2,0-9.4,4.2-9.4,9.4s4.2,9.4,9.4,9.4,9.4-4.2,9.4-9.4-4.2-9.4-9.4-9.4Z"/>
        </g>
        <g>
          <path class="cls-1" d="M953.2,1121.8v-34.3c0-12,9.8-21.9,21.9-21.9h25v-6.2h-9.4v-6.2h9.4v-6.2h-12.5c-12,0-21.9-9.8-21.9-21.9v-25h-6.2v21.9h-9.4c-5.2,0-9.4-4.2-9.4-9.4v-12.5h-6.2v12.5c0,8.6,7,15.6,15.6,15.6h9.5c1.4,13,11.8,23.4,24.8,24.8v6.4h-9.4c-15.5,0-28.1,12.6-28.1,28.1v37.5c0,1.7,1.4,3.1,3.1,3.1h50v-6.2h-46.8Z"/>
          <path class="cls-1" d="M990.6,1000c2.6,2,5.8,3.1,9.4,3.1v-3.1h-9.4Z"/>
        </g>
        <g>
          <path class="cls-1" d="M450,1028.1h9.5c1.4,13,11.8,23.4,24.8,24.8v6.4h-9.4c-15.5,0-28.1,12.6-28.1,28.1v37.5c0,1.7,1.4,3.1,3.1,3.1h162.3c1.7,0,3.1-1.4,3.1-3.1v-37.5c0-15.5-12.6-28.1-28.1-28.1h-9.4v-6.4c13-1.4,23.4-11.8,24.8-24.8h9.5c8.6,0,15.6-7,15.6-15.6v-12.5h-6.2v12.5c0,5.2-4.2,9.4-9.4,9.4h-9.4v-21.9h-6.2v25c0,12-9.8,21.9-21.9,21.9h-87.4c-12,0-21.9-9.8-21.9-21.9v-25h-6.2v21.9h-9.4c-5.2,0-9.4-4.2-9.4-9.4v-12.5h-6.2v12.5c0,8.6,7,15.6,15.6,15.6ZM522.4,1121.8c1.3-3.6,4.7-6.2,8.8-6.2s7.5,2.6,8.8,6.2h-17.6ZM490.6,1053.1h81.2v6.2h-81.2v-6.2ZM587.4,1065.6c12,0,21.9,9.8,21.9,21.9v34.3h-62.8c-1.5-7.1-7.7-12.5-15.3-12.5s-13.8,5.4-15.3,12.5h-62.8v-34.3c0-12,9.8-21.9,21.9-21.9h112.4Z"/>
          <path class="cls-1" d="M571.8,1000h-18.7c2.6,2,5.8,3.1,9.4,3.1s6.7-1.2,9.4-3.1Z"/>
          <path class="cls-1" d="M509.4,1000h-18.7c2.6,2,5.8,3.1,9.4,3.1s6.7-1.2,9.4-3.1Z"/>
          <path class="cls-1" d="M550,1028.1h-37.5c-1.7,0-3.1-1.4-3.1-3.1s1.4-3.1,3.1-3.1h37.5c1.7,0,3.1,1.4,3.1,3.1s-1.4,3.1-3.1,3.1Z"/>
          <path class="cls-1" d="M531.2,1103c-8.6,0-15.6-7-15.6-15.6s7-15.6,15.6-15.6,15.6,7,15.6,15.6-7,15.6-15.6,15.6ZM531.2,1078c-5.2,0-9.4,4.2-9.4,9.4s4.2,9.4,9.4,9.4,9.4-4.2,9.4-9.4-4.2-9.4-9.4-9.4Z"/>
        </g>
        <g>
          <path class="cls-1" d="M115.5,1124.9v-37.5c0-15.5-12.6-28.1-28.1-28.1h-9.4v-6.4c13-1.4,23.4-11.8,24.8-24.8h9.5c8.6,0,15.6-7,15.6-15.6v-12.5h-6.2v12.5c0,5.2-4.2,9.4-9.4,9.4h-9.4v-21.9h-6.2v25c0,12-9.8,21.9-21.9,21.9H0v6.2h71.8v6.2H0v6.2h87.4c12,0,21.9,9.8,21.9,21.9v34.3h-62.8c-1.5-7.1-7.7-12.5-15.3-12.5s-13.8,5.4-15.3,12.5H0v6.2h112.4c1.7,0,3.1-1.4,3.1-3.1ZM22.4,1121.8c1.3-3.6,4.7-6.2,8.8-6.2s7.5,2.6,8.8,6.2h-17.6Z"/>
          <path class="cls-1" d="M71.8,1000h-18.7c2.6,2,5.8,3.1,9.4,3.1s6.7-1.2,9.4-3.1Z"/>
          <path class="cls-1" d="M0,1000v3.1c3.5,0,6.7-1.2,9.4-3.1H0Z"/>
          <path class="cls-1" d="M50,1028.1H12.5c-1.7,0-3.1-1.4-3.1-3.1s1.4-3.1,3.1-3.1h37.5c1.7,0,3.1,1.4,3.1,3.1s-1.4,3.1-3.1,3.1Z"/>
          <path class="cls-1" d="M31.2,1103c-8.6,0-15.6-7-15.6-15.6s7-15.6,15.6-15.6,15.6,7,15.6,15.6-7,15.6-15.6,15.6ZM31.2,1078c-5.2,0-9.4,4.2-9.4,9.4s4.2,9.4,9.4,9.4,9.4-4.2,9.4-9.4-4.2-9.4-9.4-9.4Z"/>
        </g>
      </g>
    </g>
  </g>
</svg>