<?xml version="1.0" encoding="UTF-8"?>
<svg xmlns="http://www.w3.org/2000/svg" version="1.1" viewBox="0 0 1024 1024">
  <defs>
    <style>
      .cls-1 {
        fill: #010101;
      }

      .cls-2 {
        fill: #227c9d;
      }

      .cls-3 {
        fill: #f8f8f8;
      }
    </style>
  </defs>
  <!-- Generator: Adobe Illustrator 28.6.0, SVG Export Plug-In . SVG Version: 1.2.0 Build 709)  -->
  <g>
    <g id="Capa_1">
      <g>
        <path class="cls-1" d="M796.3,955c1.3-.1,3.1-.4,4.2.4,1.1.7,1.2,1.3,1.5,2.5-1.7,4-18.2,9.1-22.9,11-1.2.6-1.9.9-3.3.8l-.6-.8c0-1,0-1.3.5-2.3,3.7-6.2,13.9-10,20.6-11.7Z"/>
        <path class="cls-1" d="M771.9,955.4c1.3,0,2.5-.2,3.6.6,1,.7,1,1.2,1.1,2.3-2.3,5-21.3,11.1-27.2,13.6-.7.2-1.4.3-2.1.4-.8-.4-1.4-.6-2.1-1.3-.5-.6-.3-.8-.3-1.5,3.5-6.3,20-11.7,26.9-14Z"/>
        <path class="cls-1" d="M935,50.7c1.6,0,2.5.7,3.8,1.5l.8.5c1.2.8,2.4,1.6,3.6,2.5,6.9,5.9,12.1,15.5,12.5,24.7.1,2.4-.2,4-1.8,5.8-.2,0-.4-.1-.5-.2-.6-.2-1.6-.7-2-1.2-1.5-1.7-3.4-13.8-5.1-17.4-2.9-6.3-11.4-8.1-13.6-13.3.4-1.6,1.1-1.9,2.3-3Z"/>
        <path class="cls-1" d="M780.5,91.1c.5.2,1.1.4,1.6.7.5.3,1.2.9,1.3,1.5.2.9-2.3,19.7-2.4,22.6-.3,11.8,1.4,24.8,5,36.1,1.2,3.7,3.3,7.2,4.1,11,.4,1.7-.2,2.1-1.1,3.4-1-.2-2.2-.5-3-1.2-6.8-6.2-10.1-35.4-10.5-45.1-.3-7.4-.2-23.6,5-29.2Z"/>
        <path class="cls-1" d="M805.9,80.8c1.4,0,2.2,0,3.6.7.6,1,.9,1.2.6,2.4-.6,2.3-1.9,4.5-2.7,6.8-1.9,5.8-2.9,12.3-3.4,18.3-1.1,11.8.9,25.4,4.6,36.6,1.2,3.6,3.7,7.4,3.9,11.2-1.9.2-3.6.4-5.1-.8-5.6-4.7-8.2-24.4-8.7-31.3-.8-10.8,0-35.4,7.4-43.9Z"/>
        <path class="cls-1" d="M932.5,31.3c.6,0,.3,0,1,0,13,1.8,25.1,11.4,32.8,21.5,7,9.3,10,19.8,11.1,31.2.2,2,.7,4.4.4,6.3-.2,1-.5.9-1.3,1.5-1.6.2-2.8-.2-4.3-.6-1.4-12-2-22.9-8.9-33.4-5.9-8.9-15.8-16.9-26.2-19.7-3.1-.8-6.7-.5-9.6-1.5-1.1-.4-1.6-1.5-2.1-2.4,0-.8,0-.8.5-1.2,1.1-1,3.1-1.7,4.6-1.5,1.2,0,.5.2,1.6,0,.2,0,.4,0,.5-.1Z"/>
        <path class="cls-1" d="M47.7,713.7c.6.2.9.3,1.5.7,1.3.7,1.8,1.5,2.2,2.9.8,3.2.3,7,.8,10.3,1.7,12.2,4.2,23.9,8.4,35.5,4.9,13.4,11,26,19.2,37.7,2.8,4,16.1,17,16.7,19.2-.6,1.6-1.2,1.9-2.6,3-1.2-.6-2.2-1.3-3.2-2.1-26.4-22.5-42.2-67.3-44.4-101.2-.2-2.7-.3-3.9,1.5-6Z"/>
        <path class="cls-1" d="M712.5,948.5c.8-.1,1.4-.1,2.2,0,1.6.3,2.8,1.3,3.7,2.6,0,.7.2,1.2-.1,1.9-3.7,6.9-59,22.7-68.9,25.7-1,.3-2.2.6-3.2.5-1.1-.1-1.2-.3-1.8-1.1,0-.9.1-1.5.6-2.3,4.3-6.6,58.7-26.1,67.5-27.3Z"/>
        <path class="cls-1" d="M347.4,946.5c.4,0,1-.2,1.4-.2,1.4,0,1.9.9,2.8,1.8.2,1.1.4,1.6-.4,2.6-1,1.1-2.8,1.9-4.2,2.5-7.6,3.3-16.1,5.5-24,8.2-12.9,4.5-25.9,9.7-39,13.5-6.1,1.8-12.3,3.2-18.7,4.1-1.8,0-3.4.2-4.9-1-.1-.7-.3-.9.1-1.6,1.1-1.8,3.6-2.8,5.4-3.7,2.5-1.1,5.2-1.7,7.8-2.7,6.4-2.3,12.8-4.6,19.2-6.7,18-6.1,35.8-12.4,54.4-16.8Z"/>
        <path class="cls-1" d="M84.8,662.7c2.1,1.4,2.1,4,2.2,6.4.3,6.7-1.1,13.7-1.5,20.4-.6,10.2-.5,20.7.2,30.9,1.2,18.3,7.9,50.7,18.8,65.5,2.8,3.8,9.4,7.7,10.6,12.1-.4,1.5-.8,1.6-1.9,2.6-2.4-.5-3.9-1.5-5.7-3.1-16.9-15.1-25.2-52.3-26.5-74.4-.6-10.4-1.9-54.1,3.9-60.6Z"/>
        <path class="cls-1" d="M319.4,945c1.2.3,1.6.5,2.5,1.4.4,1.3.5,1.5,0,2.8-2.9,3.1-69.8,24.9-78.4,27-6.9,1.7-13.8,2.5-20.8,2.9-.7-.1-.5,0-1.1-.3-1.1-.5-1.4-.5-1.8-1.7.2-.5.3-.9.6-1.4,1.1-1.5,3.7-2.5,5.4-3.1,9-3.1,18.7-4.7,27.8-7.6l35.6-11.2c9.9-3.2,20.1-6.8,30.3-8.9Z"/>
        <path class="cls-1" d="M747.3,950.6c.3,0,.7,0,1,0,2.5,0,4.1.9,5.8,2.6.3.8.6,1.3.4,2.2-.7,3.2-4.5,5.8-7.1,7.5-6.2,4-25.8,15-33.1,13.4-1-1-1-.9-1.1-2.3,1.6-3.9,7.2-6.4,10.7-8.6-6.8,2.5-13.5,5.2-20.4,7.5-3.4,1.2-15.6,6-18.6,5.9-.2,0-1.4-.5-1.5-.6-.9-.7-1-1.2-.9-2.3,8.7-9.2,51.6-23.8,65-25.3Z"/>
        <path class="cls-1" d="M290.1,943c1.3-.1,2.4-.1,3.7,0,1.1.7,1.3,1.2,1.8,2.4-.2.9-.1,1.2-.7,1.9-5.3,6.3-99,28.6-112.5,29.5-1.9.2-4.1.8-5.9-.2-1.2-.6-1.3-1-1.7-2.2.2-.5.3-.8.6-1.3,1.1-1.4,3.2-2.5,4.8-3,8.9-3.1,18.5-5.2,27.7-7.5,27.3-7,54.8-12.9,82.2-19.8Z"/>
        <path class="cls-1" d="M540,944.5c1.3-.1,2.2-.2,3.5.2,1,1.1,1.2,1.2,1.3,2.7-.5,1-1,1.6-1.9,2.2-5.6,3.8-23.1,8.3-30.1,9.5-5.5.9-11.1,1.1-16.5,2.5-6.5,1.8-12.9,4.3-19.4,6.4-8.6,2.7-17.4,5.1-26,8-15.7,5.2-45.9,17.5-61.9,14.5,0-.4-.1-1-.1-1.4,0-1.3.4-1.6,1.5-2.3,7.8-5,30.9-10.9,40.7-14.1l47.1-15.4c10.1-3.4,20.3-7.1,30.5-10.1,1.2-.3,2.7-.7,3.9-.3,3,1.1.4,3.6,1.5,5.6,2.6.3,21-6.9,26-8Z"/>
        <path class="cls-1" d="M894.2,60.2c.1,0,.2,0,.4,0,9.4-.4,19.8,2.7,26.8,9,12.6,11.3,12.6,30,13.3,45.7.5,11.3,2.2,35.5-5.9,44.3-.8.9-1.4,1.5-1.9,2.6,1.2,16.8-.3,34.6-1.1,51.5-1.3,28.7-3.5,57.3-6.6,85.9-4.6,43.9-11.8,95.3-26.1,137-5.7,16.6-13.7,33.3-24.9,46.8-17.1,20.6-44.1,37.1-71.1,39.5-1.7,5.1-3.4,10.3-5.2,15.3-4.8,13.1-13.2,27.4-26.4,33.6-2,9.4-1.8,19.5-2.5,29.1-1.5,20.1-3.4,40.2-5.6,60.3-1,9.2-1.2,19.4-3.6,28.4-1.6,5.9-3.9,11.3-7.9,16-14.9,17.4-37.8,17-58.7,18.6l-.3.5c.7,5.2,2.4,27.1-.4,30.4-.8.9-1.8,1.5-3,1.9-5.9,1.7-20.4,2.1-27.2,2.7,0,13.8,2.7,29.6,3.8,43.6,2.7,33.3,4.1,66.2,1.6,99.6-1,14.1-3.1,41.3-10.9,52.8-1,1.5-2.5,2.7-3.9,3.9,9.2-2,23.5-7.8,32.2-8.1,1.7,0,2,.2,3.1,1.4.2.8.6,1.3.3,2.1-.8,2.1-3.7,3.3-5.7,4.1-18.9,7.1-38,14-57.4,19.5-5.2,1.5-10.5,2.4-15.8,3.7-3.7.9-9.5,3.8-13,2.2l-.3-1.1c2.5-9.1,39.4-16.6,41.4-19.7-1.7.3-3.3,1-5,1.3-6.6,1.3-13.2,2-19.7,4-6.3,1.9-12.5,4.6-18.7,6.8-8.2,2.9-40,15-46.4,12,.1-.3.2-.5.4-.8,4.7-7.4,40.2-18.9,49.7-21.6-3,0-6.1-.4-9.1,0-5.5.8-11,3-16.3,4.9-12.9,4.5-25.7,9.7-38.6,14.1-5.8,1.9-32.1,10.6-36.7,8.4l-.2-1c5.7-10.6,75.7-29.7,79-34.3,0-1.4-.2-1.5-.9-2.7-3.6.7-7.1,2.4-10.5,3.7-4.9,1.8-9.9,3.4-14.9,5.2-12.4,4.4-25,8.2-37.5,12.4-16.7,5.6-44.7,16.6-62,17.4-2.1.1-4.1.2-5.6-1.2,0-1.8.8-3,2.3-4,3-2,9.3-3.6,13-5,23.8-8.9,48.3-16.1,72.5-23.8,11-3.5,22.2-6.8,33-10.9,2.7-1.1,9.9-3.4,11.5-6.1,1.8-3,1.3-9.7,1.7-13.3,4.2-39,2.3-78.3-.9-117.3-1.3-15.1-2.1-31.1-5.8-45.9-10,1.7-20.7,1.1-30.8,1.9-29,2.1-58.3,4.3-87.4,5.6,2.5,11.5,3.6,23.4,4.8,35.1,3.7,34.9,5,69.4,2.4,104.5-.5,7.3-1.2,14.8-2.2,22.1-.9,6.3-2.2,12.6-2.6,19v.8c7.8-3.3,38.7-13.8,45.6-10.9.7.3.5.3.8,1.1-1,2-2.9,3-4.9,3.9-2.9,1.4-6.4,2-9.5,3-9.1,2.9-18.6,5.5-27.6,8.8-4.2,1.6-8,4.2-12.1,6.1-8.3,3.8-17.4,3.2-26.1,5.4-20.2,5.1-38.6,13.3-59.8,15.4-2.3.2-5.4.9-7.5,0-.4-1.1-.3-1.1,0-2.3,8.4-7.6,38.1-13.9,49.7-16.2-6.2-.3-12.7-.6-18.9.5-13,2.4-50.1,16.8-59.6,15-1.2-.2-1.7-.6-2.4-1.6l.3-1c4.9-5.1,40.8-15.7,49.4-17.5l-3.4-1.7c-5.7.7-11.3,2.8-16.8,4.5-9,2.7-18,5.6-26.9,8.6-4.8,1.5-9.9,3.6-15,4-1.9.1-3.6.1-5.1-1.2-.1-.6-.3-1,0-1.7,2.5-4.8,53.9-20.8,62.7-23.9,7.5-36.2,6.9-83.4,4.6-120.3-.5-7.9-1.6-15.7-2.1-23.6-.5-7.4,0-22.1-2.8-28.6-2.9-1.8-25.6-.4-29.8.2-.3-.6-.7-1.2-1-1.8-2.6-4.7-2.8-10.9-2.9-16.2-.2-4.8.2-9.7-.2-14.4-5.8-.6-11.8,0-17.6,0-25.6-.3-49.4-14.8-66.9-32.8-3.8-3.9-7.6-7.9-9.6-13.1-1.9-4.8-2.8-10.3-3.9-15.3-3-13.6-5.6-27.3-7.8-41.1l-5.4-33.2c-2.7-16.4-5.9-33.6-5.7-50.3-1.2-1.1-2.3-2.4-3.4-3.6-5.6,12.8-10.1,25.6-14.5,38.9-13.1,40.4-20,109.9,0,148.5,5.6,10.8,16.8,22.9,28.7,26.6.8-.3,1.6-.6,2.5-.8,5-1.4,10.8-1.1,16-1.3,15.4-.6,33.4-1.9,47.2,6.1,6.5,3.8,12,9.5,13.9,17.1,1.2,4.9.3,9.7-2.3,14-4.6,7.6-12.4,12.1-20.9,14,2.2.8,4.3,1.6,6.4,2.6,8.2,4.2,13.8,10.5,16.6,19.4-.9,4.8-2.5,8.9-5,13.1-6,10.2-19.9,28.1-31.9,30.9-14.2,3.3-35-8.1-46.8-15.3-9-5.5-22.3-15.6-28.3-24.2-2.5-3.6-3.8-8.3-6.7-11.6-2.5-2.8-6.2-4.8-9.2-7.1-4.3-3.5-8.5-7.3-12.5-11.1-22-20.7-35.3-47.8-42.3-76.9-16.4-68.5,2.9-162.4,31.4-225.6,5.9-13.1,12.3-26.3,20.2-38.3,3.2-4.9,7.4-9.1,10.5-14.1,2.8-4.6,3.9-10.4,6.2-15.3,2.8-5.9,6.8-11,10.2-16.5-1-10.8-1.3-21.7-1.9-32.6-1.7-34.5-2.4-68.7-2.6-103.2-.1-14.4-.3-28.6.2-43,.2-6.3.2-12.6,1.4-18.8,1.5-7.4,6.3-14.4,10.7-20.3,7.1-9.7,15.1-18.4,23.5-26.9,4.6-4.6,9.2-9.3,14.8-12.8,12.3-7.7,27.3-7.4,41.2-8.7,4.7-.4,9.4-1.2,14-2-9.1-15-16.4-31.7-24.1-47.5-1.9-4-7.3-17.4-9.6-19.7-1.4-1.3-5.3-.2-7.3-1.1-2.1-.9-3.9-2.8-4.6-4.9,0-.3-.2-.5-.2-.8,0-.3-.1-.5-.1-.8,0-.3,0-.5,0-.8,0-.3,0-.6,0-.8,0-.3,0-.5.1-.8,0-.3.1-.5.2-.8,0-.3.2-.5.3-.8.1-.3.2-.5.4-.7,1.3-2.4,3.6-4.1,6.2-4.9,3-.9,6.5-.5,9.1,1,1.6.9,2.9,2.3,3.4,4.2,1,4-.9,6.6-2.9,9.8,6.8,11.7,12.1,24.2,18.1,36.4,5.4,11,11.5,21.6,16.6,32.7,13.5-3.7,35.5-4.8,50.1-6.7,74-9.8,148.6-14.3,223.1-19.4,20.4-1.4,41-3.1,61.4-4.2,10-.5,20-.6,30-1.1,12.6-.6,28.2-2.4,40.5-1.8,13.2.7,26.1,5.2,35,15.4,4.3,4.9,8.7,12.5,10.2,18.9,1.6,6.5,1.9,13.8,2.6,20.5,1.4,12.5,2.7,25,3.7,37.6,4.2,52,6.5,104.2,7,156.4.2,14.8,1.5,33.9.3,48.4,2.9,3.5,6.3,6.6,9.2,10,4.9,5.8,8.5,12.4,12.1,19.1,8.7-5,17.8-10.3,24.8-17.7,7.6-8.1,11.9-17.8,15.5-28.2,6-17.8,9.1-36.5,12.2-54.9,4.2-25.2,7.5-50.5,9.9-75.9,2.4-25.4,3.9-50.9,4.5-76.4.3-9.5,1.5-19.1,1.1-28.6,0-.8,0-2.1-.4-2.7-1.6-2.5-11.4-7.5-14.9-10.8-13.6-12.6-17-32.4-17.5-50.1-.3-9.6,2.2-19.9,9.1-26.9,3.8-3.9,8.9-6.2,14.4-6.2,7.5,0,13.4,4.6,18.4,9.7,1.2-6.9,2.5-14.8,7.3-20.2,5.2-6,11.9-6.8,19.3-7.5Z"/>
        <path class="cls-3" d="M768.3,442.1c.2,0,.3.2.5.3,7.9,5.9,17.1,32.5,18.8,41.8,3.2,17.8-.3,36.2-7,52.7-1.7,4.2-3.4,8.5-6.1,12.3-2.8,3.6-5.6,7-8.9,10.1,1.1-38.9,4.4-78.3,2.7-117.3Z"/>
        <path class="cls-3" d="M194.8,764.4c5.5,5.3,12.1,10.4,18.5,14.7-3.2,4.8-6.9,9.2-10.2,13.9-7.7,10.8-14.2,23.4-17.5,36.3-4.1-2.9-8.2-5.7-12.1-8.9-10.5-8.9-21.8-20-27.6-32.6,26.8-.9,29.7-6.8,48.9-23.3Z"/>
        <path class="cls-3" d="M819.2,448.2c2.9,1.8,11.6,20,14.2,24.3,3.9,6.2,8.4,11.9,12.3,18.1-8.4,8.3-20.4,14.1-31.2,18.3-5.3,1.7-10.6,3.6-15.9,5.4,1.2-20.4.3-30-5-49.9,9.9-3.4,18.2-8.7,25.6-16.2Z"/>
        <path class="cls-3" d="M177.2,731.4c2.1,2.6,2.7,8,4.1,11.2,2.5,5.8,6.3,10.8,9.1,16.4l.3.6c-3.5,4.4-8.2,8.6-12.4,12.3-10.5,9.1-21.6,11.1-35.2,10.1l-3.6-7.5c-3-6.3-13.9-36.5-12.5-42.2,1.8.7,3.3,2.1,4.9,3.1,2.7,1.6,5.9,2.8,9,3.5,13.2,3.2,25-.7,36.2-7.6Z"/>
        <path class="cls-3" d="M436.4,773.6c.7-.1,1.4-.1,2.1-.2,2.3,2.9,4,24.1,4.1,28.8-20.6,7.8-40.8,7.4-62.4,5.6l-4.2.4c-.6-10.1-.6-21.1-3.1-30.9,21.1-1.4,42.4-2.1,63.5-3.7Z"/>
        <path class="cls-3" d="M178.5,486.3c.3.3,2.2,22.1,3.1,27.4,1.2,7.5,7.2,21.5,11.7,27.7,2.1,2.9,4.8,5.3,6.6,8.5-.9,5-6.5,19.6-9.3,23.8-4.9.9-11.8-1.3-16.3-3.3-12.7-6.6-14.7-9.6-25.3-18.2,4.6-17.7,19.3-50.8,29.6-66Z"/>
        <path class="cls-3" d="M917.5,168.9l.6.2c1,3.5-.9,41-1.9,45.2-.4,1.5-1,3-2.5,3.7-2.2,1.1-5.3,1.1-7.7,1.2-12.6.8-23.8-1.1-35.8-5-1.8-.3-3.7-.7-5.1-2-.6-3.5.2-7.8.3-11.4.3-9.1.5-18.1.5-27.2,16.4,3.9,36.2,1.8,51.7-4.9Z"/>
        <path class="cls-3" d="M130.9,617.6c2.6,1.4,4.6,4,6.7,5.9,4,3.6,9,6.9,13.9,9,7.5,3.2,16.4,3.5,24,.5-1.6,7.9-2.4,16.1-2.8,24.2-.3,4.6.1,14.5-1.2,18.7-.5,1.5-1.8,1.9-3.1,2.6-3.9,1.8-8.1,3.1-12.4,3.4-12.9,1-22.4-5.9-31.7-13.7.3-13,3.1-38.3,6.6-50.5Z"/>
        <path class="cls-3" d="M645.8,760.2l.5.8c.2,4.4,2.6,25.2,1.4,27.5-3.4,2.4-7.9,3.5-11.9,4.6-2.2.6-4.4,1.2-6.7,1.7-2.2.5-4.5,1-6.7,1.4-2.3.4-4.5.7-6.8,1-2.3.3-4.6.5-6.8.7-2.3.2-4.6.3-6.9.3-2.3,0-4.6,0-6.9,0-2.3,0-4.6-.2-6.9-.5-2.3-.2-4.6-.5-6.8-.8l-.3-.2c-1.5-3.5-3.3-26.1-4-31.7,10.3-1.3,20.8-1.7,31.1-2.3l37.6-2.4Z"/>
        <path class="cls-3" d="M123.8,673.6c1.4,1,2.6,2.4,3.8,3.6,3.6,3.4,7.5,6,12.2,7.7,10.8,3.9,21.9,2.7,32.1-2.1-.3,14.1,1.6,28.8,4,42.7l-3.7,2.5c-5.9,3.1-12.2,5.9-18.9,6.6-7.8.8-14.5-1.5-21.4-5-1.4-.7-3.4-1.6-4.5-2.7-4.7-4.7-3.5-45.2-3.5-53.3Z"/>
        <path class="cls-3" d="M223.3,570.7c4.3,1.4,9.1,4,13.5,4.6,1.7.2,3,.3,4.2,1.7,2.4,6.6,3,21.5,4.3,29.3,3.7,23.7,7.7,47.4,11.9,71,1.9,10.6,4.1,21.2,6.1,31.8.6,3,2,6.5,1.7,9.6-5.2-4.1-10.6-8.2-15.2-12.9-3.4-3.4-4.9-7-6.3-11.6-4.3-13.8-6.1-28.6-8.6-42.8-3.9-20.9-7.1-41.8-9.6-62.9-.7-5.9-1.9-11.8-1.9-17.7Z"/>
        <path class="cls-3" d="M841.2,409.6c3.7,2.1,7.1,5.1,10.8,7.4,10.7,6.7,20.4,8.8,32.7,11-5.8,17.5-13,33.7-24.5,48.1-2.7,3.6-5.9,6.7-9.2,9.8-11.8-12.3-17.8-28.7-27-42.8,9.3-9.2,13.3-21.4,17.3-33.5Z"/>
        <path class="cls-3" d="M147.4,557.4c14.7,12.8,21.7,20.4,42.3,21.1-3.3,9.2-6.3,18.3-8.6,27.8-1.2,4.9-2.9,16.7-4.7,20.5-.3.7-1.6.9-2.3,1.1-1.6.6-3.2,1.1-4.9,1.3-16.2,2.3-25.5-8.3-37-17.3,1.7-5.9,2.4-12,3.9-18,3.1-12.4,6.8-24.6,11.4-36.6Z"/>
        <path class="cls-2" d="M378.5,914.4c11.2,4.4,34.1,5.2,46.3,4.1,6.7-.6,13.3-1.9,19.9-3.2-1.4,13.5-3,27.2-5.8,40.5-.2.1-.4.3-.6.4-1.8.8-5,1.1-7,1.5-18.4,3.6-38.9,2.2-57-2.2,1.6-13.7,3.9-27.4,4.3-41.2Z"/>
        <path class="cls-3" d="M854,349.1c14.2,7.6,22.2,10.9,38.5,12.2,2.1.2,3.2-.4,5.1-1.4.9-.5,1-.3,2-.2,3.3,5.7-9.5,50.2-11.6,59.7-.3.5-.6,1.3-1,1.7-1.3,1.4-4.7,1-6.4.9-11-.9-30-10.7-36.9-19.1,0-3,2.5-9,3.2-12.4,2.7-13.8,4.8-27.6,7.2-41.4Z"/>
        <path class="cls-3" d="M651.8,849.4c.5,0,.2,0,.8.5-.5,4.7,0,9.7.2,14.4.3,9.7.5,19.5-1.3,29.1-.9.6-1.8,1.2-2.7,1.7-16.3,9.1-44.6,6.2-61.9,1.2-.9-.1-1.1-.2-1.8-.7-1.2-4.7-.2-11.5-.1-16.4,0-8.2.1-16.5-.6-24.6,4.9.5,9.7,1.5,14.6,1.9,17,1.5,37.4.3,52.9-7.2Z"/>
        <path class="cls-3" d="M445.4,861.4c.6.2.2,0,.9.8,1.2,11.3.5,35-1.1,46.3-25.3,5.3-40.2,3.5-65.3,0l-.6-.2c-1.4-2.4,0-38.8,0-44.6,15.4,4.9,36.1,6.2,51.7,2.7,5.1-1.1,9.7-3,14.4-5.1Z"/>
        <path class="cls-3" d="M864.8,218.6c18.3,6.6,31.6,9.3,51.1,5.4-.7,4-.6,8.3-.9,12.3-1,13.6-1.6,33.3-4.5,46l-.4,1c-1.8,1.1-3.8,1.8-5.8,2.4-15.4,4.7-29-3.4-42.1-10.4,0-7.3.9-14.6,1.3-22,.6-11.6,1.1-23.1,1.4-34.7Z"/>
        <path class="cls-3" d="M441.9,809.4h.6c3.1,3.6,3.5,37.3,3.2,43.9-20.5,10.8-41.4,8.3-63.4,4.8-1.2-.1-2-.2-3.1-.8-1.3-3.5-.9-18.2-1.1-22.7-.4-7.2-1.2-14.3-1.5-21.5,20.8,3.7,45.4,4.4,65.2-3.7Z"/>
        <path class="cls-3" d="M648.1,796.4c.7.2.3,0,1,.7-.2,14.2,2.6,28.9,2.6,43.2-.8.6-1.5,1.2-2.4,1.7-15.8,9.9-46.3,9.6-63.9,5.1-.8-.3-.6-.1-1.1-.7-.1-.1-.2-.2-.3-.4,0-.3-2.4-40.2-2.3-41.7,5.2-.2,10.6,1,15.9,1.1,17.5.3,34.2-2.7,50.5-9Z"/>
        <path class="cls-3" d="M862,281.5c8.3,4.1,12.8,8.7,22.6,10.2,6.9,1,17.7,1.7,23.5-2.6.7-.5.8-.4,1.7-.4,1.6,3.1-6.7,57.5-8.2,64.2,0,.5-.3,1.3-.6,1.7-.8,1.2-2.1,1.3-3.4,1.5-12.6,1.5-32.7-6.1-42.6-13.7,1.4-5.1,1-11.1,1.7-16.4l5.3-44.4Z"/>
        <path class="cls-3" d="M217.2,429.7c0,0,.2,0,.3,0,1.1.9.9,10.8,1,12.9.4,7,1.4,13.8,1.9,20.8,1.4,16.2,2.7,32.3,4.3,48.4,1.6,16.2,2.6,32.5,5,48.7-5.4-3.4-10.9-6.7-15.6-11-2.9-2.9-5.6-5.9-8.1-9.2-13.2-17.1-18.4-41.4-15.5-62.6,2.5-19.1,11.4-36.3,26.7-48.1Z"/>
        <path class="cls-2" d="M650.7,901.4h.6c0,0,.4.8.4.8-1,13.9-1.9,30.3-7.3,43.3-1.2,3-3,4.1-5.9,5.2-13.6,5-36.7,5.3-51,4.1-2.1-.2-5,0-6.9-1l-.6-2.9c.8-6.6,2.3-13.1,2.9-19.8.8-9,.3-19.2,2.3-27.9,2.1-.2,4.3.9,6.3,1.5,16.1,4.8,44.4,4.8,59.4-3.3Z"/>
        <path class="cls-3" d="M225.6,206.8c.2.6.5,1.2.5,1.9.6,5-.6,17.2-.8,22.8-.5,13.9-.7,27.8-.8,41.7-.1,10.3.4,20.6.6,30.9.2,11.7,0,23.4.3,35.1.9,28.3,3,56.6,4.2,84.9.3,6.4,3.7,33.2,2,37l-.7.2c-1.2-1.8-1.6-17.1-2.7-21.2,0-.2-.1-.4-.2-.6,1.3-3.5-1.3-20.7-1.9-25.5-6.2,1.6-12.9,4.3-17.3,9.1v-.7c-1.2-9.2-1.5-18.6-1.9-27.9-.8-16.2-1.4-32.3-1.7-48.5-.6-28-1.3-56-.4-84.1.3-8.7-.4-18.5,1.9-26.8,3-10.9,12.1-19.6,19-28.2Z"/>
        <path class="cls-2" d="M890.1,70.9c5.5,0,11,0,16.4,1.7,4.9,1.5,10,4.6,12.2,9.5,5.6,11.8,7.7,55.1,3.4,66.9-1.9,5.3-5.7,8.8-10.7,11.1-12.7,6-34.2,6.5-47.3,1.7-10.3-3.7-17.5-10.8-22.1-20.7-1.1-2.9-2.1-5.9-2.8-8.9-2.8-11.8-4.9-27.9,2.1-38.8,1.6-2.5,4-4.9,7.1-5.4,2.6-.5,5,.3,7.1,1.9,6.4,4.9,10.9,20.3,10,28.1-.5,3.8-4.3,10.2-3.4,13.6.4,1.6,1.7,3,3.1,3.7,1.2.2,2,.2,3.1-.3,14.3-7.1,7-40.8,13-55.7,1.9-4.7,4.6-6.6,9-8.5Z"/>
        <path class="cls-2" d="M252.1,781.6c8.6-.9,18.7.1,26.8,3,5,1.8,10.2,4.9,12.5,10,1.1,2.5,1.2,5.2,0,7.7-1.7,3.8-5.4,6.2-9.2,7.6-16.4,5.9-34.9-5.8-49.1-12.8-1.6.3-3.2.3-4.8.5-.7,2.2-1.3,4.4-1.8,6.6,14,15.3,49.2,17.5,65.4,38.5-.8,2.9-1.5,5.3-2.9,8-4.9,7.8-16.4,23.4-25.5,26.2-8.6,2.6-28.4-7.7-35.9-12-7.9-4.5-30.3-19.5-31.9-29.1-1.5-8.8,16-37,21.5-44.1,1.9-2.4,4.3-5.6,6.9-7.3,4.8-3,20.8-1.8,27.3-2.6h.7Z"/>
        <path class="cls-3" d="M669,724.7l7.5-.4c.9,7.4,1.2,14.9,1.7,22.3-36.8,3.4-73.8,5.4-110.6,7.9l-219.1,14.4c-3,0-5.9.3-8.8.7.1-7.4-1-14.7-.7-22.1,6.1-2.3,67.6-5.2,78.5-5.9l251.5-16.9Z"/>
        <path class="cls-3" d="M705.7,140.6c2.5,0,5.1,0,7.6.2,10.1,1.1,18.8,4.8,25.2,12.8.8,1.1,1.6,2.2,2.4,3.3.7,1.2,1.4,2.4,2,3.6.6,1.2,1.1,2.5,1.6,3.8.5,1.3.8,2.6,1.2,3.9,1.6,6.9,2,14.3,2.6,21.4,1.4,15,2.6,29.9,3.6,44.9,3.1,45.7,5.1,91.5,5.9,137.3.9,45.8.6,91.6-.8,137.4-1.8,56-5.9,111.8-12.4,167.4-1.1,9.7-3.1,19.4-11.2,25.7-6.4,4.9-13.6,7.5-21.5,8.6-7.5,1.1-15.5,1.3-23.1,1.7-12.1.7-24.2,1.5-36.4,2.3l-145.1,9.4c-49.3,3.8-98.7,7.2-148,10.2-16.9,1-41,4-57.1,1.9-6.8-1.2-13.1-3.8-18.5-8.2-4-3.4-6.4-7.4-8.1-12.3-2-5.8-2.7-11.9-3.8-17.9l-5.1-27.7c-1.7-9.4-3.8-18.7-5.5-28.1-2.9-16.5-4.7-33.1-7-49.7-2.5-18.3-5.4-36.6-7-55-3.9-45.2-6.8-90.4-8.8-135.7-2-45.3-3.1-90.6-3.2-135.9,0-14.2.2-28.3.6-42.5.2-7.5,0-15.4,1.5-22.8.7-3.7,1.9-6.4,4.4-9.3,4.6-5.4,11.4-10.1,18.3-12.1,8.8-2.6,19.4-2.3,28.6-3.4,19.2-2.3,38.4-5.3,57.6-7.6,74.4-9,149.1-15.8,223.9-20.5,27-1.7,54.1-3.3,81.2-4.6,18-.8,36.2-1.2,54.2-2.6Z"/>
        <path class="cls-1" d="M628.5,173.2c7.8-.5,15.7-.2,23.6-.2,19.9,0,37.7,0,54.1,13,4.9,3.9,9.3,9,11.6,14.9,2.9,7.6,2.9,17.3,3.8,25.5l5.4,48.6c2.1,19.4,4.2,39,5.4,58.5,1.3,21.2,1.2,42.6,1.1,63.9,0,14.9.3,30.9-2.1,45.6-1,5.9-2.6,12.9-6.6,17.5-12.4,14.6-50.5,13.3-68.9,14.3-.4,6.8,0,13.7.3,20.6.2,8,.2,16,.5,23.9,9.9-.4,19.8-1,29.6-1.8,5.3-.5,10.7-1.5,16-1.5,2.1,0,4.2.1,6,1.2.4.8.6,1.5.7,2.4.6,4.7.4,9.8.4,14.6v27.7c0,20-.5,40-1,60-.3,11.9-.9,23.6-1.6,35.5-.3,5.3-.4,10.7-1.1,16-.3,2.1-.6,4.9-2,6.6-.7.8-2.4,1-3.4,1.3-9.2,2-19.8,1.8-29.3,2.6l-71.6,5-218.9,14.8c-3.6.4-48.3,3.8-48.8,3.6-.3-.1-.5-.4-.8-.5-1.9-4-2.5-8.4-3.2-12.8-5.3-32.6-10.3-65.2-14.8-97.9-1.7-12-3.2-23.9-4.4-36-.4-4.5-1.2-9.4-1.1-13.9,0-1.4.5-3.3,1.5-4.3,3.8-3.9,49-5.7,57.4-6.1-.7-13.6-.7-27.3-1.2-41-8.8.6-17.6,1-26.5,1.3-14.2.5-28.3,1.9-39.7-8.2-6-5.3-9.1-12.9-11.3-20.4-2.7-9.2-3.2-18.8-4.4-28.2-2.5-21.1-4.4-42.2-5.7-63.4-1.5-26.1-2-52.3-1.6-78.5.1-18.1-.2-37,3.1-54.8,1.6-8.5,4.1-19,10.1-25.5,13.4-14.6,47.6-16.6,66.4-19.8,39.1-6.6,78.5-11.9,118-15.8,51.5-4.7,103.2-6.5,154.9-8.2Z"/>
        <path class="cls-3" d="M575.5,545.1c.4,0,.6,0,1,.1,1.1.3,2,1.1,2.6,2.1.7,1.3.7,2.4.3,3.8-1.2-.7-3.1-1.6-3.9-2.8-.8-1.2-.4-2,0-3.2Z"/>
        <path class="cls-3" d="M584.2,549.6c.7.3,1.3.9,2,1.4,1.1,1,1.5,1.5,1.6,2.9l-1.5,1.3c-.3,0-.6,0-.8,0-1.3-.2-1.8-.5-2.7-1.4,0-2,.5-2.5,1.4-4.2Z"/>
        <path class="cls-3" d="M404,583.6c.7,0,1.6,0,2.3.3,1.2.4,1.7,1.1,2.3,2.2-.2,1.9-.5,1.9-1.9,3.2l-1.4.6c-.7-.3-1-.3-1.4-1-1-1.8-.6-3.5,0-5.3Z"/>
        <path class="cls-3" d="M585,505.2l.7.7c.4,1.8.5,3.6.5,5.4,0,2.4-.2,2.8-1.9,4.4-1-1.8-1.5-4.9-1.4-6.9.1-2,.7-2.3,2.1-3.5Z"/>
        <path class="cls-3" d="M456.8,554.3c.9,0,1.7.2,2.6.4,1.1,1,1.2.9,1.3,2.4-.9,1.5-1.5,1.7-3,2.5l-2,.5c-.6-.4-1-.4-1.1-1.1-.2-1.9,1-3.3,2.1-4.7Z"/>
        <path class="cls-3" d="M417.7,577.6c1.2.2,2,.6,3,1.2,1.4,2.7-.7,3.7-1,6.3,0,.3,0,.5,0,.8-.4-.2-.7-.5-1.1-.7-1.6-1.1-2.5-1.8-2.9-3.8.3-1.6,1-2.4,2-3.7Z"/>
        <path class="cls-3" d="M531.5,510.6c.6.2.9.5,1.4.9.9,2,1.4,4,1.5,6.2.2,3.7.3,5.9-2.3,8.8l-.4.8c-1-.4-1.1-.6-1.4-1.6-1.1-3.8-.5-11.6,1.1-15.1Z"/>
        <path class="cls-3" d="M500.4,510c.7.3.5.1,1.1.6,1.5,1.1,1,15.5,1.5,18.3.2,1,.3,1.2,0,2.2h-.9c-1-.9-1.9-1.8-2.5-3.1-2.2-5.4-1.3-12.6.7-18Z"/>
        <path class="cls-3" d="M425,492.3c1.5,1.6.6,14.6.6,17.7.3,13.6.9,26.8,2.5,40.3,1,8.5,3.2,17.2,3.6,25.7-.3-.2-.6-.4-.8-.7-1.3-1.9-1.6-6.2-2.1-8.4-1.1-5.2-2.1-10.4-2.9-15.7-.8-5.3-1.4-10.5-1.8-15.8s-.7-10.6-.7-15.9c0-5.3,0-10.6.4-15.9.2-3.7.2-7.6,1.2-11.2Z"/>
        <path class="cls-3" d="M438.7,490c.5.2.9.5,1.3.8,1.1,3.8.5,8.5.7,12.4.5,10.4,1.1,20.9,2,31.3.3,4,4,32.9,3.8,33.8-.1.8-.7.9-1.4,1.4-.3-.7-.4-1-.5-1.8-.4-4.5-1.7-9.1-2.3-13.6-2.3-16.5-3.6-33-3.9-49.6,0-4.7-.5-10,.3-14.7Z"/>
        <path class="cls-3" d="M596.8,477.5c.6.2,1.2.2,1.6.7,2.1,2.7,2.5,72.9,1.7,79.7-1,.8-1.2.6-2.5.5.7-8.4.2-16.8,0-25.2-.2-7.4,0-14.7-.2-22.1,0-2.2-.9-5.9-.2-8,1.9-5.5-2.7-18.6-.4-25.6Z"/>
        <path class="cls-3" d="M613,464.1l1.8,1.3c2.1,4.1.9,16.7,1,21.6.2,15,.9,30,.7,45-.1,10.9-.9,21.7-1.4,32.5l-.7.6-1.5-.6c1.4-9,1.1-18.3,1.2-27.4.2-13.3.5-26.7,0-40-.4-8.5-.8-16.7-.8-25.2,0-2.9-.7-4.8-.1-7.8Z"/>
        <path class="cls-3" d="M627,460l1.6.6c4.5,6.8,2.9,75.9,2.7,88.3,0,6.1.6,13.1-.2,19-.2,1.4-.5,1.4-1.6,2.2-.1-.1-.2-.2-.3-.3-1.8-2.4,0-28.2-.2-33.6-.3-10.4-1-20.8-1.1-31.2,0-7.1.5-14.1.3-21.2-.2-7.6-2-16.2-1.2-23.7Z"/>
        <path class="cls-3" d="M384.6,467c.8.1,1.6.3,2.4.6,1.2,4.3.3,14.8.4,19.7.1,7,.5,14,1,21,.7,11.5,2,22.9,3.8,34.3,1.1,6.9,2.8,14.1,3.4,21.1.2,1.9.1,2.4-1.1,3.9-.2-.2-.5-.3-.6-.6-1.8-2.4-2.7-7.7-3.5-10.7-7.5-28.6-8.4-59.9-5.6-89.3Z"/>
        <path class="cls-3" d="M552.1,482.7c1.8-.3,3.6-.3,5.4-.5-7.5,7.5-16,14-23.9,21.1-6.5-1-18.2-3-24.3-1.7-6.3,1.3-7.6-.9-13-4.1-4.9-3.3-10.3-5.8-15.2-9.1,23.7-1,47.3-4.6,71-5.7Z"/>
        <path class="cls-3" d="M329.2,460.9c8.9,3.2,18.4,3.2,27.6,2.8,2.6,0,5.4-.7,8-.4.7,3.7-.6,8.5-.7,12.4-.1,2.8.2,5.5,0,8.2l-1.4.5c-4.9-1-9.8,0-14.8.4-13.3-.1-26.5,2.8-39.1-2.5,4.3-4,8.3-8.2,12.2-12.6,2.7-3,5.1-6.4,8.3-9Z"/>
        <path class="cls-3" d="M681.4,436.3c3.4.7,23.1,18.4,28.3,21.9-9.5,3.7-21.1,4-31.2,4.8-7.9,1.1-16,1.4-24,1.9-.4-6.5-1.8-13.9-3.8-20.1,10.8-1.3,21.6-1.7,30.6-8.5Z"/>
        <path class="cls-3" d="M598.4,447.2h.1c0,0,.1.6.1.6-9.2,8.2-18.3,15.7-28.2,23-8.5,0-17.1,1-25.6,1.7-19.7,1.6-39.3,3.6-58.9,5.3-6.8.6-18.4,2.5-24.8,1.4-5.7-1-14.5-7.5-19.6-10.7-4.7-2.6-9-5.7-13.4-8.7,5.9-1.3,11.8-1.3,17.9-1.6,7.2-.4,14.3-1,21.5-1.6,43.6-3.8,87.3-6,130.9-9.3Z"/>
        <path class="cls-2" d="M290.9,238c6.9,3.6,11.7,10.2,18.9,13.9-.9,10.3-2.3,20.6-2.8,30.9-1.1,21.3-.7,42.2,0,63.4.2,8.5-.8,17.7.3,26.1.2,1.6,1,2.9,1.2,4.5.2,1.3-.2,9.9,0,12.5,1.7,22.7,2.1,44.4,12.1,65.2-3.6,3.6-7,7.1-10.3,11l-8.3,9.5c-.1-.2-.2-.3-.3-.5-6.6-10.3-7.6-35.7-8.8-48-2.3-21.5-4-43-5.1-64.6-1-21.6-1.5-43.2-1.2-64.7.2-19.8.3-39.9,4.4-59.3Z"/>
        <path class="cls-3" d="M698.2,527.2l.4.2c.2.4.4.6.5,1.1,1,4.8.2,14.8.2,20,0,11.1.7,22.6,0,33.7-.1,1.8-.2,3.7-1.1,5.2-6.9,2.2-34.6,3.5-43.6,4.1l-132,8.4c-.4-9.1-1.2-18.2-2.1-27.2-.5-4.8-1.8-10.8-1.3-15.5-.3-3.8-.7-7.6-.9-11.4,6.2-1.4,12.5-2.2,18.7-3.8,1.1,1.1,2.2,2.2,3.3,3.3,4.5,4.4,9.3,8.6,14.4,12.3,5.4,3.8,11.4,7,17.1,10.2,18.6,10.3,41.5,22,63.4,21.4,4.8-.1,10.2-.8,13.6-4.6,7.2-8,8.3-44.3,7.6-54.9,13.9-1,27.9-1,41.8-2.5Z"/>
        <path class="cls-3" d="M367.8,546.6c.5,14.5,2.7,43.5,13.8,53.7,5.4,4.9,11.8,6.3,18.8,5.8,20.3-1.6,61-26.1,77.7-39.4,3.1-2.5,22.2-19.9,23.3-20.2,3.7-1,9.4-.5,13.3-.7-1.2,17.8,3.4,35.6,2.5,53.2v.7c-.4.2-.7.6-1.1.7-2.8.9-20.1,1.1-24.1,1.3-4.4.2-8.9.8-13.4,1.2-19.2,1.7-38.5,2-57.8,3.5-4.2.3-8.3,1.1-12.5,1.4l-81.9,6.4c-1.1-10.5-8.9-57.9-7.2-64.4,3.7-1.1,8.7-1,12.6-1.3l29.6-2.3c2.2-.2,4.1.1,6.3.6Z"/>
        <path class="cls-3" d="M628.3,183.1c15.3-.9,30.9-.2,46.3-.2-3.2,5.7-13.2,16.1-19,19.1-5.6.2-11.4,0-17.1,0-13.3-.1-26.5,0-39.8.5-33.9,1.4-67.7,3.7-101.4,6.6-33.8,3-67.4,6.7-101,11.3-19.7,2.8-43.7,4.7-62.5,10.4-7.5,1.8-14.8,5.3-19.3,11.7-6.5-5.3-13.6-10-20.5-14.8.2-.3.4-.5.7-.8.8-.9,1.7-1.8,2.6-2.6.9-.8,1.9-1.6,2.9-2.3,1-.7,2-1.4,3.1-2,1.1-.6,2.2-1.1,3.3-1.6,15.7-6.6,36.2-8.4,53.1-11.2,26-4.3,52.1-8,78.2-10.9,16.2-2.1,32.5-3.9,48.8-5.3,11.8-1,23.6-1.4,35.5-2.1l106.1-5.6Z"/>
        <path class="cls-2" d="M687.7,185.3c6.4,3.6,15.1,8.6,18.6,15.5,3.6,7,3.7,23,4.8,31.4,4.4,35.3,8.1,71,9.8,106.5.5,11.5.2,22.9.5,34.4.7,22.7,2.6,59-4.4,80.1-4.2-3.7-8.7-7.2-13-10.8-5.7-4.2-11.7-8.4-16.9-13.3,16.9-29.4,6.8-116.2,2.8-150.9-1.7-14.7-2.7-29.6-5.9-44.1-2.7-12.4-7.3-20.9-18-27.8,7.1-6.8,13.8-15.3,21.6-21.1Z"/>
        <path class="cls-3" d="M690.2,599.2c1.8-.8,6.2-.5,8.2-.6-1.3,6.7-.5,14.3-.7,21.1-.5,17-.7,34.6-2.5,51.5-15.4,1.8-31.2,2.2-46.7,3.2l-63.6,4.5-37.1,2.8c-6.8.5-13.6,1.3-20.4,1-.1-2.8-.3-5.5-.5-8.3-.3-4.6-.9-9.2-1.5-13.8,3.4-1.6,6.8-3.2,10.1-4.9,1.7-2.7,3-5.6,4.2-8.5-1-2.9-2.1-5.9-4.1-8.2-2.9-3.3-7-4.6-11.2-5-.2-7.8-.6-15.6-1.1-23.4,16-2.1,32.5-2.3,48.6-3.2l80.6-5.3c9.6-.7,29.4-.7,37.6-2.9Z"/>
        <path class="cls-1" d="M589,630c.5,0,1,0,1.5,0,6.2.3,9.8,3.3,13.9,7.7.3,3.7.6,6.9-1.5,10.2-2.3,3.6-6.2,4.9-10.1,5.9-1.6-.1-3.4-.1-5-.4-5-.8-7.7-4.5-10.3-8.4-.3-4.5.4-7.7,2.5-11.7,3-1.8,5.7-2.7,9.1-3.3Z"/>
        <path class="cls-1" d="M654.6,625c2.6-.2,4.9-.4,7.4.4,3.6,1.2,6.8,3.7,8.4,7.2,1.3,2.8,1.6,5.9.5,8.8-1.5,4-4.6,6-8.3,7.7-3.4.4-6.5.8-9.8-.5-3.3-1.4-5.9-3.8-7.2-7.2-1.1-2.9-1.2-6.3.1-9.1,1.8-4,4.9-5.7,8.8-7.2Z"/>
        <path class="cls-3" d="M513.8,611.2c1.5-.3,3.3.1,4.8.3.3,8,.8,16.1.1,24-3.1,1.2-5.8,3.8-7.2,6.9-1.2,2.7-1.2,5.9-.1,8.7,1.7,4.4,5.5,7.4,9.7,9.3.5,7.7,1.2,15.3,2,22.9-6.3,1.2-13.1,1.1-19.5,1.6l-34.4,2.4-122.8,8.1h-.3c-2.2.6-5.1.4-7.4.7l-7-45.1c-1.3-8.4-3-16.7-4-25.1,4.3-3.4,168.5-13.2,185.8-14.7Z"/>
        <path class="cls-1" d="M459.5,640.1c.2,0,.4-.2.6-.2,2.2-.3,6.1.4,8,1.8,4.2,3.1,5,8,5.6,12.8-.8,1.5-1.6,3-2.6,4.4-2.8,3.9-5.7,5.3-10.3,6.1-3.8-.3-7.3-1.1-10.2-3.6-3.7-3.1-4.4-6.9-4.8-11.4.7-1.6,1.6-3.2,2.7-4.6,3-3.7,6.4-4.8,11-5.3Z"/>
        <path class="cls-1" d="M390.3,644h.4c6.3,1.4,9,4.3,12.4,9.5l.3,5.5c-.9,1.9-1.9,3.7-3.3,5.3-2.7,3.3-5.8,5-10.1,5.4-2.8-.2-5.4-.5-7.9-1.9-3.1-1.7-5.6-4.3-6.4-7.8-.8-3.3,0-6.7,1.8-9.5,3.1-4.7,7.7-5.5,12.8-6.4Z"/>
        <path class="cls-3" d="M619.6,212.1c.5,0,1.1,0,1.6,0,9.6-.2,26.6-1.4,35.4,1,3,.8,6,2.3,8.2,4.6,4.2,4.2,6.3,10.5,7.9,16.1,4.3,15.2,5.8,31.7,7.6,47.3,2.9,26.6,5.2,53.1,5.8,79.9.4,17.2,2.5,54-10.1,66.6-6.7,6.6-19.2,6.5-27.9,6.5-1-1.2-2-2.5-3.1-3.5-4.1-3.8-10.9-4.9-16.2-4.2-4,.6-8.4,2-11.8,4.2-4.1,2.7-5.4,4.8-10.5,5.5-8.6,1.3-17.7,1.3-26.5,2-16.7,1.4-33.3,2.6-50,3.7-25.3,1.7-50.6,3.2-76,4.5-12.4.8-24.8,2.1-37.3,2.6-1.7,0-3.8.2-5.5,0-2-.3-4.3-1.8-6.1-2.6-6.1-2.8-12.2-4-18.9-3.7-11.6,2.5-9.9,5.1-18.5,10.2-.1,0-.3.1-.4.2-9.8.2-22.3,2.2-31.6-1-4.1-1.4-6.8-3.8-8.6-7.8-10.3-23.3-14-171.4-4.5-195.9,11.2-10.8,38.7-11.7,53.5-14,49-7.8,98.2-13.4,147.7-16.8,17.1-1.4,34.3-2.4,51.5-3.3,14.8-.7,29.5-1,44.3-1.9Z"/>
        <path class="cls-1" d="M572.9,369.2c.5,0,1.3,0,1.7.2,1.2.4,1.5.9,2.1,2,0,1.6-.4,2.3-1.3,3.5-.6,0-1.3,0-1.9-.2-1.2-.4-1.6-.9-2.2-2,.3-1.8.6-2.1,1.6-3.5Z"/>
        <path class="cls-1" d="M610.6,379.2c1,0,2.5,0,3.4.4,1.3.6,1.5,1,2.1,2.2,0,1.7-.6,2.5-1.4,3.9-.3,0-.5,0-.8,0-2-.4-3.4-1.3-4.4-3.1,0-1.6.3-2.1,1.1-3.4Z"/>
        <path class="cls-1" d="M592.7,379.8c1,.4,1.5.8,2.3,1.5.2.7.6,1.2.4,1.9-.6,2.1-2.6,3.1-4.4,4-1-.5-2-1.2-2.6-2.2-.5-1-.4-2,.2-2.9.9-1.4,2.5-1.8,4-2.4Z"/>
        <path class="cls-1" d="M418.4,401.3c1.4,0,2.1,0,3.4.7.6.7,1,1,1.1,1.9.2,2.1-.9,3.5-2.3,4.9-.9,0-2.1-.2-2.9-.7-.1,0-.2-.1-.3-.2-.1,0-.2-.2-.3-.3,0,0-.2-.2-.2-.3,0-.1-.1-.2-.2-.3,0-.1-.1-.2-.2-.4,0-.1,0-.2-.1-.4,0-.1,0-.3,0-.4,0-.1,0-.3,0-.4,0-1.7,1.1-2.9,2.1-4.1Z"/>
        <path class="cls-1" d="M597.4,366.8c1.7.1,2.2.3,3.6,1.3.3.9.5,1.1.3,2.1-.5,2.3-2,3.3-3.9,4.5-1.3.4-1.4.5-2.6,0-.2-.4-.4-.8-.5-1.3-.3-2.5,1.5-5,3.2-6.7Z"/>
        <path class="cls-1" d="M399.5,390.3c1,0,2.5.2,3.3.8,1,.6,1.6,1.4,1.7,2.6.1,1.7-1.1,3.3-2,4.6-1.5.2-2.1.1-3.5-.3-.6-.6-1.1-.8-1.3-1.6-.5-2.3.7-4.1,1.8-6Z"/>
        <path class="cls-1" d="M423.8,383.5c1.5-.1,2.9-.2,4.4.2,1.2.4,2.2,1,2.7,2.2.6,1.6,0,3-.6,4.5-1,0-1.9,0-2.9-.3-1.5-.3-3-1-3.8-2.4-.7-1.4-.3-2.7.2-4.1Z"/>
        <path class="cls-1" d="M580.3,221.9c10.7,1.3,27.7,7.7,34.7,16.3,1.4,1.8,2.4,3.7,2,6-.5,2.9-2.9,4.5-5.1,5.9-5.9-1.8-10.2-6.4-15.7-9.1-5.4-2.7-11.8-3.5-17-6.4-1.6-.9-3.1-2.1-3.8-3.8-.7-1.5-.5-3.2,0-4.7.9-2.4,2.6-3.3,4.8-4.2Z"/>
        <path class="cls-1" d="M392,248.9c.2,0,.4,0,.7,0,1.7,0,2.8,1.1,3.8,2.3,1.4,1.8,2.2,4.2,1.8,6.4-.2,1.3-.6,2.1-1.7,3-4.8,3.8-10.6,6.4-15.7,9.9-4.8,3.2-9,7.2-13.8,10.3-1.1-.4-2.2-.9-3.2-1.5-1.7-1-3.3-2.6-3.7-4.5-.5-2,.2-4,1.2-5.7,5.1-8.4,21.2-17.8,30.7-20.2Z"/>
        <path class="cls-1" d="M529.6,371.5c.7.2,1.3.3,1.9.7,1.3.9,2.3,2.5,2.5,4.1.8,4.8-2.6,10.5-5.4,14.2-6.2,8.2-16.2,13.8-26.3,15.2-12.4,1.7-23.8-2-33.7-9.4-1.4-1.1-2.9-2.3-4.2-3.6-2.5-2.7-5.7-8.5-5.3-12.4.1-1.3.5-2.2,1.5-3,.9-.7,1.8-.9,2.9-.9,4.4,0,8.9,1.2,13.3,1.7,5,.6,9.9.7,14.9,1.5,3.2-1.7,16.1-2.1,20.7-3,6-1.2,11.6-3,17.3-5.1Z"/>
        <path class="cls-1" d="M578.5,259.2c13.7.6,25.8,4.6,36.1,14,9.3,8.5,14.6,21,15,33.5.4,11.9-2.7,23.9-11,32.7-11.9,12.7-24.4,16.9-41.4,17.4-12.8-.3-24.3-3.2-34.2-11.7-9.4-8.1-15.5-21.5-16.4-33.7-.9-12.6,3.8-24.8,12-34.3,10.3-11.9,24.5-16.9,39.9-17.9Z"/>
        <path class="cls-3" d="M578.3,268.7c12,.8,13.4,1.3,23.9,6.9-4.8-.3-8.9-.1-13.6,1.2-.5.1-1.1.3-1.6.5-.5.2-1,.4-1.5.6-.5.2-1,.4-1.5.6-.5.2-1,.5-1.5.7-.5.2-1,.5-1.4.8-.5.3-.9.6-1.4.9-.5.3-.9.6-1.4.9-.4.3-.9.6-1.3,1-.4.3-.9.7-1.3,1-.4.4-.8.7-1.2,1.1-.4.4-.8.8-1.2,1.2-.4.4-.7.8-1.1,1.2-.4.4-.7.8-1,1.3-.3.4-.7.9-1,1.3-.3.5-.6.9-.9,1.4-.3.5-.6.9-.8,1.4-.3.5-.5,1-.7,1.4-.2.5-.5,1-.7,1.5-.2.5-.4,1-.6,1.5-.2.5-.4,1-.5,1.5-.2.5-.3,1-.5,1.6-.1.5-.3,1-.4,1.6-.1.5-.2,1.1-.3,1.6,0,.5-.2,1.1-.2,1.6,0,.5-.1,1.1-.1,1.6,0,.5,0,1.1,0,1.6,0,.5,0,1.1,0,1.6,0,.5,0,1.1.1,1.6,0,.5.1,1.1.2,1.6,0,.5.2,1.1.3,1.6.1.5.2,1.1.3,1.6.1.5.3,1,.4,1.6,2.1,7,6.3,13.3,13,16.8,10,5.2,20.8,3.9,31,.5-2.5,2.9-5.1,4.8-8.4,6.7-7.3,3.6-13.9,6-22.1,6.3-11.7.4-22.4-3.4-31-11.4-7.8-7.3-12.1-18-12.3-28.6-.2-9.4,4.2-18.7,10.6-25.4,8.5-8.9,19.6-13.7,31.9-14.1Z"/>
        <path class="cls-1" d="M408,277.7c.3,0,.7-.1,1-.1,13.8-1.6,28.4,3,39.1,11.7,9.4,7.6,16.7,18.7,17.9,31,1.2,12.3-2.4,25.1-10.4,34.6-9.2,10.9-25.2,18.2-39.2,19.5-1.4.1-2.8.2-4.2.3-14.1.8-29-3.5-39.6-13.1-8.9-8-13.8-18.7-14.4-30.7-.6-13.3,3.5-26,12.5-35.9,9.2-10,23.7-16.7,37.2-17.2Z"/>
        <path class="cls-3" d="M405.7,287.1c8.8-1.3,18.1.2,26.4,3-12.2,2.8-20.6,4-28.6,15-5.4,7.4-7.3,17-5.8,25.9,1.4,8.6,5.7,15,12.7,20,9.9,7,18.9,5.9,30.1,3.9-2.5,1.8-5,3.4-7.8,4.9-4.7,1.9-9.6,3.4-14.5,4.4-12.6,2.4-26.7-.2-37.2-7.6-7.4-5.1-12-13-13.4-21.8-1.7-9.9.4-21,6.3-29.1,7.7-10.6,19.1-16.5,31.8-18.5Z"/>
      </g>
    </g>
  </g>
</svg>