<?xml version="1.0" encoding="UTF-8"?>
<svg xmlns="http://www.w3.org/2000/svg" version="1.1" viewBox="0 0 377.9 377.9">
  <defs>
    <style>
      .cls-1 {
        fill: #e9e9eb;
      }
    </style>
  </defs>
  <!-- Generator: Adobe Illustrator 28.6.0, SVG Export Plug-In . SVG Version: 1.2.0 Build 709)  -->
  <g>
    <g id="Capa_1">
      <path class="cls-1" d="M300.7,61.2c-7.5-8.3-18.3-11.7-32.5-10-9.2,1.7-18.3,8.3-29.1,20-10.8,11.7-21.6,25.8-33.3,43.3-11.7,17.5-22.5,35.8-33.3,55.8-10.8,20-20.8,38.3-30.8,56.6-2.5,5-5.8,10-8.3,15-2.5,5-5,9.2-7.5,14.2-2.5,5-6.7,12.5-12.5,22.5s-11.7,20-16.7,30c-5,10-8.3,15.8-10,18.3L246.5,17.1c0-4.2-1.7-6.7-5.8-9.2-4.2-2.5-8.3-5-12.5-6.7-4.2-1.7-7.5-1.7-9.2,0-1.7,1.7-5.8,10-12.5,24.1-7.5,14.2-16.7,31.6-27.5,53.3s-22.5,44.1-35,68.3c-12.5,24.1-24.1,48.3-35,70.8-11.7,22.5-20.8,42.5-28.3,59.1s-11.7,28.3-12.5,34.1c-1.7,11.7-2.5,23.3-1.7,34.1.8,10.8,3.3,20,6.7,25.8,3.3,6.7,7.5,8.3,12.5,5.8,3.3-2.5,6.7-5.8,9.2-10,2.5-5,6.7-12.5,11.7-23.3,5-10.8,11.7-23.3,18.3-37.5,6.7-14.2,15.8-30,25-45.8,8.3-15.8,17.5-31.6,25.8-46.6,8.3-15,15.8-27.5,22.5-37.5,4.2,6.7,10,12.5,16.7,17.5,7.5,5,15.8,7.5,25.8,7.5s13.3-4.2,20.8-10.8c8.3-6.7,15.8-15.8,23.3-26.6,7.5-10.8,13.3-21.6,18.3-33.3,5.8-12.5,8.3-25,8.3-37.5s-4.2-23.3-10.8-31.6ZM285.7,81.2c-.8,4.2-1.7,8.3-3.3,12.5-1.7,4.2-3.3,8.3-5,13.3-4.2,11.7-9.2,22.5-15.8,32.5s-11.7,18.3-17.5,25c-5.8,6.7-10.8,10-15.8,10s-10-2.5-13.3-6.7c-3.3-3.3-5.8-6.7-7.5-10,15-22.5,29.1-43.3,42.5-59.1s24.1-25,33.3-26.6c.8-.8.8-2.5,0-4.2-.8-2.5,0-2.5.8-.8.8.8,1.7,3.3,1.7,5v9.2Z"/>
    </g>
  </g>
</svg>