<?xml version="1.0" encoding="UTF-8"?>
<svg xmlns="http://www.w3.org/2000/svg" version="1.1" viewBox="0 0 942.9 174.2">
  <defs>
    <style>
      .cls-1 {
        fill: #fff;
      }
    </style>
  </defs>
  <!-- Generator: Adobe Illustrator 28.6.0, SVG Export Plug-In . SVG Version: 1.2.0 Build 709)  -->
  <g>
    <g id="Capa_1">
      <g>
        <path class="cls-1" d="M26.6,1l8.5,13.6L43.7,1h18.1l-18.9,29.1v19.9h-15.4v-19.9L8.5,1h18.1Z"/>
        <path class="cls-1" d="M114.4,0c15.3,0,25.6,10.2,25.6,25.6s-10.2,25.6-25.6,25.6-25.6-10.2-25.6-25.6S99,0,114.4,0ZM114.4,37.5c6,0,9.8-4.8,9.8-11.9s-3.9-11.9-9.8-11.9-9.8,4.8-9.8,11.9,3.9,11.9,9.8,11.9Z"/>
        <path class="cls-1" d="M204.7,30.2V1h15.4v30.5c0,11.4-6.9,19.6-22.3,19.6s-22.2-8.2-22.2-19.6V1h15.4v29.2c0,5.4,4,7.2,6.8,7.2s6.9-1.8,6.9-7.2Z"/>
        <path class="cls-1" d="M257.2,1h23.5c11.3,0,18.8,6.2,18.8,16.4s-2.8,11.4-8.5,14.1l11.8,18.6h-16.7l-10.3-16.2h-3.2v16.2h-15.4V1ZM279.9,20.5c2.3,0,3.9-1.1,3.9-3.2s-1.5-3-3.9-3h-7.3v6.2h7.3Z"/>
        <path class="cls-1" d="M408,0c5.3,0,9.7,1,16,3.6l-4.5,12.9c-4.8-2.2-8.5-2.8-11-2.8-6.6,0-9.6,4.3-9.6,11.8s4.3,11.8,10.2,11.8,7.1-1.4,11.8-3.6l4.5,12.9c-5.5,3.6-10.6,4.3-16.2,4.3-16.9,0-26-8.8-26-25.3S392,0,408,0Z"/>
        <path class="cls-1" d="M482.8,0c15.3,0,25.6,10.2,25.6,25.6s-10.2,25.6-25.6,25.6-25.6-10.2-25.6-25.6S467.5,0,482.8,0ZM482.8,37.5c6,0,9.8-4.8,9.8-11.9s-3.9-11.9-9.8-11.9-9.8,4.8-9.8,11.9,3.9,11.9,9.8,11.9Z"/>
        <path class="cls-1" d="M543.1,1h15.4l15.8,27.4,15.8-27.4h15.4v49h-15.4v-19.3l-11.1,19.3h-9.3l-11.1-19.3v19.3h-15.4V1Z"/>
        <path class="cls-1" d="M643.2,1h24.9c11.3,0,18.8,6.2,18.8,16.4s-6.9,16.4-21.1,16.4h-7.2v16.2h-15.4V1ZM667.3,20.5c2.3,0,3.9-1.1,3.9-3.2s-1.5-3-3.9-3h-8.7v6.2h8.7Z"/>
        <path class="cls-1" d="M733,1h14l19.6,49h-16.7l-2.4-7.3h-15.1l-2.4,7.3h-16.7l19.6-49ZM743.9,31.6l-3.9-11.8-3.9,11.8h7.7Z"/>
        <path class="cls-1" d="M799.5,1h15.4l16.8,23.6V1h15.4v49h-15.4l-16.8-23.6v23.6h-15.4V1Z"/>
        <path class="cls-1" d="M898.1,1l8.5,13.6,8.5-13.6h18.1l-18.9,29.1v19.9h-15.4v-19.9l-18.9-29.1h18.1Z"/>
        <path class="cls-1" d="M0,59.8h53.8c24.8,0,42.9,12.5,42.9,33.4s-3.8,13.3-9.9,18.4c10.4,5.8,18.1,13.9,18.1,24.8,0,26.6-23.4,35.4-58.4,35.4H0V59.8ZM48.3,101.2c7.7,0,12.3-2.1,12.3-5.6s-3.4-5.4-8.3-5.4h-17.1v11h13.1ZM52,141.4c11.7,0,16.8-2.6,16.8-7.4s-3-7.2-13.1-7.2h-20.5v14.6h16.8Z"/>
        <path class="cls-1" d="M107.4,59.8h77.8v30.4h-42.6v12.8h34.2v25.6h-34.2v12.8h45.8v30.4h-81V59.8Z"/>
        <path class="cls-1" d="M222,91.5c0,2.2.6,5.3,18.7,8.8,27.7,5.4,34.9,20.3,34.9,36.5,0,23.5-12.6,37.4-43.4,37.4s-30.7-4-45.1-9.9l10.2-26.2c10.9,5,21,8.2,30.6,8.2s14.9-1.3,14.9-5-2.9-4-20.5-8.5c-25.4-6.6-33.1-20.2-33.1-38.2s14.2-37.1,41.9-37.1,30.1,4,44.5,9.9l-10.2,26.2c-10.9-5-19.4-8.2-30.1-8.2s-13.3,2.2-13.3,6.1Z"/>
        <path class="cls-1" d="M304.4,90.2h-30.4v-30.4h96v30.4h-30.4v81.6h-35.2v-81.6Z"/>
        <path class="cls-1" d="M410.3,59.8h76.2v30.4h-41v12.8h32.6v25.6h-32.6v43.2h-35.2V59.8Z"/>
        <path class="cls-1" d="M486.7,59.8h53.6c25.8,0,43,14.1,43,37.4s-6.4,26.1-19.5,32.2l26.9,42.4h-38.1l-23.5-37.1h-7.2v37.1h-35.2V59.8ZM538.6,104.3c5.3,0,8.8-2.6,8.8-7.2s-3.5-6.9-8.8-6.9h-16.6v14.1h16.6Z"/>
        <path class="cls-1" d="M589.1,59.8h35.2v112h-35.2V59.8Z"/>
        <path class="cls-1" d="M633.9,59.8h77.8v30.4h-42.6v12.8h34.2v25.6h-34.2v12.8h45.8v30.4h-81V59.8Z"/>
        <path class="cls-1" d="M719.7,59.8h35.2l38.4,53.9v-53.9h35.2v112h-35.2l-38.4-53.9v53.9h-35.2V59.8Z"/>
        <path class="cls-1" d="M838.1,59.8h46.4c35,0,58.4,21,58.4,56s-23.4,56-58.4,56h-46.4V59.8ZM884.5,141.4c13.6,0,22.4-9.3,22.4-25.6s-8.8-25.6-22.4-25.6h-11.2v51.2h11.2Z"/>
      </g>
    </g>
  </g>
</svg>